<?xml version="1.0" encoding="utf-8"?>
<!-- Generator: Adobe Illustrator 16.0.0, SVG Export Plug-In . SVG Version: 6.00 Build 0)  -->
<!DOCTYPE svg PUBLIC "-//W3C//DTD SVG 1.1//EN" "http://www.w3.org/Graphics/SVG/1.1/DTD/svg11.dtd">
<svg version="1.1" id="Layer_1" xmlns="http://www.w3.org/2000/svg" xmlns:xlink="http://www.w3.org/1999/xlink" x="0px" y="0px"
	 width="393.442px" height="300px" viewBox="43.278 33 393.442 300" enable-background="new 43.278 33 393.442 300"
	 xml:space="preserve">
<g>
	<path fill="#2696DB" d="M135.621,87.563c0.675,2.503,1.374,5,2.018,7.508c2.026,7.905,4.028,15.818,6.049,23.725
		c0.067,0.25,0.242,0.475,0.493,0.945c0.751-1.801,1.382-3.404,2.085-4.974c0.712-1.591,1.504-3.142,2.249-4.72
		c0.98-2.09,1.886-4.221,2.935-6.278c1.633-3.198,3.282-6.396,5.074-9.51c1.456-2.531,3.024-5.021,5.293-6.96
		c3.619-3.089,7.728-4.58,12.438-3.351c2.213,0.578,4.297,1.671,6.426,2.57c1.485,0.628,3.003,1.04,4.627,1.084
		c0.431,0.012,0.859,0.211,1.289,0.326c-0.589,1.089-0.072,2.092,0.236,3.114c0.403,2.618,2.006,4.504,4.035,5.941
		c2.858,2.026,6.14,2.756,9.656,2.656c3.533-0.104,6.26-1.65,8.428-4.315c0.301-0.367,0.342-0.948,0.5-1.428
		c0.388,0.135,0.831,0.185,1.144,0.418c2.39,1.772,4.726,3.619,7.142,5.363c2.71,1.959,5.491,3.817,8.22,5.75
		c0.993,0.703,2.135,1.334,2.834,2.274c1.447,1.936,3.296,3.615,3.921,6.129c0.382,1.542,5.852,25.795,6.513,27.044
		c0.417,0.788,1.142,1.416,1.734,2.112c-0.083,1.255,0.83,2.033,1.415,2.969c-1.584,0.331-2.532,1.539-3.534,2.638
		c-0.455,0.498-0.222,1.274,0.393,1.327c0.946,0.082,1.884,0.592,2.867,0.065c0.38-0.201,0.86-0.205,1.276-0.297
		c-0.156,1.077-0.357,2.038-0.403,3.004c-0.026,0.585,0.191,1.179,0.305,1.77c-0.456,0.967-1.442,1.049-2.285,1.208
		c-2.857,0.537-5.727,1.081-8.618,1.424c-3.416,0.405-6.853,0.685-10.284,0.867c-3.646,0.197-7.299,0.218-10.949,0.311
		c-0.334,0.007-0.671-0.037-0.999,0.012c-0.318,0.049-0.625,0.182-0.939,0.277c-2.011-0.002-4.021-0.003-6.034-0.005
		c0.196-1.429,0.396-2.862,0.59-4.291c0.064-0.072,0.175-0.137,0.179-0.213c0.191-2.881,0.133-5.736-0.772-8.249
		c-1.568-0.199-2.974-0.275-4.332-0.565c-2.976-0.633-5.705-1.937-8.393-3.324c-1.809-0.932-3.652-1.352-5.735-0.856
		c-1.685,0.397-3.454,0.433-5.185,0.632c-0.86,0.068-1.137-0.42-1.247-1.185c-0.153-1.06-0.709-1.892-1.789-2.143
		c-0.958-0.219-1.976-0.463-2.93-0.357c-3.195,0.354-6.282,1.067-9.077,2.823c-2.757,1.733-3.141,2.653-2.208,5.678
		c1.107,3.594,2.108,7.227,3.15,10.842c0.47,1.637,0.988,3.216,3.123,3.255c0.339,0.274,0.641-0.929,1.029-0.782
		c1.436,0.54,2.884-14.289,4.433-14.755c2.475-0.74,5.068-1.158,7.464-2.094c4.003-1.568,7.989,11.896,12.189,10.963
		c1.39-0.309,6.055-1.913,7.481-1.177c2.733,1.403,1.255,6.875,2.445,9.559c1.112,2.5,1.995,5.107,2.998,7.658
		c0.129,0.326,0.399,0.595,0.6,0.89c-0.007,0.107-0.014,0.214-0.021,0.322c-1.33,0.188-2.66,0.376-3.993,0.56
		c-0.182,0.004-0.367,0.008-0.548,0.011c-1.77,0.181-3.539,0.42-5.312,0.521c-2.687,0.152-5.376,0.22-8.064,0.298
		c-1.564,0.049-3.127,0.052-4.692,0.075c-0.176,0-0.35,0-0.528,0c-0.841,0.057-1.681,0.119-2.519,0.169
		c-0.238,0.017-0.477,0.027-0.71,0.002c-2.721-0.267-5.444-0.516-8.162-0.824c-1.776-0.198-3.547-0.456-5.313-0.741
		c-2.366-0.38-4.723-0.811-7.082-1.221c-0.084-0.027-0.167-0.046-0.253-0.056c-1.625-0.363-3.249-0.727-4.873-1.094
		c0.183-2.446,0.365-4.893,0.541-7.34c0.105-1.411,0.166-2.83,0.312-4.24c0.241-2.34,0.541-4.671,0.805-7.01
		c0.123-1.078,0.209-2.159,0.334-3.238c0.267-2.292,0.564-4.579,0.823-6.868c0.22-1.97,0.383-3.942,0.612-5.909
		c0.148-1.257,0.372-2.509,0.562-3.764c0.095-0.152,0.25-0.295,0.277-0.458c0.396-2.505,0.761-5.018,1.162-7.522
		c0.396-2.458,3.152-17.436,3.05-17.459c-0.171,0.203-0.323,3.401-1.254,4.987c-0.27,0.46-0.614,4.299-0.542,5.107
		c0.111,1.193-0.65,1.792-0.554,2.991c0.052,0.604-1.167,4.476-1.366,5.918c-0.28,2.051-0.531,4.104-0.794,6.158
		c-0.435,0.627-0.89,1.244-1.323,1.872c-0.225,0.329-0.447,0.658-0.653,0.999c-1.419,2.308-3.1,4.4-4.846,6.469
		c-1.549,1.845-3.285,3.398-5.272,4.71c-1.736,1.143-3.591,1.85-5.729,1.686c-1.668-0.127-3.161-0.711-4.371-1.795
		c-3.635-3.258-5.578-7.443-6.407-12.199c-0.841-4.822-1.726-9.639-2.542-14.468c-0.903-5.338-1.721-10.694-2.625-16.036
		c-0.803-4.733-1.68-9.455-2.511-14.186c-0.064-0.37-0.029-0.758-0.041-1.139c1.148,0.291,2.299,0.583,3.449,0.875
		c1.145,0.229,2.292,0.457,3.436,0.685c0.28,0.02,0.559,0.039,0.838,0.06c0.098,0.01,0.194,0.021,0.291,0.029
		c0.93,0.004,1.861,0.01,2.793,0.015C134.252,87.732,134.938,87.649,135.621,87.563z M223.362,136.24
		c0.76-0.479-0.819-12.813-1.887-16.469c-0.076-0.263-0.335-0.474-0.567-0.778c-0.37,0.58-0.685,0.997-0.919,1.456
		c-1.101,2.138-2.322,4.229-2.79,6.631c-0.282,0.526-0.668,1.025-0.829,1.585c-0.844,2.875-1.647,5.767-2.435,8.664
		c-0.55,2.04-1.058,4.094-1.564,6.147c-0.051,0.202,0.039,0.442,0.083,0.862c3.985-0.499,7.877-0.985,11.827-1.482
		C223.396,140.526,224.172,138.383,223.362,136.24z"/>
	<path fill="#F0C213" d="M295.359,164.255c0.313,0.084,0.63,0.165,1.049,0.275c-0.191,1.877-0.297,3.72-0.588,5.532
		c-0.879,5.436-1.767,10.869-2.766,16.288c-1.057,5.737-2.333,11.442-4.268,16.966c-0.047,0.135-0.047,0.279-0.069,0.424
		c-0.189,0.391-0.38,0.788-0.578,1.177c-0.504-0.108-1.008-0.228-1.513-0.328c-1.294-0.27-2.597-0.767-3.886-0.755
		c-1.792,0.017-3.479-0.214-5.113-0.921c-0.111-0.103-0.217-0.201-0.329-0.298l0.021,0.009c-0.104-0.298-0.143-0.64-0.316-0.893
		c-2.163-3.189-4.342-6.375-6.521-9.558c-0.471-0.688-0.962-1.37-1.564-2.225c-1.382,2.881-2.664,5.556-3.987,8.319
		c0.431,0.145,0.737,0.268,1.05,0.354c2.195,0.588,4.397,1.165,6.59,1.768c0.526,0.144,1.152,0.242,1.059,1.047
		c-0.223,1.624-0.438,3.249-0.65,4.874c-2.992,0.089-5.985,0.232-8.979,0.246c-9.045,0.042-18.093,0.028-27.135,0.046
		c-0.517,0-1.036,0.08-1.553,0.121c-1.704-0.04-3.403-0.084-4.929-1.001c-0.891-1.76-1.193-3.647-1.261-5.606
		c-0.034-0.991-0.188-1.984-0.292-2.973c-0.335-3.207-0.695-6.419-1.012-9.625c-0.332-3.306-0.531-6.624-0.964-9.912
		c-0.409-3.079-0.141-6.073,0.724-9.012c0.86-2.91,2.668-4.894,5.743-5.751c4.383-1.226,8.708-2.669,13.055-4.02
		c0.321,0.175,0.673,0.318,0.974,0.523c1.602,1.096,3.148,2.275,5.021,2.916c2.471,0.844,4.949,1.051,6.923-1.983l0.105,0.009
		l0.101-0.007c3.448,1.913,6.904,3.808,10.333,5.76c0.627,0.362,1.27,0.885,1.649,1.493c3.395,5.492,6.74,11.015,10.093,16.535
		c0.421,0.68,0.813,1.384,1.335,2.263c0.828-3.192,1.607-6.188,2.382-9.185c1.027-3.997,2.043-7.997,3.093-11.985
		c0.14-0.523,0.436-1.003,0.654-1.501c1.039,0.706,2.208,0.915,3.435,0.875C293.436,164.442,294.392,164.349,295.359,164.255z"/>
	<path fill="#E8EAF0" d="M235.311,206.722c0.517-0.042,1.036-0.12,1.554-0.122c9.042-0.017,18.089-0.004,27.135-0.045
		c2.991-0.014,5.985-0.156,8.977-0.245c3.745,0.106,7.495,0.245,11.239,0.29c1.701,0.019,3.396-0.159,5.097-0.251
		c3.509,0.099,7.018,0.211,10.524,0.27c0.788,0.015,1.574-0.171,2.358-0.269c0.289,0,0.577,0,0.867-0.001
		c3.996,0,7.991,0.004,11.995-0.001c8.041-0.006,16.089-0.02,24.133-0.028c1.971,0.007,3.941,0.016,5.909,0.023
		c6.511-0.003,13.025-0.006,19.54-0.011c1.317-0.071,2.637-0.133,3.956-0.203c0.501,0.075,1.001,0.209,1.507,0.209
		c10.051,0.013,20.104,0.01,30.156,0.01c0.52,0,1.037,0,1.534,0c0.45,1.415-0.375,2.9-1.921,3.435
		c-0.565,0.192-1.196,0.279-1.798,0.279c-7.529,0.01-15.059,0.005-22.582,0.017c-0.487,0.002-0.98,0.187-1.467,0.276
		c-0.285,0-0.573,0-0.858-0.001c-0.597-0.09-1.197-0.278-1.796-0.273c-12.382,0.08-24.754,0.186-37.135,0.263
		c-0.746,0.003-1.498-0.195-2.252-0.186c-2.396,0.037-4.788,0.168-7.181,0.186c-3.239,0.036-6.48,0.028-9.722-0.003
		c-0.845-0.004-1.688-0.265-2.531-0.248c-1.801,0.033-3.594,0.256-5.389,0.246c-4.132-0.034-8.263-0.175-12.397-0.268
		c-0.285-0.004-0.572,0.006-0.855,0.036c-0.747,0.076-1.493,0.233-2.248,0.235c-5.433,0.019-10.864,0.006-16.298,0.012
		c-1.403,0.002-1.348,0.024-1.513,1.423c-0.179,1.451-0.491,2.881-0.704,4.318c-0.348,2.471-0.665,4.946-1.001,7.42
		c-0.381-0.183-0.762-0.372-1.147-0.562c0.671-4.145,1.335-8.279,2.033-12.582c-4.056,0-7.935,0-11.813,0
		c-0.744,0.013-1.49,0.023-2.241,0.034c-2.382,0-4.76,0-7.142,0c-2.484,0.008-4.967,0.017-7.451,0.025
		c-0.7-0.017-1.408-0.021-2.107-0.053c-1.495-0.063-2.987-0.147-4.479-0.229C236.271,209.517,235.625,208.234,235.311,206.722z"/>
	<path fill="#EEAF89" d="M295.359,164.255c-0.968,0.094-1.924,0.187-2.886,0.28c0.38-0.677,0.763-1.353,1.104-1.967
		c-1.138-0.523-2.149-0.985-3.155-1.449c-0.753-2.048-1.609-4.097-1.353-6.33c0.151-1.351,0.517-2.688,0.895-4.002
		c0.44-1.55,0.169-2.999-0.425-4.43c-0.123-0.307-0.393-0.585-0.423-0.894c-0.031-0.33,0.035-0.82,0.253-0.989
		c0.226-0.173,0.78-0.188,1.02-0.023c0.418,0.281,0.742,0.722,1.017,1.155c1.043,1.632,1.173,3.473,1.081,5.376
		c0.917,0.416,1.383-0.181,1.813-0.72c1.526-1.935,2.965-3.944,4.557-5.819c1.008-1.188,2.237-2.188,3.376-3.262
		c0.167-0.161,0.403-0.391,0.587-0.373c1.059,0.118,2.087-0.177,3.104-0.185c0.764-0.006,0.599,0.783,0.279,1.331
		c-0.205,0.178-0.412,0.353-0.625,0.53c-0.091,0.095-0.19,0.193-0.287,0.289c-0.049,0.055-0.104,0.108-0.161,0.165
		c0.087-0.025,0.165-0.052,0.252-0.076c0.099-0.095,0.189-0.188,0.289-0.286c0.194-0.126,0.396-0.253,0.591-0.379
		c0.893,0.247,0.846,0.771,0.383,1.383c-0.341,0.458-0.712,0.893-1.077,1.333c-0.352,0.436-0.72,0.867-1.071,1.285
		c0.41,0.364,0.945,0.628,1.059,1.016c0.111,0.377-0.149,0.911-0.354,1.321c-0.409,0.806-0.896,1.568-1.33,2.357
		c-1.056,1.909-2.167,3.793-3.135,5.745c-1.028,2.093-2.342,3.918-4.293,5.223C295.548,162.455,295.109,163.179,295.359,164.255z
		 M302.164,143.356c-0.103,0.09-0.197,0.181-0.299,0.274c-0.383,0.385-0.76,0.771-1.143,1.156c-0.264,0.329-0.528,0.656-0.793,0.985
		c0.137,0.073,0.267,0.151,0.403,0.225c0.164-0.374,0.327-0.746,0.498-1.119c0.37-0.389,0.744-0.776,1.12-1.165
		c0.088-0.097,0.183-0.195,0.276-0.295c0.091-0.094,0.187-0.187,0.283-0.284c0.093-0.095,0.195-0.188,0.292-0.288
		c0.09-0.093,0.188-0.186,0.283-0.279c0.091-0.099,0.188-0.196,0.279-0.294c0.096-0.096,0.193-0.189,0.284-0.281
		c0.099-0.099,0.2-0.194,0.293-0.288c0.04-0.061,0.08-0.118,0.121-0.18c-0.064,0.038-0.128,0.077-0.183,0.111
		c-0.098,0.101-0.195,0.198-0.285,0.296c-0.097,0.094-0.193,0.191-0.284,0.283c-0.103,0.093-0.203,0.189-0.296,0.282
		c-0.098,0.093-0.191,0.189-0.284,0.282c-0.097,0.098-0.187,0.197-0.28,0.299C302.352,143.168,302.26,143.261,302.164,143.356z
		 M302.735,145.356c-0.101,0.091-0.196,0.187-0.295,0.278c-0.189,0.196-0.384,0.389-0.574,0.584
		c-0.104,0.183-0.202,0.369-0.307,0.555c-0.134,0.149-0.275,0.296-0.405,0.452c-0.002,0.001,0.059,0.064,0.093,0.098
		c0.142-0.154,0.277-0.308,0.419-0.463c0.098-0.185,0.202-0.368,0.307-0.554c0.182-0.197,0.364-0.392,0.55-0.591
		c0.089-0.097,0.186-0.193,0.279-0.292c0.088-0.096,0.187-0.189,0.282-0.283c0.1-0.186,0.204-0.372,0.302-0.557
		c0.092-0.103,0.186-0.203,0.268-0.304c0.098-0.093,0.196-0.189,0.286-0.282c0.104-0.091,0.207-0.185,0.304-0.276
		c0.101-0.093,0.197-0.191,0.29-0.285c0.056-0.053,0.112-0.108,0.167-0.165c-0.084,0.026-0.17,0.054-0.249,0.081
		c-0.096,0.094-0.193,0.19-0.284,0.289c-0.095,0.098-0.192,0.197-0.279,0.297c-0.097,0.097-0.194,0.189-0.286,0.282
		c-0.101,0.094-0.201,0.184-0.297,0.274c-0.099,0.195-0.196,0.388-0.286,0.579C302.921,145.167,302.826,145.264,302.735,145.356z
		 M303.566,147.059c-0.3,0.272-0.677,0.496-0.889,0.823c-0.638,0.977-1.21,1.997-1.849,3.077c0.264,0.361,0.574,0.786,0.887,1.213
		c-0.43-1.313,0.366-2.236,0.863-3.209c0.321-0.628,0.726-1.214,1.085-1.814c0.133-0.164,0.255-0.326,0.386-0.488
		c-0.071-0.037-0.14-0.079-0.205-0.119C303.75,146.713,303.653,146.886,303.566,147.059z M296.876,149.441
		c1.145,0.322,2.293,0.642,3.334,0.935c0.241-0.838,0.492-1.712,0.744-2.59c-0.079-0.039-0.165-0.077-0.252-0.118
		c-0.354,0.625-0.715,1.252-1.11,1.938c-0.382-0.134-0.719-0.251-1.11-0.386c0.3-0.696,0.566-1.32,0.969-2.254
		C298.191,147.685,298.411,149.472,296.876,149.441z M299.521,146.315c-0.037,0.119-0.085,0.231-0.09,0.345
		c-0.003,0.028,0.198,0.105,0.21,0.086c0.072-0.095,0.111-0.213,0.162-0.322C299.723,146.392,299.642,146.365,299.521,146.315z"/>
	<path fill="#DFA27E" d="M209.452,93.897c-0.157,0.48-0.199,1.061-0.5,1.428c-2.168,2.665-4.895,4.211-8.428,4.314
		c-3.516,0.099-6.798-0.631-9.656-2.656c-2.029-1.437-3.632-3.324-4.035-5.941c1.426-0.105,2.851-0.553,4.276-0.572
		c0.875-0.013,1.751,0.48,2.62,0.59c0.646-0.107,1.318-0.298,1.993-0.309c1.228-0.017,2.462-0.262,3.686-0.151
		c1.202,0.108,2.373-0.327,3.565-0.148c0.522,0.077,1.225,0.774,1.514,0.569c0.611-0.44,0.97-0.068,1.481,0.026
		c0.487,0.085,1.044-0.207,1.57-0.332c0.383,0.866,0.76,1.729,1.138,2.592c0.262,0.196,0.524,0.388,0.787,0.583L209.452,93.897z"/>
	<path fill="#E0E2EA" d="M373.167,210.354c0.284,0.001,0.572,0.001,0.857,0.001c0.385,2.327,0.757,4.646,1.151,6.971
		c0.314,1.854,0.654,3.706,0.968,5.562c0.447,2.603,0.879,5.199,1.316,7.804c0.552,3.296,1.108,6.592,1.647,9.89
		c0.511,3.11,0.998,6.231,1.503,9.343c0.407,2.511,0.818,5.021,1.231,7.532c0.446,2.692,0.889,5.386,1.344,8.077
		c0.446,2.643,0.907,5.288,1.348,7.937c0.42,2.55,0.812,5.114,1.227,7.673c0.535,3.252,1.09,6.497,1.619,9.75
		c0.256,1.577,0.473,3.161,0.708,4.722c1.944-0.527,3.911-0.189,5.854-0.248c2.052-0.056,4.102-0.012,6.152-0.012
		c2,0,4.006,0,6.007,0c2.003,0,4.008,0,6.007,0c2.054,0,4.102-0.042,6.153,0.012c1.923,0.054,3.887-0.267,5.774,0.222
		c0.002,0.165,0.004,0.329,0.004,0.5c-0.38,0.043-0.761,0.117-1.135,0.119c-3.528,0.01-7.058-0.009-10.585,0.018
		c-0.553,0.005-1.105,0.185-1.656,0.275c-7.409,0-14.822,0-22.348,0c0.583,3.353,1.145,6.487,1.671,9.639
		c0.424,2.55,0.8,5.108,1.21,7.663c0.34,2.086,0.687,4.172,1.048,6.258c0.161,0.91,0.152,0.94-0.94,0.9
		c-0.702-4.062-1.418-8.131-2.104-12.208c-0.671-4.028-1.311-8.063-1.949-12.046c-0.798-0.193-1.428-0.343-2.062-0.496
		c0.53-0.404,1.063-0.813,1.718-1.31c-0.019-0.352,0.002-0.878-0.087-1.385c-0.429-2.548-0.912-5.09-1.337-7.647
		c-0.521-3.154-0.986-6.322-1.498-9.483c-0.54-3.346-1.104-6.68-1.66-10.022c-0.452-2.691-0.905-5.379-1.352-8.072
		c-0.414-2.46-0.822-4.92-1.224-7.383c-0.419-2.604-0.819-5.209-1.242-7.813c-0.336-2.04-0.706-4.08-1.044-6.119
		c-0.357-2.132-0.7-4.275-1.057-6.409c-0.406-2.461-0.826-4.918-1.234-7.38c-0.447-2.692-0.909-5.381-1.332-8.075
		C373.592,213.533,373.391,211.946,373.167,210.354z"/>
	<path fill="#DFA27E" d="M207.54,90.716c-0.527,0.125-1.083,0.417-1.571,0.332c-0.511-0.094-0.869-0.465-1.481-0.026
		c-0.289,0.204-0.993-0.206-1.515-0.282c-1.192-0.18-2.363,0.256-3.565,0.147c-1.224-0.11-2.458-0.152-3.685-0.135
		c-0.675,0.01-1.347,0.201-1.993,0.309c-0.869-0.11-1.744-0.317-2.62-0.304c-1.426,0.02-2.85,0.181-4.277,0.286
		c-0.308-1.022-0.825-2.026-0.235-3.115c0.075-0.018,0.148-0.031,0.223-0.037c0.128,0.002,0.254,0.002,0.381,0.003
		c1.698,0.216,2.284-0.244,2.263-1.795c-0.009-0.745-0.03-1.487-0.045-2.233c2.716,2.329,5.952,2.658,9.328,2.407
		c1.224-0.093,2.443-0.235,3.666-0.333c2.126-0.171,3.895-1.044,5.301-2.652C207.659,85.764,207.601,88.24,207.54,90.716z"/>
	<path fill="#F0C213" d="M342.047,190.566c-0.117-0.662,0.251-0.779,0.816-0.779c1.604,0.002,3.209-0.034,4.814-0.055
		c0.1,0.259,0.267,0.512,0.289,0.775c0.074,0.826,0.54,0.698,1.111,0.543c0.024-0.463,0.044-0.873,0.063-1.288
		c2.558-0.021,5.121-0.04,7.678-0.058c0.181,0.457,0.354,0.908,0.567,1.458c0.336-0.026,0.719-0.059,1.095-0.088
		c-0.076-0.531-0.137-0.934-0.197-1.344c1.11,0,2.223,0,3.292,0c0.188,1.038,0.335,1.821,0.476,2.615
		c0.069,0.545,0.133,1.089,0.193,1.634c-6.455,0.121-12.907,0.253-19.367,0.375C342.602,193.095,342.324,191.826,342.047,190.566z"
		/>
	<path fill="#FE8486" d="M368.596,206.13c-1.318,0.07-2.638,0.132-3.956,0.203c-0.081-0.7-0.129-1.412-0.247-2.102
		c-0.52-2.921-1.059-5.845-1.586-8.763c2.518,0.16,4.999-0.202,7.481-0.553c-0.184,3.061-0.31,6.126-0.603,9.167
		C369.617,204.798,368.979,205.445,368.596,206.13z"/>
	<path fill="#F0C213" d="M362.292,187.41c0.036-0.352,0.165-0.722,0.101-1.049c-0.5-2.563-1.043-5.116-1.558-7.679
		c-0.042-0.204,0.015-0.427,0.022-0.646c0.844,0.011,1.728,0.172,2.367-0.611c0.355,1.521,0.707,3.048,1.071,4.573
		c0.063,0.268,0.154,0.528,0.235,0.792c0.374,1.838,0.742,3.67,1.118,5.503c0.037,0.378,0.077,0.756,0.112,1.127
		c-0.893-0.012-1.791-0.025-2.688-0.038C362.698,188.777,363.212,187.807,362.292,187.41z"/>
	<path fill="#FE8486" d="M363.077,189.382c0.896,0.013,1.794,0.027,2.687,0.038c0.659-0.063,1.318-0.134,1.973-0.205
		c0.996-0.004,1.983-0.018,2.856-0.595c-0.021,0.945-0.042,1.886-0.063,2.831c-0.41,0.198-0.803,0.529-1.23,0.585
		c-1.863,0.233-3.729,0.418-5.599,0.556c-0.54,0.037-1.099-0.165-1.646-0.248c-0.143-0.794-0.289-1.577-0.477-2.616
		c-1.071,0-2.182,0-3.293,0c-0.076-0.289-0.151-0.579-0.223-0.87c1.049,0.196,2.096,0.387,3.145,0.578
		C361.832,189.417,362.456,189.4,363.077,189.382z"/>
	<path fill="#DA9876" d="M259.5,160.28l-0.102,0.006l-0.106-0.009c-0.443-0.313-1.027-0.536-1.321-0.956"/>
	<path fill="#FDB3B3" d="M362.054,192.345c0.548,0.083,1.107,0.284,1.646,0.247c1.869-0.138,3.735-0.321,5.599-0.555
		c0.428-0.056,0.82-0.386,1.23-0.586c-0.084,1.159-0.159,2.308-0.241,3.464c-2.482,0.352-4.964,0.713-7.481,0.553
		c-0.185-0.496-0.369-0.994-0.561-1.488C362.186,193.435,362.12,192.89,362.054,192.345z"/>
	<path fill="#9398AC" d="M361.204,189.436c-1.049-0.189-2.095-0.38-3.145-0.577c-0.223-0.106-0.451-0.219-0.675-0.321
		c0.048-0.406,0.193-0.821,0.123-1.204c-0.225-1.21-0.463-2.417-0.826-3.586c-0.195-0.619,0.082-0.852,0.471-1.128
		c0.381-0.108,0.754-0.216,1.134-0.324c0.481-0.032,0.965-0.031,1.098,0.579c0.313,1.492,0.609,2.988,0.912,4.486
		C360.548,188.072,360.391,188.969,361.204,189.436z"/>
	<path fill="#39B691" d="M342.047,190.566c0.279,1.26,0.555,2.528,0.832,3.787c0.343,1.893,0.686,3.783,1.03,5.672
		c-0.877-0.774-2.7-0.773-3.582,0.002c0.417-2.618,0.843-5.234,1.254-7.859c0.053-0.328,0.07-0.653,0.104-0.984
		C341.8,190.982,341.926,190.772,342.047,190.566z"/>
	<path fill="#F0C213" d="M370.592,188.62c-0.873,0.577-1.861,0.591-2.856,0.595c0.097-0.583,0.189-1.167,0.278-1.753
		c0.37-1.54,0.736-3.079,1.1-4.624c0.858,0.118,1.718,0.235,2.574,0.354C371.32,185,370.953,186.814,370.592,188.62z"/>
	<path fill="#DA9876" d="M290.421,161.118c1.007,0.463,2.018,0.926,3.155,1.449c-0.341,0.614-0.724,1.291-1.103,1.967
		c-1.229,0.039-2.397-0.17-3.438-0.875c0.333-0.125,0.664-0.25,1.086-0.414c0.035-0.374,0.076-0.813,0.118-1.255
		c0.049-0.127,0.102-0.253,0.154-0.38C290.403,161.445,290.412,161.281,290.421,161.118z"/>
	<path fill="#9398AC" d="M365.65,188.293c-0.377-1.834-0.745-3.666-1.118-5.503c0.151-0.256,0.31-0.513,0.459-0.77
		c0.545,0.112,1.089,0.225,1.635,0.336c-0.203,1.616-0.405,3.232-0.609,4.848C365.892,187.57,365.768,187.935,365.65,188.293z"/>
	<path fill="#E8EAF0" d="M358.287,182.296c-0.381,0.107-0.754,0.215-1.135,0.324c-0.242-0.484-0.419-1.021-0.747-1.442
		c-0.33-0.422-0.469-0.745-0.22-1.277c0.257-0.543,0.364-1.15,0.596-1.91c0.636,0.657,1.229,1.264,1.799,1.851
		C358.482,180.646,358.386,181.471,358.287,182.296z"/>
	<path fill="#1E2447" d="M365.953,177.373c0.051-0.999,0.485-1.802,1.199-2.498c0.911,1.509,0.793,3.074-0.331,4.849
		c-0.578-0.058-0.796-0.398-0.8-0.951C366.02,178.304,365.979,177.84,365.953,177.373z"/>
	<path fill="#D38D64" d="M363.227,177.425c-0.642,0.782-1.525,0.622-2.369,0.611c0.085-0.908-0.29-1.891,0.451-2.705
		c0.057-0.064-0.152-0.341-0.196-0.525c-0.059-0.225-0.078-0.459,0.046-0.759C362.006,175.097,362.716,176.198,363.227,177.425z"/>
	<path fill="#D38D64" d="M371.688,183.193c-0.856-0.119-1.716-0.236-2.574-0.354c0.501-0.866,1.002-1.728,1.541-2.663
		c0.267,0.092,0.6,0.207,1.033,0.353C371.688,181.412,371.688,182.304,371.688,183.193z"/>
	<path fill="#1E2447" d="M361.204,189.436c-0.813-0.467-0.656-1.363-0.908-2.073c0.665,0.016,1.334,0.032,1.996,0.049
		c0.92,0.396,0.407,1.366,0.785,1.972C362.456,189.4,361.832,189.417,361.204,189.436z"/>
	<path fill="#3C477A" d="M365.953,177.373c0.025,0.468,0.066,0.932,0.068,1.401c0.004,0.553,0.222,0.893,0.8,0.951
		c-0.064,0.876-0.131,1.756-0.195,2.631c-0.546-0.112-1.09-0.224-1.635-0.336C365.593,180.529,365.766,178.948,365.953,177.373z"/>
	<path fill="#1E2447" d="M365.65,188.293c0.117-0.358,0.242-0.723,0.364-1.089c0.666,0.087,1.336,0.178,1.999,0.258
		c-0.089,0.586-0.182,1.17-0.278,1.753c-0.654,0.071-1.313,0.143-1.974,0.205C365.728,189.049,365.688,188.671,365.65,188.293z"/>
	<path fill="#FA575A" d="M349.141,189.762c-0.019,0.414-0.038,0.825-0.062,1.288c-0.572,0.155-1.038,0.283-1.11-0.542
		c-0.023-0.264-0.189-0.517-0.29-0.776c-0.048-0.315-0.092-0.633-0.137-0.94C348.615,188.268,349.046,188.643,349.141,189.762z"/>
	<path fill="#FA575A" d="M357.386,188.537c0.223,0.103,0.451,0.215,0.675,0.321c0.072,0.29,0.146,0.58,0.224,0.87
		c0.061,0.411,0.12,0.814,0.198,1.345c-0.378,0.03-0.76,0.061-1.096,0.088c-0.213-0.549-0.388-1.001-0.568-1.458
		C356.959,189.291,356.548,188.607,357.386,188.537z"/>
	<path fill="#FDFDFD" d="M209.463,93.891c-0.262-0.196-0.525-0.388-0.787-0.583C209.088,93.3,209.497,93.295,209.463,93.891z"/>
	<path fill="#D38D64" d="M306.261,142.197c-0.195,0.125-0.396,0.252-0.591,0.379l-0.093-0.091c0.213-0.178,0.42-0.353,0.625-0.529
		C306.231,142.033,306.252,142.115,306.261,142.197z"/>
	<path fill="#EEAF89" d="M290.395,161.608c-0.052,0.127-0.104,0.254-0.153,0.38C290.291,161.862,290.342,161.735,290.395,161.608z"
		/>
	<path fill="#38447A" d="M160.238,170.038c2.358,0.41,4.715,0.841,7.082,1.221c1.767,0.284,3.538,0.542,5.313,0.741
		c2.717,0.309,5.441,0.558,8.162,0.824c0.232,0.024,0.472,0.014,0.71-0.002c0.839-0.049,1.679-0.112,2.519-0.169
		c-0.005,0.095-0.01,0.188-0.015,0.285c-0.096,2.27-0.17,4.54-0.312,6.811c-0.027,0.457-0.31,0.9-0.461,1.312
		c1.121,0.716,0.009,2.208,0.795,3.344c0.129-0.348,0.231-0.498,0.236-0.66c0.102-3.698,0.192-7.394,0.283-11.091
		c1.564-0.022,3.128-0.026,4.691-0.075c2.688-0.079,5.376-0.146,8.064-0.298c1.774-0.101,3.542-0.341,5.313-0.521
		c0.003,0.334-0.048,0.678,0.016,0.998c0.658,3.181,1.272,6.365,2.02,9.526c0.629,2.678,1.591,5.243,3.135,7.556
		c0.17,0.256,0.453,0.438,0.686,0.656c-0.23-0.83-0.636-1.462-0.985-2.132c-1.599-3.039-2.459-6.327-3.141-9.662
		c-0.473-2.302-0.792-4.634-1.18-6.954c1.331-0.184,2.661-0.372,3.992-0.56c0.028,0.479-0.005,0.963,0.091,1.428
		c1.364,6.702,2.738,13.403,4.122,20.098c0.296,1.436,0.653,2.856,0.945,4.284c1.028,5.054,2.03,10.103,3.058,15.156
		c0.691,3.402,1.412,6.808,2.107,10.209c0.833,4.051,1.708,8.089,2.465,12.151c0.423,2.261,0.647,4.563,0.975,6.847
		c0.055,0.362,0.199,0.716,0.3,1.076c-0.981,0.72-1.957,1.45-2.943,2.164c-0.806,0.581-0.931,1.392-0.777,2.264
		c0.249,1.428,0.469,2.884,1.727,3.861c-1.672,3.394-4.111,6.224-6.63,8.984c-1.636,1.797-3.409,3.465-5.136,5.169
		c-0.296,0.29-0.672,0.499-1.013,0.749c-1.459-1.19-2.979-2.318-4.368-3.583c-3.114-2.845-6.158-5.759-9.242-8.642
		c-0.655-0.605-1.388-1.137-2.021-1.771c-0.699-0.696-1.327-1.465-1.986-2.2c1.588-1.866,3.122-3.788,4.784-5.588
		c2.575-2.791,3.417-5.634,1.641-9.276c-0.89-1.829-1.606-3.736-2.4-5.607c0.254,0.107,0.547,0.164,0.758,0.322
		c2.111,1.647,2.063,1.384,3.469-0.106c0.131-0.134,0.277-0.26,0.42-0.382c0.871-0.754,1.058-1.448,0.593-2.498
		c-0.349-0.779-0.736-1.543-1.177-2.278c-1.162-1.93-1.977-4.031-1.991-6.244c-0.018-2.59-0.807-4.923-1.716-7.25
		c-0.408-1.042-0.986-2.024-1.487-3.028c-1.184-2.094-2.299-4.236-3.567-6.273c-1.291-2.073-2.729-4.057-4.116-6.102
		c1.14-0.724,2.712-0.528,3.469-1.867c-0.705,0.2-1.346,0.583-2.037,0.78c-0.669,0.196-1.397,0.305-2.087,0.255
		c-0.739-0.045-1.477-0.276-2.18-0.524c-0.636-0.224-1.217-0.587-1.825-0.883c-0.057,0.132-0.114,0.271-0.173,0.401
		c1.294,0.64,2.586,1.271,3.925,1.931c0,4.284-0.011,8.598,0.013,12.923c0.003,0.478,0.222,0.951,0.34,1.432
		c0.014,0.791,0.033,1.589,0.042,2.386c0.016,1.48,0.024,2.972,0.037,4.454c-0.234,0.421-0.583,0.807-0.687,1.257
		c-0.485,2.155-0.908,4.326-1.347,6.493c-0.605,3.004-1.282,5.998-1.25,9.085c-0.097,0.6-0.233,1.195-0.283,1.799
		c-0.211,2.472-0.369,4.945-0.604,7.415c-0.047,0.476-0.36,0.924-0.553,1.391c-0.192,0.089-0.381,0.184-0.574,0.276h0.002
		c-0.096,0.092-0.192,0.19-0.291,0.281l0.004-0.004c-0.466,0.05-0.953,0.029-1.398,0.155c-2.007,0.546-3.989,0.375-5.972-0.104
		c-1.207-0.289-2.412-0.591-3.616-0.881c-0.032,0.116-0.063,0.238-0.092,0.354c1.851,0.541,3.636,1.318,5.631,1.354
		c0.124,0.184,0.212,0.469,0.377,0.517c1.287,0.433,2.621,0.744,3.884,1.236c1.098,0.424,2.075,0.265,2.947-0.371
		c1.218-0.883,2.351-1.881,3.531-2.813c0.399-0.315,0.826-0.585,1.24-0.878c0.115,2.87,0.216,5.746,0.35,8.614
		c0.022,0.486,0.184,0.972,0.284,1.453c-0.007,0.077-0.012,0.15-0.012,0.231c-0.094,0.344-0.283,0.687-0.27,1.027
		c0.051,1.273,0.205,2.538,0.258,3.806c0.117,2.887,0.204,5.767,0.292,8.647c0.104,3.507,0.179,7.007,0.302,10.508
		c0.056,1.698,0.181,3.387,0.299,5.082c0.011,0.158,0.195,0.298,0.296,0.45c0.086,1.643,0.175,3.285,0.25,4.927
		c0.116,2.447,0.22,4.895,0.328,7.345c0,0.663,0.002,1.332,0.003,1.996c0.105,2.265,0.213,4.525,0.325,6.808
		c-0.58,0.039-0.905,0.064-1.229,0.087c-0.228-0.096-0.452-0.184-0.678-0.277c-0.188-0.105-0.368-0.27-0.566-0.303
		c-2.506-0.388-5.01-0.784-7.521-1.124c-1.717-0.229-3.445-0.365-5.167-0.547c-2.217-0.194-4.3,0.357-6.344,1.121
		c-0.014-0.199-0.025-0.398-0.039-0.604c-0.101-1.677-0.193-3.353-0.311-5.027c-0.013-0.158-0.189-0.299-0.29-0.453
		c-0.107-1.596-0.168-3.198-0.333-4.787c-0.322-3.087-0.718-6.161-1.057-9.242c-0.229-2.104-0.386-4.225-0.633-6.326
		c-0.09-0.759-0.353-1.502-0.537-2.258c-0.179-2.013-0.353-4.031-0.539-6.045c-0.088-0.94-0.209-1.876-0.297-2.811
		c-0.293-3.1-0.541-6.195-0.875-9.288c-0.328-3.038-0.771-6.064-1.106-9.104c-0.247-2.2-0.369-4.41-0.607-6.614
		c-0.231-2.146-0.56-4.292-0.818-6.436c-0.135-1.125-0.196-2.249-0.32-3.377c-0.262-2.39-0.549-4.768-0.816-7.149
		c-0.12-1.077-0.208-2.157-0.327-3.234c-0.273-2.478-0.567-4.955-0.828-7.436c-0.218-2.059-0.374-4.13-0.598-6.188
		c-0.579-5.343-0.541-10.701-0.652-16.053c1.085-0.079,1.819-0.659,2.403-1.558 M214.512,245.129
		c-3.06,1.119-5.576-0.189-8.019-1.822C207.611,245.6,212.436,246.718,214.512,245.129z M209.146,190.835
		c-0.033-0.032-0.066-0.065-0.099-0.099c-0.034,0.075-0.081,0.147-0.104,0.224c-0.006,0.023,0.059,0.057,0.089,0.091
		C209.07,190.985,209.109,190.91,209.146,190.835z"/>
	<path fill="#44C49E" d="M131.897,284.376c-1.7-5.076-4.834-9.025-9.406-11.775c-1.511-0.912-3.268-1.34-5.059-1.299
		c-2.853,0.066-5.718,0.082-8.552,0.37c-4.28,0.439-8.497,0.122-12.564-1.113c-3.487-1.057-6.905-2.416-10.222-3.928
		c-11.246-5.137-22.433-10.402-33.643-15.618c-0.603-0.281-1.248-0.486-1.803-0.841c-0.637-0.403-1.279-0.886-1.171-1.804
		c0.098-0.846,0.747-1.206,1.422-1.438c2.243-0.774,4.468-1.622,6.761-2.214c4.939-1.269,9.946-1.325,15.005-0.666
		c8.086,1.051,15.943,3.053,23.689,5.516c4.492,1.426,8.653,3.535,11.839,7.13c1.636,1.856,3.122,3.845,4.574,5.851
		c2.184,3.003,4.823,5.495,7.918,7.531c1.946,1.286,3.889,2.58,5.732,4.004c3.331,2.568,5.227,6.102,6.399,10.072
		c0.085,0.061,0.173,0.126,0.259,0.194l-0.015,0.108c0.18,0.785,0.385,1.562,0.518,2.351c0.051,0.296-0.073,0.624-0.117,0.932
		c-0.129,0.009-0.259,0.019-0.388,0.029C132.683,286.639,132.29,285.511,131.897,284.376z M59.284,249.153
		c0.981,1.308,25.936,14.633,27.902,14.829c-0.397-0.537-0.64-0.973-0.981-1.307c-2.755-2.688-5.432-5.469-8.339-7.981
		c-1.654-1.434-3.581-2.676-5.584-3.549c-3.944-1.721-8.213-2.012-12.471-2.139C59.646,249.002,59.479,249.093,59.284,249.153z"/>
	<path fill="#44C49E" d="M135.634,284.443c0-2.764,0.181-5.543-0.039-8.29c-0.315-3.91-0.377-7.849-1.319-11.693
		c-0.412-1.684-0.94-3.296-1.86-4.759c-7.493-11.875-14.88-23.821-22.544-35.589c-5.118-7.858-10.636-15.458-15.976-23.172
		c-0.293-0.419-0.621-0.825-0.944-1.25c0.576-0.907,1.534-0.943,2.308-0.989c3.019-0.179,6.031-0.179,8.914,1.033
		c1.448,0.613,2.494,1.562,3.001,3.02c0.98,2.819,2.974,4.718,5.476,6.155c1.732,0.992,3.46,2.017,5.27,2.854
		c5.247,2.428,8.289,6.504,9.416,12.121c0.243,1.205,0.604,2.396,0.951,3.585c0.696,2.366,1.862,4.451,3.632,6.213
		c2.811,2.79,3.961,6.314,4.29,10.156c0.161,1.885,0.248,3.778,0.278,5.669c0.053,3.388-0.431,6.715-1.464,9.945
		c-0.217,0.677-0.209,1.244,0.025,1.918c0.899,2.616,1.479,5.296,1.774,8.06c0.539,5.004,0.108,10.021,0.265,15.025
		c-0.095,1.058-0.187,2.108-0.279,3.16c-0.198,0.037-0.392,0.073-0.587,0.108c-0.603,0.08-0.565-0.339-0.568-0.726
		C135.644,286.144,135.639,285.292,135.634,284.443z M97.267,201.766c-0.088,0.077-0.177,0.148-0.264,0.227
		c0.191,0.361,0.343,0.746,0.585,1.07c1.262,1.671,2.536,3.338,3.832,4.982c1.308,1.657,2.881,3.058,3.935,4.975
		c0.866,1.575,2.372,2.784,3.52,4.221c1.325,1.66,2.564,3.39,3.847,5.083c0.595,0.786,1.154,1.627,2.401,2.079
		c-0.309-0.685-0.505-1.103-0.691-1.531c-0.604-1.384-1.265-2.754-1.791-4.173c-0.69-1.857-1.208-3.779-1.917-5.634
		c-1.04-2.727-2.451-5.31-4.688-7.194C103.511,203.748,100.418,202.642,97.267,201.766z"/>
	<path fill="#FDB3B3" d="M136.219,287.725c0.196-0.036,0.39-0.072,0.587-0.109c2.656-0.147,5.321-0.206,7.965-0.465
		c1.343-0.137,2.653-0.623,3.976-0.955c-0.206,2.15-0.409,4.302-0.617,6.449c-0.059,0.61-0.136,1.22-0.206,1.827
		c-0.435,1.95-0.933,3.886-1.29,5.853c-0.473,2.627-0.834,5.27-1.245,7.9c-0.105,0.576-0.178,1.158-0.326,1.721
		c-0.057,0.217-0.273,0.393-0.418,0.594c-0.432-0.253-0.952-0.427-1.282-0.772c-2.326-2.464-4.615-4.964-6.916-7.452
		c-0.321-0.352-0.663-0.685-0.982-1.03c-1.192-1.313-2.377-2.635-3.547-3.927c-1.152,0.732-1.546,1.67-1.446,2.873
		c0.056,0.657-0.07,1.341,0.028,1.987c0.235,1.559,0.219,3.186,1.109,4.582c0.402,2.005,0.747,4.027,1.22,6.015
		c0.663,2.798,0.011,6.475-3.292,7.93c-0.115,0.053-0.204,0.167-0.361,0.292c0.402,0.043,0.728,0.08,1.056,0.115
		c-0.213,0.077-0.439,0.249-0.632,0.217c-2.009-0.322-4.164-0.126-5.855-1.604c-0.095-0.085-0.268-0.079-0.405-0.114
		c-1.141-1.287-2.443-2.46-3.095-4.117c-0.317-0.809-0.615-1.626-0.924-2.439c-0.451-2.542-0.941-5.085-1.343-7.642
		c-0.365-2.322-0.634-4.663-0.945-6.999c-0.101-0.743-0.208-1.491-0.311-2.24c-0.079-0.375-0.162-0.758-0.242-1.137
		c-0.257-2.425-0.515-4.849-0.776-7.272c-0.053-0.489-0.331-1.027,0.311-1.358c0.97,0.2,1.929,0.47,2.909,0.599
		C124.67,287.78,130.44,287.861,136.219,287.725z"/>
	<path fill="#DFA27E" d="M129.646,87.712c-1.143-0.228-2.291-0.456-3.436-0.684c-0.011-0.676-0.02-1.35-0.031-2.025
		c-0.491-1.122-0.841-2.331-1.498-3.344c-1.357-2.101-2.071-4.355-2.217-6.827c-0.168-2.846-0.393-5.688-0.534-8.534
		c-0.06-1.178,0.101-1.263,1.454-1.175c-0.089-1.046-0.164-2.078-0.271-3.101c-0.125-1.188-0.038-1.332,1.159-1.853
		c0.186-0.083,0.319-0.292,0.479-0.439c0.295-0.271,0.589-0.54,0.913-0.836c0.554,0.489,1.004,0.889,1.342,1.188
		c0.571-0.085,1.098-0.322,1.481-0.177c0.363,0.138,0.691,0.633,0.844,1.042c1.22,3.244,2.391,6.504,3.581,9.759
		c0.214,0.58,0.431,1.157,0.672,1.725c0.608,1.432,1.572,1.896,2.964,1.251c0.892-0.414,1.653-1.101,2.501-1.62
		c0.962-0.591,1.934-1.179,2.951-1.663c0.273-0.129,0.835,0.026,1.072,0.252c0.156,0.153,0.088,0.745-0.086,0.993
		c-0.431,0.616-0.932,1.2-1.491,1.703c-1.694,1.516-3.145,3.225-3.813,5.424c-0.707,2.328-1.947,4.074-4.357,4.813
		c-1.854,0.085-3.712,0.168-5.528,0.252C128.379,85.06,129.015,86.386,129.646,87.712z M123.167,69.864
		c0.039,0.124,0.078,0.246,0.118,0.369c2.58-0.76,5.145-1.618,7.953-1.099c-1.204-0.288-1.534-1.222-1.844-2.126
		c-0.612-1.792-1.165-3.6-1.764-5.394c-0.108-0.329-0.315-0.624-0.478-0.932c-0.112,0.052-0.225,0.107-0.336,0.16
		c0.827,2.517,1.656,5.033,2.541,7.728c-0.78,0-1.316,0-1.854,0c-1.094-2.64-1.38-5.539-2.777-8.078
		c-0.129,0.31-0.142,0.596-0.061,0.855c0.573,1.85,1.157,3.699,1.754,5.542c0.569,1.755,0.528,1.833-1.344,2.192
		c-0.079,0.016-0.167-0.035-0.324-0.07c-0.357-1.099-0.729-2.233-1.099-3.369c-0.125,0.035-0.25,0.07-0.374,0.102
		c0.299,1.195,0.598,2.388,0.89,3.563C123.789,69.519,123.478,69.691,123.167,69.864z"/>
	<path fill="#38447A" d="M155.111,168.888c1.624,0.367,3.248,0.731,4.874,1.094c-0.103,0.199-0.293,0.396-0.292,0.594
		c0.036,3.208-0.146,6.398-0.549,9.589c-0.31,2.446-0.773,4.827-1.682,7.103c-0.504,1.273-1.36,2.261-2.7,2.736
		c0.018-0.235,0.044-0.472,0.047-0.709C154.913,182.491,155.012,175.688,155.111,168.888z"/>
	<path fill="#C6C6C7" d="M154.502,278.741c2.015,3.492,4.013,6.988,6.05,10.458c1.484,2.531,3.019,5.033,4.53,7.542
		c0.1,0.154,0.277,0.295,0.29,0.453c0.117,1.676,0.208,3.35,0.311,5.028c-1.412-2.335-2.821-4.679-4.232-7.015
		c-0.096-0.152-0.226-0.291-0.34-0.433c-2.172-3.649-4.349-7.3-6.515-10.948c-0.741-1.253-1.454-2.516-2.291-3.964
		C153.127,279.448,153.815,279.094,154.502,278.741z"/>
	<path fill="#1E2447" d="M136.219,287.725c-5.779,0.137-11.549,0.056-17.293-0.679c-0.979-0.129-1.939-0.397-2.909-0.6
		c-0.362-0.694,0.175-0.84,0.633-0.923c1.389-0.266,2.781-0.612,4.186-0.698c3.683-0.212,7.374-0.309,11.061-0.447
		c0.394,1.134,0.786,2.261,1.179,3.392c0.129-0.011,0.258-0.021,0.387-0.031c0.044-0.306,0.167-0.634,0.118-0.931
		c-0.133-0.788-0.338-1.564-0.518-2.351c0.858-0.004,1.715-0.01,2.57-0.014c0.005,0.849,0.01,1.699,0.017,2.554
		C135.653,287.386,135.617,287.804,136.219,287.725z"/>
	<path fill="#E8EAF0" d="M116.483,295.078c0.08,0.379,0.163,0.761,0.242,1.136"/>
	<path fill="#1E2447" d="M148.748,286.195c-1.323,0.332-2.634,0.818-3.976,0.955c-2.644,0.259-5.31,0.317-7.965,0.465
		c0.092-1.051,0.184-2.103,0.279-3.161c3.398,0.293,6.797,0.568,10.192,0.899C147.841,285.411,148.549,285.412,148.748,286.195z"/>
	<path fill="#D38D64" d="M129.646,87.712c-0.632-1.326-1.267-2.652-1.85-3.875c1.816-0.084,3.673-0.167,5.528-0.252
		c0.001,0.861,0.003,1.722,0.006,2.581c0.08,0.55,0.159,1.1,0.237,1.65c-0.93-0.005-1.862-0.01-2.792-0.015
		c-0.097-0.009-0.194-0.018-0.291-0.029C130.206,87.752,129.927,87.732,129.646,87.712z"/>
	<path fill="#56BACC" d="M154.762,190.004c1.34-0.476,2.195-1.463,2.7-2.736c0.909-2.275,1.372-4.656,1.682-7.103
		c0.404-3.191,0.585-6.381,0.549-9.589c-0.002-0.198,0.188-0.395,0.292-0.594c0.085,0.011,0.168,0.029,0.253,0.056
		c0.078,3.884-0.171,7.741-0.798,11.588c-0.413,2.54-0.859,5.011-2.298,7.211c-0.584,0.897-1.318,1.478-2.403,1.557
		C154.747,190.262,154.754,190.137,154.762,190.004z"/>
	<path fill="#C6C6C7" d="M126.179,85.003c0.01,0.675,0.021,1.35,0.031,2.025c-1.149-0.292-2.3-0.584-3.449-0.875
		c-0.067-0.484,0.013-0.824,0.617-0.865C124.314,85.224,125.246,85.102,126.179,85.003z"/>
	<path fill="#C6C6C7" d="M133.568,87.816c-0.078-0.55-0.158-1.1-0.237-1.65c0.933,0.187,1.978,0.193,2.29,1.397
		C134.938,87.649,134.252,87.732,133.568,87.816z"/>
	<path fill="#D38D64" d="M189.217,83.584c0.069,0.102,0.143,0.201,0.212,0.3C189.359,83.785,189.285,83.687,189.217,83.584z"/>
	<path fill="#EFF0F3" d="M187.203,87.896c-0.127-0.001-0.253-0.001-0.381-0.003C186.95,87.894,187.075,87.895,187.203,87.896z"/>
	<path fill="#8CADD9" d="M133.077,284.35c-0.085-0.068-0.173-0.134-0.259-0.194C132.904,284.216,132.992,284.281,133.077,284.35z"/>
	<path fill="#38447A" d="M300.394,237.26c1.455,1.237,2.215,2.895,2.97,4.61c4.096,9.346,8.259,18.668,12.391,28.007
		c3.597,8.118,7.179,16.241,10.77,24.366c0.133,0.298,0.299,0.581,0.456,0.875c0.213,0.486,0.428,0.969,0.642,1.449
		c0.805,1.914,1.606,3.828,2.447,5.846c-3.138,1.274-6.234,2.529-9.323,3.789c-1.428,0.551-2.857,1.104-4.286,1.655
		c-0.364,0.133-0.733,0.272-1.1,0.404c-0.718,0.236-1.435,0.474-2.155,0.713c-0.262-0.439-0.569-0.854-0.779-1.318
		c-1.717-3.81-3.42-7.628-5.133-11.443c-0.172-0.378-0.352-0.764-0.526-1.145c-0.554-1.313-1.085-2.632-1.665-3.928
		c-4.881-10.97-9.769-21.936-14.657-32.893c-0.239-0.534-0.521-1.049-0.782-1.58c-0.124,0.007-0.24,0.013-0.364,0.02
		c-0.18,0.515-0.376,1.024-0.549,1.54c-2.869,8.707-5.748,17.412-8.604,26.123c-1.173,3.564-2.306,7.141-3.458,10.712
		c-0.118,0.366-0.245,0.738-0.365,1.104c-1.314,3.996-2.641,7.985-3.956,11.98c-0.418,1.143-0.845,2.29-1.285,3.499
		c-1.424,0-2.799,0-4.173,0c-0.446,0.026-0.892,0.05-1.344,0.069c-0.261-0.027-0.523-0.06-0.785-0.093
		c-0.605-0.046-1.202-0.092-1.807-0.14c-0.471-0.011-0.937-0.019-1.398-0.03c-0.389,0.002-0.772,0.002-1.16,0.002
		c-0.76-0.034-1.521-0.072-2.283-0.11c0.376-1.419,0.762-2.837,1.14-4.255c0.097-0.285,0.194-0.571,0.286-0.853
		c0.098-0.286,0.196-0.573,0.285-0.859c0.099-0.195,0.197-0.384,0.288-0.571c0.098-0.287,0.19-0.573,0.284-0.859
		c1.146-3.435,2.294-6.871,3.439-10.303c0.053-0.12,0.111-0.234,0.173-0.354c-0.043-0.014-0.082-0.027-0.123-0.04
		c-0.023,0.13-0.043,0.254-0.061,0.386c-0.073,0.058-0.188,0.1-0.215,0.178c-1.077,3.18-2.149,6.367-3.211,9.551
		c-0.059,0.173-0.011,0.382-0.015,0.572c-0.09,0.287-0.188,0.574-0.286,0.859c-0.089,0.188-0.188,0.376-0.286,0.572
		c-0.09,0.286-0.188,0.573-0.284,0.86c-0.092,0.284-0.19,0.567-0.289,0.852c-0.477,1.422-0.95,2.844-1.425,4.267
		c-0.568,0.021-1.135,0.041-1.7,0.062c-0.749-0.042-1.508-0.084-2.41-0.136c0.402-1.38,0.778-2.642,1.148-3.91
		c0.428-1.348,0.866-2.693,1.275-4.047c0.599-1.98,1.171-3.973,1.745-5.963c0.173-0.477,0.338-0.958,0.51-1.442
		c0.658-2.189,1.322-4.378,1.982-6.565c0.289-0.775,0.577-1.545,0.865-2.315c3.523-11.235,7.047-22.468,10.624-33.88
		c-1.942-0.291-3.664-0.547-5.394-0.804c-2.017-0.356-4.025-0.719-6.042-1.081c-0.117-0.064-0.233-0.17-0.369-0.199
		c-5.991-1.251-11.984-2.501-17.975-3.746c-0.957-0.281-1.917-0.562-2.877-0.845c0.167-1.013,0.349-2.032,0.499-3.05
		c0.235-1.573,0.444-3.152,0.664-4.738c2.119,0.444,4.244,0.842,6.349,1.331c3.769,0.857,7.512,1.796,11.271,2.662
		c3.304,0.759,6.617,1.469,9.928,2.197c1.971,0.429,3.95,0.843,5.931,1.26c0.287,0.188,0.576,0.384,0.861,0.57
		c0.189,0.098,0.378,0.19,0.573,0.288c0.09,0.098,0.188,0.188,0.282,0.286c0.095,0.186,0.193,0.381,0.284,0.57
		c0.108,0.21,0.207,0.426,0.321,0.634c1.283,2.179,1.434,4.411,0.533,6.798c-0.911,2.426-1.695,4.902-2.504,7.367
		c-0.192,0.57-0.244,1.193-0.352,1.793c-0.099,0.287-0.189,0.573-0.285,0.858c-0.062,0.113-0.119,0.235-0.175,0.35
		c0.035,0.013,0.076,0.024,0.116,0.04c0.024-0.123,0.048-0.255,0.07-0.378c0.09-0.286,0.188-0.574,0.285-0.859
		c0.132-0.184,0.329-0.354,0.394-0.561c1.116-3.344,2.202-6.693,3.327-10.033c0.663-1.968-0.039-3.703-0.878-5.4
		c-0.134-0.275-0.558-0.416-0.847-0.612c-0.09-0.191-0.188-0.388-0.284-0.576c-0.091-0.098-0.188-0.188-0.28-0.286
		c-0.195-0.098-0.382-0.188-0.571-0.288c0.005-0.623-0.452-0.568-0.859-0.574c-0.298-0.188-0.575-0.477-0.904-0.556
		c-2.377-0.559-4.77-1.053-7.154-1.607c-3.756-0.876-7.497-1.799-11.254-2.671c-4.625-1.074-9.258-2.116-13.888-3.17
		c0.09-1.325,0.159-2.645,0.291-3.959c0.175-1.827,0.325-3.661,0.61-5.478c0.505-3.249,1.141-6.476,1.652-9.725
		c0.451-2.835,0.393-5.732,1.159-8.524c2.484-0.01,4.968-0.018,7.45-0.027c0.073,3.908-1.03,7.638-1.726,11.633
		c10.879,2.884,21.524,6.504,32.144,10.229c-0.217-0.32-0.479-0.525-0.775-0.636c-5.126-1.808-10.258-3.604-15.389-5.41
		c-0.649-0.229-1.305-0.459-1.954-0.692c0.202-1.428,0.361-2.863,0.629-4.28c0.069-0.349,0.468-0.639,0.725-0.959
		c1.835,0.892,3.673,1.772,5.511,2.665c0.386,0.19,0.767,0.378,1.147,0.562c3.773,1.814,7.552,3.626,11.324,5.455
		c3.299,1.608,6.591,3.247,9.889,4.872c-1.697,2.173-1.587,4.794,0.308,6.245c0.929-0.491,1.276-1.441,1.749-2.295
		c0.3-0.545,0.606-0.875,1.32-0.791C297.945,237.14,299.177,237.179,300.394,237.26z M289.278,237.286l0.021,0.003
		c-0.101-0.102-0.198-0.202-0.304-0.298v0.03c-0.115-0.929-0.728-1.37-1.679-1.519c0.387,0.495,0.773,0.993,1.151,1.49
		c-0.842,0.952-1.839,1.536-3.138,1.744c-2.425,0.396-4.561,3.135-3.48,5.915c0.474-0.201,0.922-0.471,1.408-0.579
		c1.317-0.301,2.238-1.108,3.165-2.056c0.874-0.896,2.001-1.56,3.037-2.307c0.287-0.215,0.621-0.36,0.977-0.555
		c-0.404-0.592-0.741-1.102-1.083-1.608C289.329,237.459,289.303,237.367,289.278,237.286z M285.603,234.104
		c-0.097-0.091-0.194-0.188-0.284-0.286c-0.215-0.177-0.439-0.353-0.654-0.536c-0.06,0.119-0.111,0.229-0.171,0.349
		c0.271,0.067,0.543,0.137,0.814,0.2c0.091,0.097,0.188,0.192,0.286,0.281c0.188,0.1,0.377,0.199,0.571,0.291
		c0.167,0.203,0.334,0.416,0.508,0.622c0.079-0.104,0.161-0.198,0.245-0.301c-0.247-0.114-0.494-0.22-0.74-0.335
		C285.981,234.3,285.792,234.202,285.603,234.104z M269.008,278.757c0.09-0.286,0.188-0.569,0.285-0.854
		c0.09-0.381,0.188-0.768,0.284-1.145c0.214-0.34,0.5-0.657,0.63-1.025c0.93-2.566,1.828-5.149,2.716-7.728
		c0.086-0.239,0.014-0.53,0.014-0.799c-0.527,0.81-0.872,1.674-1.159,2.552c-0.748,2.33-1.472,4.659-2.206,6.994
		c-0.098,0.377-0.197,0.762-0.289,1.144c-0.098,0.284-0.195,0.568-0.286,0.854c-0.099,0.194-0.195,0.383-0.286,0.572
		c-0.099,0.284-0.196,0.572-0.287,0.857c-0.42,1.025-0.889,2.038-1.239,3.087c-0.764,2.295-1.465,4.622-2.198,6.932
		c-0.091,0.384-0.19,0.768-0.288,1.145c-0.053,0.119-0.11,0.234-0.172,0.354c0.042,0.013,0.082,0.026,0.122,0.04
		c0.024-0.129,0.038-0.254,0.062-0.384c0.099-0.379,0.195-0.761,0.286-1.146c0.188-0.2,0.461-0.368,0.539-0.605
		c0.96-2.803,1.89-5.613,2.81-8.425c0.104-0.306,0.063-0.654,0.09-0.985c0.091-0.286,0.188-0.573,0.286-0.861
		C268.812,279.142,268.908,278.954,269.008,278.757z M291.791,241.854c-0.15-0.283-0.309-0.568-0.451-0.841
		c-2.991,0.252-4.141,1.252-3.788,3.411c0.755-0.295,1.536-0.509,2.212-0.888c0.741-0.417,1.381-0.991,2.071-1.495
		c0.686,3.102,0.38,6.107-0.777,9.057c-0.49,1.228-0.851,2.512-1.242,3.776c-0.129,0.431-0.163,0.895-0.246,1.339
		c1.093-2.545,2.053-5.109,2.808-7.735c0.335-1.16,0.405-2.447,0.331-3.657C292.643,243.807,292.802,242.615,291.791,241.854z
		 M273.147,266.593c0.032-0.029,0.094-0.066,0.087-0.085c-0.016-0.067-0.057-0.136-0.09-0.209c-0.023,0.073-0.064,0.142-0.081,0.211
		C273.06,266.528,273.121,266.564,273.147,266.593z M264.286,292.344c-0.036,0.022-0.099,0.056-0.097,0.074
		c0.014,0.079,0.05,0.151,0.076,0.22c0.035-0.022,0.101-0.053,0.097-0.074C264.35,292.486,264.314,292.413,264.286,292.344z"/>
	<path fill="#C6C6C7" d="M186.614,318.825c0.088,0.574,0.179,1.147,0.267,1.722c-0.028,0.328-0.056,0.655-0.094,1.14
		c-7.122,0-14.213,0.043-21.303-0.013c-7.09-0.057-14.179-0.205-21.437-0.318c-0.128-0.428-0.27-0.908-0.411-1.383
		c0.101-0.289,0.2-0.579,0.301-0.868c7.04-0.072,14.079-0.169,21.116-0.219C172.242,318.837,179.429,318.842,186.614,318.825z"/>
	<path fill="#1E2447" d="M331.392,312.576c-4.245,1.85-8.484,3.699-12.965,5.648c-1.201-2.153-2.439-4.35-3.668-6.548
		c0.293,0.015,0.582,0.022,0.87,0.033c0.379,0.201,0.758,0.397,1.13,0.591c0.543,0.281,1.063,0.617,1.632,0.827
		c1.661,0.623,3.354,0.61,4.761-0.513c2.074-1.66,4.021-3.483,6.023-5.242c2.005-0.53,3.995-1.154,6.033-1.554
		c1.124-0.217,2.122,0.419,2.873,1.276c0.463,0.531,0.858,1.127,1.388,1.839C336.7,310.18,334.047,311.382,331.392,312.576z"/>
	<path fill="#FE8486" d="M141.92,317.933c-0.686,0.662-1.373,1.328-2.059,1.988c-2.438,1.381-5.113,1.232-7.77,1.218
		c-0.617-0.004-1.237,0.008-1.854,0.015c-0.329-0.035-0.656-0.072-1.058-0.115c0.157-0.125,0.248-0.24,0.362-0.292
		c3.303-1.457,3.955-5.132,3.292-7.93c-0.474-1.987-0.818-4.01-1.221-6.016c0.341,0.112,0.785,0.124,1.007,0.35
		c1.106,1.137,2.073,2.415,3.247,3.47c0.96,0.863,1.373,2.117,2.471,2.91c0.806,0.584,1.591,1.378,2.091,2.347
		c0.18,0.35,0.695,0.503,0.938,0.834C141.625,317.065,141.741,317.521,141.92,317.933z"/>
	<path fill="#E8EAF0" d="M327.623,296.568c-0.214-0.481-0.429-0.964-0.643-1.45c0.523-0.018,1.045-0.046,1.567-0.046
		c14.916-0.002,29.836-0.002,44.752-0.002c0.377,0,0.768-0.036,1.142,0.018c0.745,0.114,0.795,0.548,0.447,1.123
		c-15.229,0-30.461-0.003-45.689,0.014C328.675,296.227,328.152,296.447,327.623,296.568z"/>
	<path fill="#EEAF89" d="M329.174,307.372c-2.002,1.76-3.949,3.583-6.023,5.243c-1.407,1.121-3.1,1.136-4.76,0.512
		c-0.569-0.211-1.09-0.547-1.633-0.826c-0.095-1.479-0.197-2.964-0.297-4.443c1.428-0.551,2.857-1.103,4.285-1.653
		c1.155,2.542,1.153,2.52,3.871,1.966C326.127,307.867,327.651,307.636,329.174,307.372z"/>
	<path fill="#E1ECF9" d="M168.542,160.603c-2.136-0.039-2.654-1.617-3.123-3.255c-1.042-3.615-2.042-7.248-3.151-10.842
		c-0.931-3.026-0.548-3.946,2.208-5.678c2.795-1.756,5.883-2.47,9.078-2.823c0.954-0.106,1.971,0.138,2.929,0.357
		c1.081,0.251,1.637,1.083,1.789,2.143c0.111,0.764,0.387,1.253,1.248,1.185c0.178,0.465,0.355,0.928,0.53,1.395
		c-0.29,0.119-0.578,0.236-0.919,0.378c0.815,2.717,1.603,5.342,2.445,8.14c0.669-0.354,1.118-0.593,1.567-0.834
		c0.112,0.026,0.223,0.054,0.335,0.081c0.286,0.374,0.572,0.747,0.858,1.12c-0.761,0.461-1.519,0.923-2.267,1.372
		c0.405,1.566,0.253,2.274-0.745,3.115c-1.835,1.541-3.94,2.552-6.222,3.278C172.951,160.418,170.769,160.639,168.542,160.603z
		 M165.979,145.514c2.382,0.027,4.548-0.695,6.457-1.535c1.331-0.586,2.578-1.386,3.803-2.18c0.719-0.462,1.12-1.252,0.844-2.102
		c-0.251-0.785-1.028-0.838-1.765-0.897c-4.033-0.318-7.655,0.953-11.078,2.911c-0.597,0.342-1.111,0.897-1.547,1.447
		c-0.653,0.816-0.39,1.653,0.646,1.947C164.19,145.345,165.098,145.385,165.979,145.514z M170.944,145.594
		c-2.507,0.463-5.002,1.034-7.582,0.58C165.956,146.804,168.479,146.579,170.944,145.594z"/>
	<path fill="#DA9876" d="M180.05,143.084c-0.176-0.467-0.352-0.929-0.53-1.395c1.732-0.2,3.501-0.235,5.185-0.632
		c2.083-0.496,3.926-0.076,5.735,0.856c2.689,1.387,5.417,2.69,8.393,3.324c1.358,0.291,2.764,0.367,4.333,0.565
		c0.906,2.513,0.964,5.368,0.772,8.249c-0.004,0.077-0.116,0.14-0.179,0.213c-0.674-0.188-1.349-0.375-2.022-0.56v-0.004
		c-0.095-0.083-0.192-0.16-0.287-0.239c-0.424-0.051-0.858-0.064-1.272-0.158c-1.522-0.348-2.949-0.297-4.405,0.454
		c-2.001,1.035-4.16,1.574-6.456,1.382c-1.178-0.096-2.198-0.463-3.032-1.351c-0.606-0.644-1.296-1.216-1.948-1.821
		c-0.286-0.373-0.572-0.746-0.858-1.12c1.565,0.157,3.134,0.563,4.683-0.109c-0.934-0.198-1.872-0.198-2.806-0.198
		c-0.729,0-1.461-0.001-2.193-0.002c-0.41-0.554-0.821-1.107-1.23-1.66c2.298,0.415,4.557,0.362,6.757-0.501
		c-2.337,0.058-4.677,0.12-7.014,0.181c-0.362-0.646-1.044-1.314-1.001-1.931c0.042-0.641,0.79-1.229,1.255-1.882
		C181.32,144.206,180.687,143.646,180.05,143.084z M188.723,145.771c-0.833-0.942-5.013-1.204-6.313-0.412
		C184.511,145.496,186.616,145.634,188.723,145.771z"/>
	<path fill="#56BACC" d="M203.169,171.747c0.387,2.319,0.707,4.651,1.18,6.954c0.682,3.334,1.542,6.623,3.141,9.663
		c0.35,0.669,0.755,1.302,0.985,2.13c-0.234-0.217-0.516-0.399-0.686-0.654c-1.543-2.313-2.504-4.878-3.135-7.557
		c-0.747-3.16-1.362-6.346-2.02-9.526c-0.064-0.321-0.013-0.663-0.016-0.999C202.801,171.754,202.985,171.751,203.169,171.747z"/>
	<path fill="#268AB2" d="M203.169,158.556c-0.824,0-1.016-0.67-1.101-1.237c-0.183-1.193-0.23-2.408-0.331-3.614
		c0.673,0.185,1.348,0.372,2.022,0.56C203.564,155.694,203.365,157.126,203.169,158.556z"/>
	<path fill="#56BACC" d="M184.552,172.652c-0.091,3.698-0.182,7.394-0.283,11.091c-0.004,0.162-0.108,0.313-0.236,0.66
		c-0.787-1.135,0.324-2.628-0.795-3.344c0.151-0.412,0.435-0.855,0.461-1.312c0.141-2.271,0.216-4.542,0.312-6.811
		c0.004-0.098,0.01-0.191,0.015-0.286C184.202,172.652,184.375,172.652,184.552,172.652z"/>
	<path fill="#DFA27E" d="M130.485,87.773c0.097,0.01,0.194,0.021,0.292,0.029C130.68,87.793,130.583,87.783,130.485,87.773z"/>
	<path fill="#2C3662" d="M225.608,240.954c-1.332-1.607-2.579-3.259-3.305-5.269c-1.279-3.542-1.291-7.139-0.681-10.797
		c0.522-3.115,1.633-6.008,3.168-8.774c1.731-3.121,3.324-6.321,4.989-9.487c0.169-0.319,0.398-0.604,0.601-0.906
		c1.525,0.918,3.225,0.961,4.929,1.001c0.314,1.513,0.96,2.795,2.487,3.428c0.068,0.416,0.247,0.845,0.187,1.243
		c-0.384,2.478-0.83,4.941-1.241,7.411c-0.23,1.396-0.454,2.792-0.652,4.188c-0.316,2.194-0.597,4.392-0.909,6.584
		c-0.153,1.068-0.223,2.176-0.552,3.188c-0.558,1.703,0.167,2.793,1.417,3.745c0.142,0.113,0.221,0.308,0.327,0.465
		c-0.67-0.29-1.341-0.581-2.229-0.967c-0.228,1.061-0.467,1.997-0.624,2.942c-0.321,1.938-0.594,3.887-0.887,5.833
		c-0.275-0.066-0.556-0.112-0.823-0.2C229.498,243.797,227.513,242.448,225.608,240.954z"/>
	<path fill="#EEAF89" d="M273.629,201.436c0.83,0.297,1.659,0.613,2.491,0.892c0.389,0.125,0.807,0.196,1.201,0.296l-0.022-0.01
		c0.112,0.098,0.219,0.195,0.33,0.299c1.635,0.705,3.322,0.937,5.113,0.92c1.289-0.012,2.592,0.486,3.886,0.756
		c0.505,0.101,1.009,0.22,1.513,0.328c0.395,0.482,0.785,0.958,1.174,1.433c-1.701,0.092-3.396,0.271-5.097,0.251
		c-3.745-0.046-7.494-0.184-11.239-0.29C273.191,204.683,273.405,203.06,273.629,201.436z"/>
	<path fill="#FDFDFD" d="M277.628,202.912c-0.111-0.104-0.217-0.201-0.329-0.299C277.411,202.711,277.517,202.809,277.628,202.912z"
		/>
	<path fill="#F0F1F7" d="M343.909,200.025c-0.345-1.891-0.688-3.781-1.03-5.672c6.46-0.122,12.912-0.252,19.367-0.374
		c0.191,0.494,0.375,0.992,0.56,1.488c0.528,2.918,1.067,5.841,1.585,8.764c0.119,0.689,0.167,1.401,0.249,2.101
		c-6.515,0.005-13.029,0.008-19.54,0.011C344.703,204.24,344.302,202.137,343.909,200.025z M354.128,198.517
		c1.009,0,1.967,0,3.048,0c-0.181-0.704-0.332-1.264-0.456-1.755c-1.054,0-2.001,0-3.042,0
		C353.852,197.451,353.992,197.982,354.128,198.517z M349.852,198.566c2.79,0.159,3.018-0.02,2.49-1.813c-0.966,0-1.907,0-2.954,0
		C349.561,197.438,349.694,197.966,349.852,198.566z M360.973,196.729c-0.945,0-1.901,0-2.893,0c0.119,0.668,0.224,1.212,0.32,1.737
		C360.793,198.887,361.558,198.607,360.973,196.729z M357.894,204.302c0.015-1.807-0.797-2.253-2.914-1.764c0,0.587,0,1.168,0,1.808
		c0.741,0,1.356,0.003,1.973,0C357.232,204.344,357.509,204.323,357.894,204.302z M353.573,204.255
		c0.215-1.984-0.32-2.218-2.94-1.38C350.728,204.455,350.829,204.509,353.573,204.255z M354.227,199.818
		c0.172,0.646,0.314,1.159,0.42,1.558c1.041,0,1.901,0,2.849,0c-0.068-0.575-0.12-1.034-0.179-1.558
		C356.283,199.818,355.332,199.818,354.227,199.818z M353.001,201.385c0.157-1.501,0.094-1.588-1.2-1.615
		c-0.555-0.014-1.107-0.002-1.639-0.002C349.894,201.763,350.62,201.595,353.001,201.385z M346.028,201.359c1.095,0,2.04,0,3.079,0
		c-0.187-0.608-0.323-1.093-0.476-1.592c-0.502,0-0.925-0.014-1.353,0.003c-0.406,0.016-0.815,0.059-1.251,0.096
		C346.028,200.417,346.028,200.832,346.028,201.359z M346.374,202.751c-0.192,1.459,0.101,1.895,2.892,1.44
		C349.555,202.51,348.863,202.447,346.374,202.751z M358.714,199.813c0.116,0.628,0.204,1.117,0.285,1.582c0.934,0,1.763,0,2.604,0
		c0-0.575,0-1.055,0-1.582C360.602,199.813,359.722,199.813,358.714,199.813z"/>
	<path fill="#333E70" d="M236.374,236.974c-0.106-0.157-0.185-0.352-0.327-0.465c-1.25-0.952-1.976-2.042-1.417-3.745
		c0.33-1.012,0.398-2.119,0.552-3.188c0.313-2.192,0.595-4.39,0.91-6.584c0.198-1.397,0.422-2.795,0.652-4.188
		c0.411-2.47,0.856-4.934,1.241-7.411c0.06-0.397-0.118-0.826-0.188-1.243c1.493,0.081,2.985,0.166,4.479,0.229
		c0.699,0.032,1.409,0.037,2.108,0.053c-0.766,2.794-0.707,5.69-1.159,8.525c-0.511,3.248-1.147,6.475-1.653,9.725
		c-0.282,1.816-0.434,3.651-0.608,5.477c-0.132,1.314-0.201,2.634-0.293,3.96c-0.276-0.043-0.562-0.055-0.828-0.131
		c-1.157-0.33-2.313-0.676-3.467-1.013H236.374z"/>
	<path fill="#2C3662" d="M264.133,225.526c0.651,0.233,1.306,0.463,1.955,0.692c5.129,1.808,10.263,3.603,15.389,5.41
		c0.297,0.11,0.559,0.316,0.776,0.636c-10.619-3.724-21.266-7.344-32.144-10.229c0.694-3.995,1.799-7.724,1.726-11.631
		c2.382,0,4.76,0,7.141,0c-0.016,0.669,0.051,1.344-0.045,2.001c-0.438,2.833-0.931,5.655-1.373,8.489
		c-0.127,0.785-0.489,1.817-0.14,2.309c0.406,0.564,1.466,0.689,2.258,0.946C261.148,224.629,262.646,225.065,264.133,225.526z"/>
	<path fill="#333E70" d="M261.218,210.371c0.603,2.123,1.184,4.243,1.816,6.348c0.428,1.446,1.434,2.517,2.453,3.568
		c-0.256,0.32-0.655,0.61-0.725,0.959c-0.268,1.416-0.428,2.853-0.63,4.28c-1.486-0.461-2.984-0.897-4.457-1.375
		c-0.794-0.256-1.853-0.383-2.259-0.947c-0.351-0.49,0.014-1.523,0.14-2.307c0.443-2.835,0.936-5.657,1.374-8.491
		c0.096-0.655,0.029-1.331,0.044-2.001C259.728,210.395,260.474,210.384,261.218,210.371z"/>
	<path fill="#44C49E" d="M343.909,200.025c0.393,2.111,0.794,4.215,1.19,6.317c-1.968-0.008-3.938-0.017-5.909-0.023
		c0.381-2.095,0.755-4.19,1.137-6.292C341.209,199.253,343.031,199.252,343.909,200.025z"/>
	<path fill="#E8EAF0" d="M246.993,139.185c-0.348-0.262-0.269-0.4,0.131-0.448"/>
	<path fill="#D38D64" d="M296.876,149.441c1.536,0.031,1.315-1.756,2.574-2.476c-0.402,0.934-0.669,1.558-0.969,2.254
		c0.391,0.135,0.729,0.251,1.11,0.386c0.396-0.686,0.757-1.313,1.11-1.938c0.087,0.041,0.173,0.079,0.252,0.118
		c-0.252,0.878-0.504,1.752-0.744,2.59C299.168,150.083,298.021,149.763,296.876,149.441z"/>
	<path fill="#D38D64" d="M303.664,147.148c-0.359,0.6-0.764,1.186-1.085,1.814c-0.497,0.973-1.293,1.896-0.863,3.209
		c-0.313-0.427-0.623-0.853-0.887-1.213c0.639-1.079,1.211-2.1,1.849-3.077c0.212-0.327,0.589-0.55,0.889-0.823L303.664,147.148z"/>
	<path fill="#D38D64" d="M301.953,143.713c-0.379,0.388-0.754,0.775-1.122,1.164l-0.109-0.09c0.384-0.385,0.76-0.77,1.143-1.155
		L301.953,143.713z"/>
	<path fill="#D38D64" d="M300.831,144.877c-0.173,0.373-0.335,0.746-0.499,1.119c-0.136-0.074-0.267-0.151-0.403-0.225
		c0.265-0.329,0.528-0.656,0.793-0.985L300.831,144.877z"/>
	<path fill="#D38D64" d="M301.667,146.86c-0.143,0.155-0.278,0.309-0.418,0.463c-0.036-0.035-0.096-0.096-0.094-0.098
		c0.129-0.156,0.271-0.302,0.405-0.452L301.667,146.86z"/>
	<path fill="#D38D64" d="M299.521,146.315c0.12,0.05,0.201,0.078,0.282,0.11c-0.053,0.109-0.091,0.228-0.162,0.323
		c-0.013,0.017-0.215-0.06-0.211-0.087C299.436,146.545,299.484,146.434,299.521,146.315z"/>
	<path fill="#D38D64" d="M302.524,145.716c-0.188,0.198-0.369,0.393-0.551,0.59l-0.107-0.087c0.189-0.197,0.383-0.388,0.574-0.584
		C302.441,145.635,302.524,145.716,302.524,145.716z"/>
	<path fill="#D38D64" d="M303.566,147.059c0.087-0.172,0.183-0.346,0.279-0.518c0.066,0.04,0.134,0.083,0.205,0.119
		c-0.132,0.163-0.254,0.325-0.386,0.488L303.566,147.059z"/>
	<path fill="#D38D64" d="M303.017,145.072c0.092-0.191,0.189-0.384,0.289-0.578l0.082,0.09c-0.1,0.183-0.204,0.369-0.304,0.556
		L303.017,145.072z"/>
	<path fill="#D38D64" d="M301.974,146.306c-0.104,0.185-0.21,0.368-0.307,0.554l-0.107-0.087c0.104-0.185,0.203-0.371,0.307-0.554
		L301.974,146.306z"/>
	<path fill="#D38D64" d="M303.886,143.936c0.089-0.098,0.187-0.197,0.281-0.295l0.078,0.081c-0.097,0.091-0.2,0.185-0.305,0.275
		C303.939,143.996,303.886,143.936,303.886,143.936z"/>
	<path fill="#D38D64" d="M303.943,141.704c-0.094,0.094-0.194,0.189-0.294,0.287l-0.055-0.063c0.092-0.097,0.189-0.194,0.287-0.295
		L303.943,141.704z"/>
	<path fill="#D38D64" d="M305.288,142.773c0.098-0.095,0.197-0.193,0.288-0.289l0.093,0.091c-0.1,0.098-0.191,0.192-0.289,0.286
		L305.288,142.773z"/>
	<path fill="#D38D64" d="M303.655,144.281c-0.084,0.099-0.178,0.199-0.269,0.302c0.001,0.001-0.081-0.088-0.081-0.089
		c0.095-0.091,0.195-0.181,0.296-0.275L303.655,144.281z"/>
	<path fill="#D38D64" d="M303.367,142.273c-0.093,0.098-0.19,0.195-0.281,0.293l-0.072-0.072c0.095-0.092,0.195-0.188,0.298-0.282
		L303.367,142.273z"/>
	<path fill="#D38D64" d="M304.167,143.641c0.091-0.098,0.188-0.194,0.284-0.288l0.082,0.084c-0.093,0.094-0.189,0.191-0.29,0.285
		L304.167,143.641z"/>
	<path fill="#D38D64" d="M302.803,145.425c-0.094,0.097-0.19,0.193-0.278,0.292c0,0-0.084-0.08-0.085-0.081
		c0.1-0.092,0.193-0.187,0.295-0.278C302.736,145.358,302.803,145.425,302.803,145.425z"/>
	<path fill="#D38D64" d="M303.882,141.634c0.055-0.034,0.118-0.073,0.183-0.111c-0.043,0.062-0.082,0.119-0.121,0.18
		L303.882,141.634z"/>
	<path fill="#D38D64" d="M302.449,143.075c0.096-0.1,0.186-0.199,0.282-0.296c0,0.001,0.071,0.068,0.071,0.068
		c-0.098,0.098-0.199,0.191-0.294,0.285C302.509,143.133,302.449,143.075,302.449,143.075z"/>
	<path fill="#D38D64" d="M301.865,143.63c0.102-0.093,0.196-0.185,0.299-0.274l0.063,0.062c-0.094,0.1-0.188,0.198-0.276,0.295
		C301.953,143.713,301.865,143.63,301.865,143.63z"/>
	<path fill="#D38D64" d="M303.602,144.22c0.092-0.093,0.189-0.185,0.284-0.282c0-0.001,0.053,0.058,0.054,0.06
		c-0.09,0.093-0.188,0.189-0.284,0.283L303.602,144.22z"/>
	<path fill="#D38D64" d="M304.451,143.352c0.08-0.026,0.166-0.054,0.251-0.081c-0.055,0.057-0.112,0.112-0.168,0.165
		L304.451,143.352z"/>
	<path fill="#D38D64" d="M303.312,142.213c0.091-0.092,0.188-0.189,0.283-0.284c-0.002-0.001,0.054,0.061,0.055,0.062
		c-0.091,0.092-0.188,0.185-0.284,0.281C303.367,142.273,303.312,142.213,303.312,142.213z"/>
	<path fill="#D38D64" d="M303.084,145.141c-0.096,0.094-0.193,0.187-0.281,0.283c0.002,0-0.065-0.065-0.068-0.067
		c0.092-0.093,0.187-0.189,0.282-0.283C303.017,145.072,303.084,145.141,303.084,145.141z"/>
	<path fill="#D38D64" d="M302.164,143.356c0.096-0.095,0.188-0.188,0.285-0.281c0,0,0.06,0.057,0.06,0.057
		c-0.096,0.098-0.191,0.191-0.281,0.285C302.228,143.418,302.164,143.356,302.164,143.356z"/>
	<path fill="#D38D64" d="M303.086,142.566c-0.096,0.094-0.193,0.187-0.281,0.28c0,0-0.072-0.067-0.073-0.068
		c0.093-0.094,0.187-0.189,0.283-0.283C303.014,142.495,303.086,142.566,303.086,142.566z"/>
	<path fill="#D38D64" d="M305.38,142.861c-0.087,0.024-0.166,0.052-0.252,0.076c0.058-0.056,0.112-0.108,0.16-0.165L305.38,142.861z
		"/>
	<path fill="#3C477A" d="M185.998,303.955c-0.003,0.527-0.035,1.058-0.001,1.582c0.075,1.188,0.182,2.367,0.278,3.555
		c0.114,3.244,0.227,6.489,0.339,9.733c-7.186,0.017-14.372,0.013-21.561,0.061c-7.038,0.05-14.075,0.146-21.115,0.219
		c-0.024-2.247,0.985-3.698,3.181-4.025c2.735-0.401,5.438-0.876,7.994-1.947c2.014-0.845,3.998-1.76,5.992-2.645
		c1.04,0.203,1.783,0.808,2.276,1.728c0.288,0.541,0.723,0.785,1.269,0.507c0.643-0.33,0.645-1.026,0.293-1.459
		c-0.502-0.625-1.216-1.076-1.839-1.602c0.404-0.372,0.807-0.74,1.211-1.111c0.077,0.005,0.154-0.012,0.222-0.048
		c0.826,0.327,1.48,0.833,1.834,1.68c0.205,0.495,0.614,0.878,1.085,0.528c0.28-0.206,0.512-0.937,0.359-1.185
		c-0.429-0.689-1.064-1.252-1.62-1.866c0.393-0.315,0.785-0.629,1.179-0.946c0.902,0.218,1.651,0.642,2.154,1.46
		c0.322,0.524,0.804,0.907,1.4,0.502c0.589-0.403,0.449-1.054,0.09-1.505c-0.509-0.639-1.147-1.173-1.747-1.759
		c0.35-0.581,0.35-0.581,0.027-1.402c0.611-0.122,1.219-0.238,1.831-0.358c1.703,0.063,3.411,0.15,5.115,0.176
		c2.901,0.043,5.803,0.044,8.701,0.049c0.123,0,0.248-0.126,0.374-0.196C185.546,303.771,185.771,303.859,185.998,303.955z"/>
	<path fill="#FDB3B3" d="M233.804,255.023c-4.445-0.325-8.77-1.146-12.792-3.161c-0.629-0.315-1.191-0.75-1.781-1.136
		c-1.257-0.977-1.478-2.434-1.727-3.862c-0.154-0.871-0.029-1.684,0.777-2.263c0.986-0.715,1.961-1.444,2.942-2.164
		c1.46-0.494,2.923-0.988,4.383-1.481c1.904,1.492,3.89,2.842,6.204,3.627c0.267,0.089,0.548,0.133,0.823,0.2
		c0.295,0.153,0.593,0.303,0.888,0.449c-0.33,2.144-0.655,4.28-0.986,6.432c3.292,0.918,6.435,1.092,9.567,1.317
		c4.303,0.146,8.588-0.018,12.845-0.582c1.846-0.245,3.664-0.745,5.49-1.136c2.017,0.363,4.025,0.726,6.041,1.082
		c-2.622,0.703-5.239,1.449-7.876,2.084c-1.585,0.377-3.217,0.583-4.828,0.864c-0.461,0.003-0.915,0.005-1.371,0.009
		c-1.081,0.088-2.168,0.264-3.251,0.252c-4.686-0.056-9.378-0.166-14.072-0.254C234.654,255.212,234.23,255.114,233.804,255.023z"/>
	<path fill="#64C4D5" d="M185.156,253.04c0.852-0.857,1.701-1.722,2.563-2.571c0.358-0.354,0.741-0.688,1.116-1.034
		c0.66,0.734,1.287,1.503,1.986,2.2c0.635,0.633,1.366,1.165,2.021,1.771c3.085,2.882,6.128,5.797,9.242,8.642
		c1.389,1.265,2.909,2.391,4.367,3.583c-1.074,1.061-2.113,2.163-3.234,3.177c-1.405,1.269-2.874,2.473-4.313,3.705
		c-0.265-0.58-0.397-1.289-0.821-1.701c-1.277-1.262-2.682-2.385-4.007-3.592c-1.619-1.484-3.194-3.005-4.804-4.498
		c-0.72-0.665-1.5-1.269-2.208-1.951c-1.169-1.115-1.768-2.442-1.662-4.125c0.068-1.114-0.165-2.248-0.262-3.372
		C185.145,253.191,185.149,253.115,185.156,253.04z"/>
	<path fill="#273466" d="M192.86,228.963c-0.745-1.527-1.519-3.05-2.233-4.591c-1.538-3.307-3.047-6.625-4.563-9.941
		c-0.134-0.289-0.21-0.616-0.317-0.929c0.305-0.159,0.657-0.255,0.901-0.474c0.372-0.337,0.661-0.771,1.002-1.138
		c1.356-1.471,2.717-2.927,4.078-4.394c0.501,1.004,1.08,1.986,1.487,3.027c0.91,2.327,1.698,4.661,1.716,7.251
		c0.015,2.213,0.829,4.314,1.991,6.244c0.441,0.735,0.828,1.499,1.176,2.277c0.467,1.051,0.278,1.745-0.593,2.499
		c-0.144,0.122-0.29,0.248-0.42,0.381c-1.406,1.491-1.357,1.754-3.469,0.107C193.407,229.126,193.114,229.069,192.86,228.963z"/>
	<path fill="#273466" d="M191.729,207.497c-1.359,1.467-2.722,2.925-4.078,4.396c-0.341,0.366-0.63,0.8-1.002,1.137
		c-0.244,0.218-0.597,0.313-0.901,0.474c-0.563-1.149-1.116-2.304-1.707-3.437c-0.106-0.206-0.362-0.329-0.55-0.495
		c-0.118-0.479-0.337-0.955-0.34-1.433c-0.024-4.324-0.013-8.639-0.013-12.922c-1.34-0.661-2.631-1.292-3.925-1.931
		c0.06-0.131,0.117-0.271,0.173-0.401c0.607,0.294,1.189,0.657,1.825,0.883c0.703,0.247,1.441,0.479,2.181,0.523
		c0.689,0.05,1.417-0.058,2.086-0.254c0.691-0.198,1.333-0.581,2.037-0.781c-0.757,1.339-2.33,1.144-3.469,1.867
		c1.387,2.045,2.825,4.028,4.116,6.103C189.429,203.26,190.545,205.403,191.729,207.497z"/>
	<path fill="#E8EAF0" d="M224.174,296.232c-11.965-0.008-23.93-0.005-35.896-0.046c-0.747-0.004-1.103,0.289-1.376,0.873
		c-0.001-0.664-0.002-1.334-0.003-1.999c11.892,0.004,23.78,0.006,35.672,0.014c0.62,0,1.234,0.044,1.852,0.068
		C224.338,295.509,224.258,295.872,224.174,296.232z"/>
	<path fill="#D38D64" d="M185.32,303.678c-0.126,0.071-0.25,0.197-0.374,0.197c-2.899-0.005-5.8-0.007-8.702-0.05
		c-1.704-0.024-3.411-0.112-5.115-0.176c0.311-0.651,0.623-1.296,0.938-1.946c1.721,0.182,3.45,0.318,5.167,0.547
		c2.511,0.341,5.015,0.735,7.521,1.124C184.952,303.408,185.132,303.571,185.32,303.678z"/>
	<path fill="#2C3662" d="M172.067,301.703c-0.314,0.65-0.626,1.295-0.937,1.946c-0.612,0.121-1.219,0.236-1.831,0.358
		c-0.831-0.096-1.663-0.19-2.495-0.281c-0.25-0.438-1.2-0.024-1.083-0.902C167.768,302.063,169.85,301.508,172.067,301.703z"/>
	<path fill="#56BACC" d="M177.989,244.402c-1.147,0.722-2.425,0.888-3.744,0.871c-0.566-0.007-1.134,0.003-1.701,0.007
		c-1.996-0.036-3.781-0.813-5.632-1.354c0.029-0.115,0.061-0.237,0.092-0.354c1.205,0.29,2.409,0.594,3.616,0.882
		c1.983,0.479,3.965,0.649,5.972,0.104C177.036,244.432,177.522,244.451,177.989,244.402z"/>
	<path fill="#56BACC" d="M214.512,245.129c-2.076,1.589-6.9,0.471-8.019-1.822C208.936,244.939,211.451,246.248,214.512,245.129z"/>
	<path fill="#56BACC" d="M178.847,243.848c-0.192,0.09-0.381,0.185-0.574,0.277C178.465,244.032,178.655,243.938,178.847,243.848z"
		/>
	<path fill="#56BACC" d="M209.146,190.835c-0.037,0.075-0.076,0.15-0.114,0.216c-0.03-0.034-0.095-0.067-0.089-0.091
		c0.023-0.077,0.07-0.149,0.104-0.224C209.08,190.77,209.113,190.803,209.146,190.835z"/>
	<path fill="#56BACC" d="M178.276,244.123c-0.096,0.094-0.192,0.191-0.291,0.283C178.084,244.314,178.18,244.217,178.276,244.123z"
		/>
	<path fill="#39B691" d="M59.284,249.153c0.196-0.061,0.361-0.151,0.525-0.146c4.259,0.127,8.528,0.418,12.471,2.139
		c2.004,0.873,3.931,2.115,5.585,3.549c2.907,2.513,5.583,5.295,8.339,7.981c0.341,0.334,0.583,0.77,0.981,1.308
		C85.22,263.786,60.265,250.461,59.284,249.153z"/>
	<path fill="#39B691" d="M97.267,201.766c3.151,0.876,6.244,1.982,8.767,4.105c2.238,1.885,3.649,4.469,4.689,7.195
		c0.708,1.854,1.226,3.775,1.917,5.632c0.527,1.42,1.187,2.789,1.791,4.175c0.187,0.427,0.383,0.845,0.692,1.53
		c-1.248-0.453-1.806-1.292-2.401-2.08c-1.281-1.693-2.521-3.423-3.846-5.082c-1.148-1.438-2.654-2.646-3.52-4.22
		c-1.053-1.917-2.627-3.318-3.935-4.976c-1.296-1.646-2.569-3.312-3.832-4.981c-0.243-0.323-0.395-0.709-0.586-1.071
		C97.09,201.914,97.179,201.843,97.267,201.766z"/>
	<path fill="#FE9395" d="M141.92,317.933c-0.179-0.412-0.295-0.867-0.553-1.222c-0.242-0.331-0.758-0.485-0.938-0.834
		c-0.5-0.969-1.286-1.763-2.091-2.347c-1.098-0.793-1.51-2.047-2.471-2.91c-1.175-1.055-2.141-2.333-3.248-3.47
		c-0.222-0.226-0.668-0.238-1.007-0.35c-0.891-1.396-0.875-3.022-1.11-4.581c-0.098-0.645,0.029-1.33-0.028-1.988
		c-0.099-1.202,0.295-2.14,1.446-2.872c1.17,1.294,2.355,2.613,3.548,3.926c0.319,0.347,0.661,0.68,0.982,1.03
		c2.301,2.488,4.59,4.987,6.916,7.453c0.331,0.346,0.849,0.518,1.282,0.772c-0.233,1.293-0.419,2.597-0.719,3.877
		C143.612,315.771,142.875,316.921,141.92,317.933z"/>
	<path fill="#D38D64" d="M123.167,69.864c0.311-0.173,0.623-0.345,1.003-0.559c-0.293-1.175-0.591-2.367-0.89-3.563
		c0.125-0.032,0.249-0.067,0.374-0.102c0.37,1.136,0.742,2.271,1.098,3.369c0.157,0.035,0.247,0.086,0.325,0.07
		c1.872-0.359,1.913-0.437,1.344-2.192c-0.597-1.843-1.181-3.692-1.754-5.542c-0.082-0.259-0.069-0.546,0.06-0.855
		c1.397,2.539,1.683,5.438,2.778,8.077c0.537,0,1.073,0,1.853,0c-0.884-2.694-1.712-5.21-2.54-7.728
		c0.112-0.052,0.224-0.106,0.336-0.159c0.162,0.309,0.369,0.603,0.478,0.932c0.6,1.794,1.152,3.603,1.764,5.394
		c0.311,0.904,0.642,1.838,1.844,2.126c-2.809-0.519-5.374,0.338-7.953,1.1C123.246,70.11,123.205,69.987,123.167,69.864z"/>
	<path fill="#C6C6C7" d="M166.806,303.729c0.832,0.089,1.663,0.184,2.494,0.28c0.323,0.82,0.323,0.82-0.027,1.402
		c0.6,0.586,1.238,1.12,1.747,1.759c0.359,0.451,0.499,1.102-0.09,1.505c-0.597,0.405-1.078,0.022-1.4-0.502
		c-0.503-0.818-1.252-1.24-2.153-1.46c0.339-0.467,0.519-0.883,0.092-1.456C167.143,304.827,167.019,304.244,166.806,303.729z"/>
	<path fill="#C6C6C7" d="M166.197,307.658c0.555,0.613,1.19,1.176,1.62,1.867c0.152,0.248-0.079,0.979-0.359,1.184
		c-0.472,0.35-0.881-0.033-1.085-0.528c-0.354-0.846-1.01-1.353-1.835-1.68C165.091,308.22,165.644,307.938,166.197,307.658z"/>
	<path fill="#DA9876" d="M300.394,237.26c-1.217-0.082-2.448-0.12-3.658-0.259c-0.714-0.084-1.021,0.247-1.32,0.792
		c-0.473,0.852-0.82,1.803-1.749,2.294c-1.895-1.451-2.005-4.072-0.308-6.244c0.315,0.082,0.658,0.106,0.939,0.245
		C296.335,235.133,298.366,236.203,300.394,237.26z"/>
	<path fill="#9398AC" d="M253.775,255.293c1.668,7.242,3.345,14.479,5.018,21.725c0.733,3.181,1.463,6.361,2.2,9.548
		c0.04,0.164,0.167,0.311,0.258,0.463c-0.289,0.771-0.576,1.54-0.865,2.315c-0.078-0.163-0.206-0.314-0.248-0.49
		c-0.773-3.318-1.535-6.639-2.304-9.961c-0.576-2.478-1.159-4.953-1.741-7.44c-3.726,3.778-7.386,7.491-11.141,11.303
		c1.596,1.568,3.285,3.237,4.981,4.896c2.816,2.759,5.643,5.508,8.47,8.259c-0.174,0.484-0.338,0.966-0.51,1.442
		c-0.479-0.385-0.962-0.772-1.442-1.163c-0.374-0.376-0.749-0.76-1.114-1.137c-3.827-3.818-7.655-7.637-11.45-11.423
		c-0.189,0.063-0.303,0.066-0.363,0.126c-3.764,3.759-7.525,7.523-11.292,11.291c-0.362,0.375-0.726,0.754-1.089,1.128
		c-0.843,0.752-1.695,1.486-2.522,2.252c-0.625,0.578-1.157,1.268-1.827,1.78c-2.189,1.669-3.307,3.877-3.534,6.585
		c-1.163,5.012-2.331,10.029-3.512,15.122c-0.494-0.132-0.844-0.22-1.333-0.354c1.118-4.939,2.234-9.852,3.351-14.763
		c0.803-3.522,1.606-7.043,2.409-10.564c0.084-0.36,0.164-0.724,0.248-1.091l-0.022-0.04c0.067-0.104,0.138-0.216,0.204-0.32
		c1.887-8.131,3.776-16.252,5.66-24.377c1.186-5.122,2.358-10.252,3.539-15.381c0.426,0.091,0.851,0.187,1.278,0.275
		c-1.074,4.811-2.149,9.613-3.244,14.509c3.918,3.883,7.862,7.791,11.863,11.752c0.542-0.512,0.924-0.863,1.291-1.221
		c3.246-3.229,6.449-6.487,9.752-9.647c0.775-0.743,0.893-1.37,0.655-2.359c-1.055-4.33-2.005-8.682-2.992-13.029
		C252.86,255.299,253.314,255.295,253.775,255.293z M230.072,295.066c0.185-0.149,0.384-0.277,0.552-0.443
		c3.887-3.859,7.775-7.721,11.659-11.581c0.154-0.159,0.275-0.352,0.443-0.573c-3.736-3.673-7.411-7.279-11.208-11.005
		c-0.15,0.439-0.248,0.647-0.295,0.866c-1.245,5.354-2.489,10.714-3.72,16.072c-0.509,2.219-0.991,4.442-1.482,6.662
		c-0.514,1.557-0.951,3.125-1.064,4.815C226.731,298.21,228.399,296.639,230.072,295.066z"/>
	<path fill="#FE8486" d="M260.438,251.264c-1.826,0.389-3.646,0.89-5.49,1.135c-4.256,0.565-8.542,0.729-12.845,0.582
		c-0.003-1.887-0.006-3.774-0.011-5.662c5.993,1.245,11.986,2.495,17.977,3.746C260.206,251.094,260.318,251.199,260.438,251.264z"
		/>
	<path fill="#FE9395" d="M242.093,247.318c0.005,1.888,0.008,3.775,0.011,5.662c-3.132-0.226-6.275-0.399-9.567-1.317
		c0.331-2.151,0.656-4.287,0.986-6.431c0.316,0.061,0.639,0.111,0.958,0.183c1.578,0.348,3.157,0.704,4.737,1.06
		C240.177,246.757,241.139,247.038,242.093,247.318z"/>
	<path fill="#333E70" d="M239.217,246.475c-1.58-0.355-3.16-0.712-4.737-1.06c-0.318-0.071-0.641-0.122-0.958-0.183
		c-0.296-0.147-0.592-0.296-0.888-0.45c0.292-1.944,0.566-3.894,0.887-5.833c0.157-0.945,0.396-1.882,0.625-2.942
		c0.888,0.386,1.558,0.677,2.229,0.967l0,0.001c0.413,0.284,0.791,0.651,1.246,0.834c0.896,0.346,1.835,0.594,2.76,0.879
		c-0.22,1.584-0.432,3.163-0.664,4.737C239.565,244.442,239.384,245.461,239.217,246.475z"/>
	<path fill="#EEAF89" d="M266.91,311.646c0.273,3.084,0.308,3.115,3.29,3.73c0.394,0.081,0.762,0.252,1.146,0.387
		c-2.418,0.791-4.811,1.673-7.265,2.343c-1.944,0.527-3.76,0.113-5.122-1.539c0.216-0.456,0.363-0.947,0.643-1.353
		c0.818-1.198,1.69-2.362,2.539-3.535c0.278-0.064,0.556-0.13,0.83-0.196c0.607,0.048,1.205,0.094,1.809,0.14
		c-0.159,0.804-0.325,1.604-0.504,2.496c0.649,0.145,1.196,0.271,1.812,0.409c-0.2-1.077-0.357-1.944-0.522-2.811
		C266.018,311.695,266.463,311.672,266.91,311.646z"/>
	<path fill="#E8EAF0" d="M307.296,296.214c-9.702-0.001-19.414-0.001-29.116-0.005c-0.62-0.001-1.24-0.028-1.854-0.043
		c0.119-0.366,0.245-0.737,0.363-1.104c10.032,0.002,20.055,0.004,30.079,0.006C306.941,295.45,307.122,295.836,307.296,296.214z"/>
	<path fill="#DA9876" d="M289.356,237.549c0.343,0.507,0.679,1.016,1.083,1.607c-0.355,0.194-0.69,0.34-0.978,0.555
		c-1.035,0.747-2.162,1.411-3.037,2.307c-0.927,0.946-1.847,1.755-3.165,2.056c-0.485,0.108-0.936,0.378-1.407,0.579
		c-1.081-2.78,1.055-5.52,3.479-5.915c1.299-0.208,2.297-0.792,3.139-1.744c0.178,0.01,0.354,0.02,0.527,0.028v-0.03
		c0.105,0.096,0.203,0.196,0.303,0.298l-0.021-0.003C289.253,237.383,289.278,237.475,289.356,237.549z"/>
	<path fill="#2C3662" d="M240.381,238.688c-0.925-0.285-1.864-0.533-2.76-0.879c-0.455-0.183-0.833-0.55-1.246-0.834
		c1.154,0.338,2.31,0.683,3.468,1.012c0.265,0.077,0.551,0.089,0.828,0.131c4.63,1.054,9.263,2.096,13.888,3.171
		c3.757,0.872,7.498,1.795,11.254,2.67c2.386,0.555,4.777,1.049,7.154,1.607c0.329,0.079,0.606,0.368,0.904,0.556l-0.012,0.015
		c-1.98-0.417-3.96-0.831-5.93-1.26c-3.313-0.728-6.627-1.438-9.93-2.197c-3.759-0.867-7.502-1.806-11.27-2.662
		C244.624,239.529,242.5,239.131,240.381,238.688z"/>
	<path fill="#D38D64" d="M255.843,313.442c0.1-0.678,0.191-1.359,0.292-2.035c0.564-0.021,1.131-0.042,1.699-0.062
		c0.095-0.002,0.197-0.002,0.3-0.002c0.759,0.038,1.521,0.076,2.282,0.11c-0.094,0.214-0.15,0.442-0.279,0.624
		c-0.756,1.108-1.53,2.207-2.296,3.309C257.17,314.737,256.507,314.094,255.843,313.442z"/>
	<path fill="#DA9876" d="M291.834,242.042c-0.689,0.503-1.33,1.078-2.071,1.494c-0.676,0.38-1.457,0.593-2.212,0.888
		c-0.352-2.158,0.798-3.157,3.788-3.41c0.144,0.271,0.301,0.557,0.451,0.842C291.811,241.919,291.824,241.977,291.834,242.042z"/>
	<path fill="#DA9876" d="M257.839,315.387c0.768-1.102,1.54-2.2,2.296-3.309c0.13-0.182,0.187-0.41,0.281-0.624
		c0.387,0,0.771,0,1.158-0.002c0.187,0.077,0.379,0.153,0.567,0.227c-0.849,1.173-1.721,2.337-2.539,3.535
		c-0.279,0.405-0.427,0.896-0.643,1.353C258.592,316.17,258.212,315.779,257.839,315.387z"/>
	<path fill="#2C3662" d="M275.867,247.847c0.289,0.197,0.713,0.338,0.846,0.612c0.84,1.697,1.542,3.433,0.878,5.4
		c-1.124,3.34-2.211,6.689-3.326,10.033c-0.064,0.207-0.263,0.377-0.395,0.561l-0.012-0.011c0.108-0.6,0.158-1.223,0.351-1.793
		c0.81-2.465,1.594-4.942,2.506-7.367c0.9-2.387,0.749-4.618-0.533-6.798c-0.116-0.208-0.216-0.424-0.323-0.634L275.867,247.847z"/>
	<path fill="#2C3662" d="M291.834,242.042c-0.01-0.065-0.023-0.123-0.043-0.187c1.009,0.76,0.851,1.953,0.917,2.965
		c0.074,1.21,0.003,2.498-0.332,3.657c-0.755,2.626-1.715,5.19-2.808,7.735c0.083-0.444,0.117-0.908,0.246-1.339
		c0.392-1.265,0.752-2.549,1.242-3.776C292.216,248.148,292.52,245.144,291.834,242.042z"/>
	<path fill="#D38D64" d="M313.474,309.64c-0.083-0.22-0.176-0.441-0.267-0.665c0.721-0.239,1.438-0.477,2.153-0.712
		c0.091,1.151,0.184,2.301,0.269,3.447c-0.286-0.011-0.577-0.019-0.87-0.033l0.023,0.013c-0.088-0.104-0.18-0.214-0.262-0.313
		C314.173,310.798,313.822,310.22,313.474,309.64z"/>
	<path fill="#2C3662" d="M263.854,293.643c-1.145,3.431-2.291,6.869-3.438,10.304l-0.012-0.011c0.002-0.19-0.045-0.401,0.015-0.573
		c1.061-3.184,2.133-6.37,3.21-9.551c0.024-0.079,0.141-0.119,0.216-0.179L263.854,293.643z"/>
	<path fill="#2C3662" d="M264.985,290.195c0.732-2.308,1.434-4.635,2.198-6.931c0.35-1.048,0.818-2.063,1.238-3.086l0.013,0.011
		c-0.027,0.331,0.013,0.681-0.089,0.984c-0.921,2.812-1.852,5.624-2.812,8.427c-0.077,0.235-0.35,0.404-0.537,0.604L264.985,290.195
		z"/>
	<path fill="#2C3662" d="M269.571,276.751c0.734-2.334,1.457-4.664,2.206-6.995c0.287-0.876,0.632-1.742,1.159-2.551
		c0,0.269,0.072,0.561-0.014,0.8c-0.888,2.578-1.786,5.16-2.716,7.726c-0.13,0.37-0.415,0.687-0.63,1.027L269.571,276.751z"/>
	<path fill="#DA9876" d="M315.629,311.71c-0.086-1.145-0.179-2.295-0.269-3.447c0.368-0.133,0.736-0.272,1.101-0.405
		c0.1,1.479,0.202,2.964,0.297,4.443C316.387,312.107,316.007,311.911,315.629,311.71z"/>
	<path fill="#E0E2EA" d="M265.565,311.715c0.165,0.868,0.323,1.734,0.524,2.813c-0.617-0.139-1.163-0.265-1.813-0.409
		c0.18-0.894,0.346-1.693,0.504-2.496C265.042,311.655,265.304,311.688,265.565,311.715z"/>
	<path fill="#2C3662" d="M258.132,311.344c-0.102,0-0.204,0-0.3,0.002c0.477-1.423,0.951-2.845,1.427-4.267l0.014,0.01
		C258.893,308.507,258.509,309.925,258.132,311.344z"/>
	<path fill="#2C3662" d="M288.997,237.021c-0.173-0.009-0.349-0.019-0.527-0.028c-0.379-0.497-0.765-0.995-1.151-1.49
		C288.27,235.651,288.881,236.093,288.997,237.021z"/>
	<path fill="#2C3662" d="M285.308,233.83c-0.272-0.063-0.543-0.132-0.814-0.2c0.06-0.119,0.111-0.229,0.171-0.349
		c0.215,0.184,0.439,0.359,0.654,0.535L285.308,233.83z"/>
	<path fill="#2C3662" d="M286.177,234.39c0.246,0.115,0.493,0.221,0.74,0.335c-0.083,0.103-0.167,0.197-0.244,0.301
		c-0.174-0.207-0.342-0.419-0.509-0.622L286.177,234.39z"/>
	<path fill="#D38D64" d="M262.142,311.679c-0.188-0.074-0.381-0.149-0.567-0.227c0.464,0.012,0.927,0.02,1.397,0.03
		C262.697,311.549,262.421,311.614,262.142,311.679z"/>
	<path fill="#2C3662" d="M274.721,246.708c-0.286-0.188-0.575-0.384-0.861-0.571l0.012-0.015c0.408,0.006,0.864-0.05,0.859,0.574
		L274.721,246.708z"/>
	<path fill="#2C3662" d="M264.995,290.205c-0.091,0.385-0.188,0.769-0.286,1.147l-0.014-0.012c0.099-0.378,0.198-0.761,0.29-1.146
		L264.995,290.205z"/>
	<path fill="#2C3662" d="M269.281,277.896c0.091-0.382,0.19-0.767,0.288-1.144l0.008,0.007c-0.096,0.378-0.194,0.764-0.284,1.144
		L269.281,277.896z"/>
	<path fill="#2C3662" d="M259.845,305.377c-0.089,0.284-0.188,0.573-0.285,0.857l-0.011-0.009c0.097-0.285,0.194-0.572,0.284-0.86
		L259.845,305.377z"/>
	<path fill="#2C3662" d="M268.72,279.329c-0.099,0.286-0.195,0.575-0.286,0.86l-0.013-0.011c0.091-0.285,0.189-0.573,0.287-0.859
		L268.72,279.329z"/>
	<path fill="#2C3662" d="M260.119,304.795c0.098-0.285,0.194-0.572,0.286-0.859l0.012,0.011c-0.096,0.286-0.188,0.572-0.285,0.859
		L260.119,304.795z"/>
	<path fill="#2C3662" d="M273.87,264.453c-0.098,0.285-0.195,0.573-0.285,0.859l-0.012-0.012c0.095-0.285,0.188-0.571,0.285-0.858
		L273.87,264.453z"/>
	<path fill="#2C3662" d="M269.293,277.902c-0.097,0.285-0.195,0.568-0.285,0.854l-0.013-0.01c0.091-0.284,0.188-0.568,0.286-0.853
		L269.293,277.902z"/>
	<path fill="#2C3662" d="M259.259,307.079c0.099-0.284,0.195-0.567,0.288-0.852l0.012,0.009c-0.092,0.281-0.189,0.567-0.286,0.853
		L259.259,307.079z"/>
	<path fill="#2C3662" d="M286.165,234.403c-0.193-0.092-0.383-0.191-0.571-0.291l0.009-0.008c0.189,0.098,0.379,0.195,0.575,0.285
		L286.165,234.403z"/>
	<path fill="#2C3662" d="M273.147,266.593c-0.026-0.028-0.088-0.064-0.084-0.084c0.017-0.068,0.058-0.137,0.081-0.211
		c0.033,0.073,0.074,0.143,0.09,0.209C273.241,266.526,273.18,266.563,273.147,266.593z"/>
	<path fill="#2C3662" d="M259.833,305.367c0.099-0.194,0.197-0.383,0.286-0.572l0.013,0.011c-0.091,0.187-0.188,0.376-0.287,0.571
		L259.833,305.367z"/>
	<path fill="#2C3662" d="M274.729,246.696c0.191,0.1,0.377,0.19,0.572,0.288l-0.007,0.011c-0.196-0.098-0.384-0.19-0.574-0.287
		L274.729,246.696z"/>
	<path fill="#2C3662" d="M275.859,247.852c-0.091-0.189-0.189-0.384-0.284-0.571l0.006-0.01c0.099,0.188,0.195,0.385,0.286,0.576
		L275.859,247.852z"/>
	<path fill="#2C3662" d="M273.585,265.313c-0.022,0.123-0.046,0.255-0.07,0.378c-0.041-0.016-0.081-0.027-0.118-0.04
		c0.057-0.114,0.115-0.236,0.177-0.35L273.585,265.313z"/>
	<path fill="#2C3662" d="M268.71,279.319c0.09-0.188,0.188-0.376,0.285-0.572l0.013,0.01c-0.099,0.195-0.196,0.384-0.288,0.572
		L268.71,279.319z"/>
	<path fill="#2C3662" d="M264.709,291.353c-0.024,0.13-0.038,0.254-0.063,0.383c-0.04-0.013-0.081-0.026-0.122-0.04
		c0.062-0.121,0.12-0.235,0.171-0.354L264.709,291.353z"/>
	<path fill="#2C3662" d="M264.286,292.344c0.028,0.069,0.063,0.144,0.076,0.22c0.004,0.02-0.062,0.052-0.097,0.074
		c-0.026-0.069-0.063-0.142-0.076-0.22C264.188,292.399,264.25,292.366,264.286,292.344z"/>
	<path fill="#2C3662" d="M263.846,293.635c0.014-0.132,0.036-0.257,0.06-0.386c0.041,0.013,0.082,0.026,0.123,0.04
		c-0.061,0.12-0.118,0.234-0.174,0.354L263.846,293.635z"/>
	<path fill="#2C3662" d="M289.301,237.289c-0.1-0.102-0.198-0.202-0.304-0.298C289.103,237.087,289.201,237.188,289.301,237.289z"/>
	<path fill="#2C3662" d="M289.356,237.549c-0.078-0.074-0.104-0.166-0.078-0.263C289.303,237.367,289.329,237.459,289.356,237.549z"
		/>
	<path fill="#2C3662" d="M285.594,234.112c-0.099-0.089-0.195-0.185-0.286-0.281l0.011-0.013c0.09,0.099,0.188,0.195,0.284,0.286
		L285.594,234.112z"/>
	<path fill="#2C3662" d="M275.301,246.984c0.092,0.098,0.189,0.188,0.28,0.286l-0.006,0.01c-0.094-0.098-0.191-0.188-0.281-0.285
		L275.301,246.984z"/>
	<path fill="#1E2447" d="M257.839,315.387c0.373,0.393,0.751,0.783,1.121,1.18c1.362,1.652,3.178,2.066,5.122,1.539
		c2.454-0.67,4.847-1.552,7.265-2.343c2.017,0.265,4.059,0.393,6.028,0.86c0.744,0.183,1.489,1.035,1.911,1.768
		c0.52,0.915,0.699,2.023,1.091,3.236c-8.897,0-17.538,0-26.394,0c0.624-2.769,1.242-5.477,1.859-8.185
		C256.507,314.094,257.17,314.737,257.839,315.387z"/>
	<path fill="#1E2447" d="M314.521,311.376c0.082,0.1,0.174,0.21,0.262,0.313C314.694,311.586,314.603,311.476,314.521,311.376z"/>
	<path fill="#C6C6C7" d="M163.105,309.661c0.622,0.524,1.336,0.976,1.838,1.602c0.351,0.433,0.35,1.129-0.293,1.459
		c-0.545,0.279-0.981,0.034-1.269-0.507c-0.493-0.92-1.236-1.524-2.276-1.728C161.771,310.213,162.438,309.936,163.105,309.661z"/>
	<path fill="#D38D64" d="M165.979,145.514c-0.882-0.129-1.788-0.169-2.64-0.41c-1.037-0.295-1.3-1.13-0.646-1.947
		c0.436-0.549,0.95-1.105,1.547-1.447c3.424-1.958,7.045-3.229,11.078-2.911c0.737,0.06,1.514,0.113,1.765,0.897
		c0.276,0.849-0.124,1.64-0.844,2.102c-1.225,0.794-2.473,1.594-3.803,2.18C170.527,144.819,168.361,145.541,165.979,145.514z"/>
	<path fill="#FFFFFF" d="M181.931,148.879c0.41,0.553,0.82,1.106,1.23,1.66c-0.01,0.074-0.015,0.152-0.019,0.228
		c-0.449,0.241-0.897,0.479-1.566,0.834c-0.842-2.798-1.629-5.422-2.445-8.14c0.341-0.142,0.629-0.26,0.919-0.378
		c0.637,0.563,1.271,1.121,1.879,1.662c-0.465,0.652-1.213,1.241-1.255,1.882c-0.043,0.617,0.639,1.285,1.001,1.931
		C181.762,148.667,181.846,148.773,181.931,148.879z"/>
	<path fill="#56BACC" d="M170.944,145.594c-2.465,0.985-4.988,1.21-7.582,0.58C165.941,146.627,168.437,146.057,170.944,145.594z"/>
	<path fill="#D38D64" d="M183.142,150.767c0.004-0.075,0.01-0.153,0.019-0.228c0.732,0,1.465,0.001,2.193,0.002
		c0.934,0,1.872,0,2.806,0.198c-1.548,0.671-3.117,0.266-4.683,0.108C183.366,150.821,183.254,150.793,183.142,150.767z"/>
	<path fill="#D38D64" d="M188.723,145.771c-2.106-0.137-4.211-0.275-6.313-0.412C183.71,144.567,187.889,144.829,188.723,145.771z"
		/>
	<path fill="#D38D64" d="M181.931,148.879c-0.085-0.106-0.169-0.212-0.256-0.321c2.337-0.06,4.676-0.122,7.014-0.181
		C186.489,149.241,184.229,149.294,181.931,148.879z"/>
	<path fill="#C6C6C7" d="M201.737,153.7c-0.095-0.082-0.192-0.16-0.287-0.239C201.545,153.541,201.642,153.619,201.737,153.7z"/>
	<path fill="#E8EAF0" d="M354.128,198.517c-0.136-0.534-0.274-1.065-0.45-1.755c1.041,0,1.988,0,3.042,0
		c0.124,0.491,0.275,1.051,0.456,1.755C356.095,198.517,355.139,198.517,354.128,198.517z"/>
	<path fill="#E8EAF0" d="M349.852,198.566c-0.156-0.601-0.29-1.128-0.464-1.813c1.046,0,1.988,0,2.954,0
		C352.869,198.547,352.64,198.726,349.852,198.566z"/>
	<path fill="#E8EAF0" d="M360.973,196.729c0.584,1.878-0.18,2.157-2.572,1.737c-0.097-0.523-0.201-1.069-0.32-1.737
		C359.071,196.729,360.027,196.729,360.973,196.729z"/>
	<path fill="#E8EAF0" d="M357.894,204.302c-0.385,0.021-0.661,0.042-0.94,0.044c-0.616,0.003-1.232,0.001-1.973,0.001
		c0-0.641,0-1.22,0-1.807C357.097,202.049,357.908,202.495,357.894,204.302z"/>
	<path fill="#E8EAF0" d="M353.573,204.255c-2.744,0.254-2.846,0.201-2.94-1.38C353.253,202.037,353.788,202.271,353.573,204.255z"/>
	<path fill="#FE8486" d="M354.227,199.818c1.105,0,2.057,0,3.09,0c0.058,0.523,0.11,0.981,0.179,1.558c-0.947,0-1.808,0-2.849,0
		C354.541,200.978,354.398,200.462,354.227,199.818z"/>
	<path fill="#E0E2EA" d="M353.001,201.385c-2.381,0.21-3.107,0.378-2.839-1.617c0.531,0,1.084-0.012,1.639,0.002
		C353.095,199.797,353.159,199.884,353.001,201.385z"/>
	<path fill="#E0E2EA" d="M346.028,201.359c0-0.527,0-0.942,0-1.493c0.436-0.037,0.845-0.08,1.251-0.096
		c0.428-0.017,0.851-0.003,1.353-0.003c0.152,0.499,0.289,0.983,0.476,1.592C348.068,201.359,347.123,201.359,346.028,201.359z"/>
	<path fill="#E8EAF0" d="M346.374,202.751c2.489-0.304,3.181-0.241,2.892,1.44C346.475,204.646,346.182,204.21,346.374,202.751z"/>
	<path fill="#E0E2EA" d="M358.714,199.813c1.008,0,1.888,0,2.89,0c0,0.527,0,1.007,0,1.582c-0.842,0-1.67,0-2.604,0
		C358.918,200.93,358.83,200.44,358.714,199.813z"/>
	<path fill="#E8EAF0" d="M224.604,294.781c-0.066,0.104-0.137,0.216-0.204,0.32C224.467,294.997,224.538,294.886,224.604,294.781z"
		/>
	<path fill="#E8EAF0" d="M231.143,296.174c0.363-0.374,0.728-0.753,1.09-1.128c7.704,0.004,15.401,0.004,23.104,0.006
		c0.367,0.377,0.74,0.761,1.114,1.137C248.016,296.183,239.578,296.178,231.143,296.174z"/>
	<path fill="#E8EAF0" d="M226.02,295.064c1.351,0,2.701,0,4.052,0.002c-1.672,1.572-3.34,3.144-5.116,4.813
		C225.069,298.19,225.506,296.621,226.02,295.064z"/>
</g>
<path id="XMLID_3688_" fill="#DFA27E" d="M208.585,85.205c-0.267,0.259-0.541,0.513-0.821,0.757
	c-0.87,0.762-1.798,1.459-2.796,2.045c-0.849,0.498-1.752,0.912-2.692,1.213c-0.854,0.275-1.735,0.457-2.629,0.544
	c-1.107,0.112-2.244,0.08-3.344-0.095c-0.902-0.143-1.792-0.384-2.644-0.721c-0.955-0.374-1.862-0.865-2.717-1.433
	c-1.014-0.677-1.952-1.465-2.832-2.312c-3.733-3.606-3.701-12.712-4.601-12.069c-2.06,1.384-3.379-2.735-3.636-5.181
	c-0.26-2.446,0.857-3.475,1.888-2.446c1.028,1.03,1.041-0.116,1.33-1.458c0.091-0.434,0.204-0.862,0.329-1.287
	c0.192-0.649,0.412-1.289,0.66-1.921c0.305-0.787,0.654-1.557,1.043-2.307c0.442-0.848,0.937-1.669,1.495-2.448
	c0.598-0.838,1.267-1.626,2.003-2.342c0.785-0.757,1.647-1.43,2.58-1.992c1.007-0.603,2.09-1.073,3.219-1.396
	c1.319-0.377,2.668-0.534,4.038-0.534c1.318-0.002,2.64,0.188,3.906,0.561c1.122,0.33,2.196,0.802,3.195,1.411
	c0.927,0.564,1.785,1.24,2.561,1.997c0.736,0.716,1.398,1.505,1.993,2.342c0.551,0.776,1.043,1.594,1.48,2.441
	c0.388,0.748,0.73,1.515,1.035,2.298c0.244,0.628,0.463,1.265,0.65,1.911c0.122,0.417,0.237,0.84,0.328,1.265
	c0.287,1.342,0.3,2.489,1.328,1.458c1.032-1.029,2.146,0,1.889,2.445c-0.257,2.447-1.576,6.566-3.635,5.182
	C212.286,72.492,212.316,81.599,208.585,85.205z"/>
<path id="XMLID_3687_" fill="#1E2447" d="M182.848,49.916c-0.82,1.077-1.565,2.682-1.896,3.994c-0.62,2.432-0.434,5.119-0.112,7.605
	c0.353,2.683,0.713,5.216,1.602,7.77c0.255,0.738,0.776,1.655,1.555,1.664c0.986,0.011,1.131-1.233,1.29-2.408
	c0.458-3.45,1.823-5.975,0.541-9.21c2.362-0.811,4.851-2.55,6.366-4.808c1.559,2.409,5.88,4.578,7.341,4.943
	c3.49,0.87,7.962,1.55,10.723-0.747c-0.686,4.285,0.674,6.253,1.688,10.589c0.034,0.136,0.563,1.142,1.45,1.07
	c0.691-0.054,0.858-0.365,1.033-1.034c0.771-2.989,1.547-5.71,1.684-8.794c0.101-2.234,0.06-4.912-0.622-7.045
	c-1.348-4.217-4.817-7.148-8.802-9.075c-4.689-2.264-11.634-2.427-14.531,2.546c-0.15,0.256-0.299,0.533-0.563,0.669
	c-0.18,0.097-2.897-0.644-4.21-0.439C185.669,47.473,183.819,48.637,182.848,49.916z"/>
<g id="Shape_262">
	<g>
		<path fill="#A0253C" d="M270.734,131.047c-0.021-2.271-0.565-11.827-8.168-13.943c-8.642-2.406-21.926-4.649-24.967,8.66
			c0,0,1.922,10.263-1.92,15.872c-3.844,5.61-23.211,10.264-18.73,22.129c4.481,11.866,9.606,13.469,9.606,13.469
			s0.109-12.699,10.315-15.416c9.036-2.404,12.448-1.709,12.448-1.709l-0.679-20.397l1.442,4.333l5.767-0.962l8.161-8.661
			l6.721-2.887C270.729,131.534,270.737,131.362,270.734,131.047z"/>
	</g>
</g>
<g id="Shape_261">
	<g>
		<path fill="#F3A486" d="M270.729,131.534c0,0-1.368,0-3.198,0c-3.697,0-9.286,0-9.286,0s-0.321-4.807-1.441-4.807
			c0,0,0.799,10.581-7.676,14.909c0,0,3.998-4.168,3.354-6.252c0,0-1.599,3.847-8.64,3.847c0,0-1.123,2.729,4.317,6.738
			c0,0,2.08,8.827-3.361,14.12c0,0,4.807,5.602,13.927,2.714l0.963-9.621c0,0,6.243,1.121,8.641-11.546l-0.954-9.14L270.729,131.534
			z"/>
	</g>
</g>
<path fill="#323F6D" d="M165.712,297.916c1.315-3.157,22.269-16.48,22.269-16.48s1.886-34.159-1.954-29.276
	c-3.839,4.884-31.525,26.581-31.525,26.581"/>
<path fill="#38447A" d="M184.521,242.973c-0.115-3.916-0.96-27.746-0.96-27.746l-0.07-5.656c0,0,12.601,24.924,12.71,29.312
	c0.107,4.39-10.174,13.278-10.174,13.278l1.954,29.275l21.368-18.402c0,0,12.93-13.955,11.875-20.597
	c-1.056-6.649-14.064-71.25-14.064-71.25s-44.021,0.878-52.049-2.298c0,0,0.163,46.431,3.985,71.378l6.18,62.522
	c0,0,16.298-2.615,21.949,1.078c5.646,3.7-1.229,0.088-1.229,0.088"/>
<path fill="#303E6D" d="M330.07,302.415l-16.863,6.562l-24.21-52.764l-33.154-29.979l5.375-15.86c0,0-0.385,7.688,10.928,13.144
	c11.324,5.455,30.039,12.478,31.574,18.577"/>
<path fill="#38447A" d="M230.382,205.721c0,0-9.157,12.67-9.157,24.692s13.177,15.298,25.259,17.813
	c12.087,2.521,25.391,4.921,25.391,4.921l-18.15,58.123l18.15,0.444l17.426-55.027c0,0,10.229-20.489-8.662-25.354
	c-18.892-4.856-23.364-6.078-23.364-6.078s5.137-12.097,3.945-14.884h-23.896c0,0-2.506-1.852-2.011-3.649
	c0.491-1.806-4.109-0.592-4.109-0.592L230.382,205.721z"/>
<path fill="#1A89C1" d="M157.105,133.112c0,0,5.271-29.96,6.257-28.403c1.125,1.786-4.796,29.369-4.796,29.369
	s0.447-1.915-0.041-2.139C158.105,131.748,157.105,133.112,157.105,133.112z"/>
</svg>
