<?xml version="1.0" encoding="utf-8"?>
<!-- Generator: Adobe Illustrator 16.0.0, SVG Export Plug-In . SVG Version: 6.00 Build 0)  -->
<!DOCTYPE svg PUBLIC "-//W3C//DTD SVG 1.1//EN" "http://www.w3.org/Graphics/SVG/1.1/DTD/svg11.dtd">
<svg version="1.1" id="Layer_1" xmlns="http://www.w3.org/2000/svg" xmlns:xlink="http://www.w3.org/1999/xlink" x="0px" y="0px"
	 width="245.31px" height="298px" viewBox="19.345 23.5 245.31 298" enable-background="new 19.345 23.5 245.31 298"
	 xml:space="preserve">
<g id="Layer_82_copy_xA0_Image_1_">
	<path fill="#44C49E" d="M171.541,280.687c-0.131-0.012-0.271-0.021-0.404-0.031c-0.047-0.332-0.18-0.678-0.127-0.993
		c0.144-0.831,0.361-1.65,0.546-2.477l-0.016-0.115c0.094-0.066,0.188-0.137,0.274-0.208c1.241-4.187,3.24-7.917,6.752-10.626
		c1.95-1.507,3.998-2.871,6.056-4.223c3.264-2.156,6.055-4.783,8.353-7.955c1.539-2.113,3.103-4.216,4.83-6.169
		c3.362-3.802,7.761-6.024,12.499-7.528c8.175-2.603,16.473-4.719,25.001-5.825c5.342-0.69,10.629-0.638,15.839,0.711
		c2.425,0.616,4.768,1.514,7.139,2.329c0.712,0.25,1.397,0.626,1.504,1.519c0.108,0.972-0.563,1.48-1.241,1.904
		c-0.585,0.375-1.263,0.592-1.898,0.889c-11.833,5.508-23.64,11.063-35.51,16.485c-3.505,1.596-7.111,3.031-10.791,4.146
		c-4.295,1.298-8.744,1.634-13.259,1.179c-2.998-0.306-6.021-0.326-9.027-0.399c-1.894-0.046-3.748,0.416-5.34,1.371
		c-4.826,2.902-8.133,7.074-9.929,12.429C172.373,278.296,171.961,279.491,171.541,280.687z M248.878,239.77
		c-4.496,0.133-9.003,0.439-13.164,2.258c-2.116,0.915-4.145,2.233-5.893,3.738c-3.067,2.661-5.893,5.601-8.805,8.436
		c-0.361,0.347-0.616,0.809-1.032,1.375c2.071-0.208,28.411-14.272,29.446-15.652C249.225,239.86,249.053,239.764,248.878,239.77z"
		/>
	<path fill="#44C49E" d="M168.827,279.872c-0.004,0.401,0.038,0.849-0.601,0.765c-0.203-0.041-0.41-0.08-0.62-0.121
		c-0.092-1.108-0.193-2.218-0.294-3.331c0.169-5.284-0.291-10.577,0.278-15.865c0.314-2.909,0.926-5.739,1.877-8.502
		c0.245-0.711,0.254-1.311,0.028-2.018c-1.101-3.411-1.607-6.927-1.553-10.503c0.033-1.996,0.129-3.997,0.296-5.986
		c0.348-4.057,1.56-7.775,4.526-10.719c1.866-1.853,3.099-4.063,3.83-6.561c0.37-1.247,0.753-2.504,1.01-3.777
		c1.19-5.924,4.396-10.229,9.938-12.792c1.909-0.886,3.728-1.967,5.562-3.014c2.643-1.519,4.742-3.524,5.774-6.494
		c0.543-1.547,1.646-2.542,3.168-3.188c3.041-1.289,6.224-1.289,9.413-1.094c0.815,0.052,1.823,0.079,2.432,1.037
		c-0.341,0.449-0.682,0.878-0.99,1.321c-5.641,8.148-11.469,16.164-16.864,24.462c-8.094,12.419-15.888,25.027-23.796,37.568
		c-0.976,1.535-1.533,3.238-1.964,5.018c-0.999,4.056-1.058,8.22-1.392,12.339c-0.229,2.902-0.044,5.832-0.043,8.75
		C168.841,278.071,168.836,278.97,168.827,279.872z M200.087,194.238c-2.358,1.991-3.849,4.715-4.947,7.596
		c-0.751,1.953-1.298,3.983-2.022,5.943c-0.556,1.499-1.257,2.945-1.889,4.403c-0.2,0.456-0.408,0.897-0.733,1.621
		c1.316-0.486,1.901-1.37,2.531-2.202c1.354-1.783,2.666-3.609,4.067-5.361c1.207-1.509,2.799-2.794,3.714-4.456
		c1.11-2.025,2.774-3.497,4.15-5.248c1.367-1.736,2.709-3.495,4.048-5.26c0.255-0.332,0.409-0.749,0.612-1.131
		c-0.088-0.074-0.184-0.156-0.28-0.239C206.016,190.83,202.752,191.999,200.087,194.238z"/>
	<path fill="#FDB3B3" d="M168.227,280.637c-0.203-0.041-0.41-0.08-0.62-0.121c-2.805-0.146-5.616-0.214-8.406-0.488
		c-1.417-0.139-2.799-0.66-4.195-1.004c0.213,2.27,0.426,4.539,0.653,6.807c0.055,0.645,0.14,1.286,0.215,1.928
		c0.455,2.055,0.981,4.102,1.358,6.18c0.499,2.77,0.886,5.558,1.313,8.337c0.113,0.606,0.194,1.222,0.344,1.816
		c0.063,0.229,0.29,0.415,0.445,0.629c0.454-0.272,1.001-0.452,1.354-0.823c2.452-2.596,4.87-5.236,7.296-7.865
		c0.342-0.362,0.696-0.714,1.033-1.088c1.263-1.385,2.511-2.772,3.747-4.139c1.22,0.773,1.63,1.766,1.529,3.027
		c-0.058,0.701,0.069,1.417-0.028,2.106c-0.249,1.641-0.234,3.356-1.172,4.832c-0.43,2.117-0.789,4.248-1.294,6.35
		c-0.695,2.952-0.013,6.832,3.477,8.37c0.126,0.054,0.215,0.173,0.386,0.305c-0.43,0.047-0.776,0.085-1.117,0.122
		c0.224,0.084,0.461,0.263,0.664,0.229c2.123-0.341,4.397-0.131,6.18-1.693c0.104-0.089,0.282-0.082,0.431-0.118
		c1.207-1.363,2.581-2.593,3.263-4.343c0.337-0.854,0.653-1.715,0.979-2.574c0.475-2.688,0.991-5.37,1.419-8.067
		c0.383-2.458,0.666-4.925,0.994-7.387c0.108-0.788,0.224-1.579,0.327-2.366c0.089-0.399,0.177-0.799,0.256-1.201
		c0.272-2.559,0.544-5.118,0.819-7.675c0.056-0.522,0.35-1.089-0.323-1.431c-1.028,0.211-2.038,0.496-3.076,0.624
		C180.42,280.699,174.322,280.776,168.227,280.637z"/>
	<path fill="#1E2447" d="M168.227,280.637c6.096,0.14,12.193,0.063,18.25-0.721c1.038-0.128,2.048-0.413,3.075-0.624
		c0.381-0.742-0.188-0.888-0.667-0.982c-1.47-0.279-2.939-0.647-4.418-0.729c-3.894-0.23-7.785-0.326-11.676-0.481
		c-0.419,1.197-0.83,2.395-1.25,3.588c-0.131-0.01-0.271-0.02-0.404-0.029c-0.047-0.332-0.18-0.678-0.127-0.993
		c0.144-0.832,0.361-1.651,0.546-2.477c-0.907-0.005-1.804-0.013-2.708-0.018c-0.007,0.901-0.012,1.8-0.02,2.702
		C168.823,280.273,168.865,280.721,168.227,280.637z"/>
	<path fill="#E8EAF0" d="M189.058,288.396c-0.08,0.403-0.168,0.801-0.257,1.2"/>
	<path fill="#1E2447" d="M155.005,279.023c1.396,0.344,2.776,0.865,4.195,1.004c2.79,0.274,5.602,0.342,8.406,0.488
		c-0.092-1.108-0.193-2.218-0.294-3.331c-3.586,0.312-7.171,0.604-10.761,0.951C155.963,278.193,155.21,278.195,155.005,279.023z"/>
	<path fill="#8CADD9" d="M171.54,277.072c0.094-0.066,0.188-0.137,0.274-0.208C171.728,276.936,171.635,277.006,171.54,277.072z"/>
	<path fill="#C6C6C7" d="M112.221,313.958c0.092,0.607,0.19,1.208,0.281,1.811c-0.029,0.348-0.058,0.695-0.099,1.202
		c-7.517,0-15.001,0.048-22.484-0.013c-7.483-0.059-14.966-0.215-22.629-0.335c-0.134-0.45-0.285-0.953-0.435-1.457
		c0.109-0.302,0.215-0.608,0.318-0.913c7.429-0.083,14.861-0.188,22.289-0.231C97.048,313.972,104.636,313.976,112.221,313.958z"/>
	<path fill="#FE8486" d="M162.206,312.52c0.73,0.697,1.449,1.401,2.18,2.1c2.573,1.456,5.399,1.3,8.201,1.283
		c0.647-0.003,1.304,0.011,1.958,0.017c0.341-0.038,0.688-0.076,1.117-0.123c-0.172-0.132-0.262-0.252-0.386-0.306
		c-3.489-1.538-4.172-5.418-3.477-8.368c0.504-2.104,0.864-4.233,1.293-6.351c-0.364,0.116-0.83,0.129-1.063,0.368
		c-1.168,1.201-2.193,2.549-3.427,3.661c-1.02,0.913-1.451,2.231-2.611,3.069c-0.851,0.616-1.676,1.451-2.205,2.484
		c-0.194,0.36-0.738,0.53-0.995,0.876C162.52,311.602,162.4,312.084,162.206,312.52z"/>
	<path fill="#3C477A" d="M111.569,298.255c-0.002,0.56-0.037,1.12,0,1.675c0.079,1.252,0.19,2.506,0.293,3.751
		c0.121,3.426,0.24,6.852,0.359,10.277c-7.585,0.019-15.172,0.014-22.757,0.063c-7.428,0.044-14.859,0.149-22.289,0.231
		c-0.025-2.377,1.042-3.904,3.356-4.248c2.889-0.432,5.742-0.926,8.44-2.06c2.125-0.894,4.22-1.854,6.326-2.791
		c1.095,0.215,1.878,0.853,2.399,1.823c0.306,0.57,0.763,0.83,1.34,0.535c0.677-0.349,0.677-1.083,0.31-1.54
		c-0.529-0.658-1.283-1.137-1.94-1.692c0.425-0.391,0.853-0.778,1.277-1.172c0.082,0.005,0.162-0.013,0.236-0.05
		c0.871,0.344,1.561,0.879,1.933,1.771c0.22,0.522,0.654,0.929,1.146,0.558c0.297-0.217,0.541-0.987,0.383-1.242
		c-0.453-0.736-1.126-1.33-1.711-1.976c0.416-0.331,0.831-0.667,1.246-1.002c0.948,0.229,1.742,0.685,2.273,1.549
		c0.338,0.553,0.846,0.95,1.477,0.523c0.622-0.426,0.474-1.108,0.095-1.591c-0.54-0.667-1.212-1.23-1.842-1.856
		c0.365-0.615,0.365-0.615,0.025-1.481c0.647-0.121,1.288-0.249,1.933-0.371c1.798,0.061,3.599,0.159,5.399,0.187
		c3.062,0.046,6.121,0.048,9.183,0.053c0.132,0,0.266-0.142,0.396-0.217C111.092,298.061,111.33,298.162,111.569,298.255z"/>
	<path fill="#3C477A" d="M144.633,299.796c-0.002,0.559-0.036,1.119,0,1.674c0.075,1.254,0.19,2.499,0.296,3.753
		c0.115,3.426,0.238,6.846,0.353,10.27c-7.585,0.019-15.169,0.013-22.754,0.063c-7.428,0.051-14.86,0.157-22.288,0.231
		c-0.025-2.369,1.04-3.906,3.356-4.248c2.889-0.424,5.738-0.918,8.438-2.052c2.125-0.894,4.219-1.864,6.324-2.796
		c1.099,0.22,1.882,0.854,2.4,1.82c0.307,0.573,0.767,0.829,1.344,0.534c0.677-0.347,0.677-1.078,0.31-1.531
		c-0.53-0.66-1.283-1.137-1.942-1.692c0.426-0.393,0.851-0.788,1.275-1.173c0.086,0.006,0.162-0.012,0.24-0.051
		c0.871,0.346,1.561,0.88,1.933,1.774c0.22,0.522,0.65,0.919,1.146,0.557c0.297-0.223,0.541-0.996,0.38-1.251
		c-0.454-0.728-1.125-1.32-1.712-1.973c0.415-0.333,0.833-0.667,1.25-0.996c0.948,0.23,1.739,0.676,2.269,1.54
		c0.342,0.552,0.847,0.959,1.481,0.524c0.621-0.418,0.474-1.108,0.091-1.583c-0.536-0.676-1.208-1.238-1.842-1.856
		c0.37-0.615,0.37-0.615,0.028-1.481c0.647-0.13,1.288-0.249,1.93-0.379c1.802,0.067,3.603,0.167,5.4,0.188
		c3.064,0.044,6.125,0.046,9.189,0.05c0.126,0,0.262-0.133,0.388-0.208C144.152,299.604,144.393,299.695,144.633,299.796z"/>
	<path fill="#D38D64" d="M110.854,297.963c-0.13,0.073-0.264,0.215-0.396,0.215c-3.062-0.005-6.121-0.007-9.182-0.053
		c-1.8-0.026-3.602-0.125-5.399-0.187c0.328-0.687,0.657-1.373,0.988-2.054c1.819,0.187,3.643,0.336,5.453,0.577
		c2.651,0.357,5.296,0.773,7.939,1.187C110.463,297.68,110.654,297.858,110.854,297.963z"/>
	<path fill="#2C3662" d="M96.865,295.887c-0.331,0.679-0.661,1.367-0.988,2.054c-0.646,0.12-1.287,0.25-1.934,0.37
		c-0.875-0.094-1.753-0.193-2.632-0.296c-0.262-0.455-1.268-0.026-1.144-0.944C92.33,296.259,94.525,295.679,96.865,295.887z"/>
	<path fill="#39B691" d="M249.431,239.924c-0.206-0.063-0.378-0.16-0.553-0.154c-4.496,0.133-9.003,0.439-13.164,2.258
		c-2.116,0.915-4.145,2.233-5.893,3.738c-3.067,2.661-5.893,5.601-8.805,8.436c-0.361,0.347-0.616,0.809-1.032,1.375
		C222.055,255.368,248.396,241.304,249.431,239.924z"/>
	<path fill="#39B691" d="M209.338,189.903c-3.322,0.927-6.586,2.096-9.251,4.335c-2.358,1.991-3.849,4.715-4.947,7.596
		c-0.751,1.953-1.298,3.983-2.022,5.943c-0.556,1.499-1.257,2.945-1.889,4.403c-0.2,0.456-0.408,0.897-0.733,1.621
		c1.316-0.486,1.901-1.37,2.531-2.202c1.354-1.783,2.666-3.609,4.067-5.361c1.207-1.509,2.799-2.794,3.714-4.456
		c1.11-2.025,2.774-3.497,4.15-5.248c1.367-1.736,2.709-3.495,4.048-5.26c0.255-0.332,0.409-0.749,0.612-1.131
		C209.53,190.069,209.435,189.986,209.338,189.903z"/>
	<path fill="#FE9395" d="M162.206,312.52c0.194-0.438,0.313-0.918,0.584-1.289c0.256-0.346,0.8-0.516,0.994-0.876
		c0.529-1.033,1.355-1.868,2.205-2.484c1.161-0.838,1.593-2.156,2.611-3.069c1.234-1.112,2.26-2.461,3.429-3.661
		c0.233-0.239,0.699-0.254,1.063-0.368c0.937-1.477,0.923-3.192,1.171-4.832c0.1-0.688-0.029-1.405,0.03-2.105
		c0.099-1.264-0.312-2.255-1.529-3.027c-1.237,1.366-2.485,2.754-3.747,4.139c-0.339,0.372-0.691,0.724-1.033,1.088
		c-2.427,2.628-4.845,5.27-7.298,7.863c-0.352,0.371-0.898,0.551-1.352,0.823c0.246,1.364,0.438,2.741,0.757,4.089
		C160.428,310.237,161.201,311.457,162.206,312.52z"/>
	<path fill="#C6C6C7" d="M91.313,298.017c0.878,0.102,1.757,0.2,2.632,0.295c0.339,0.866,0.339,0.866-0.025,1.481
		c0.629,0.626,1.303,1.189,1.842,1.856c0.378,0.481,0.526,1.165-0.095,1.591c-0.631,0.427-1.139,0.029-1.477-0.523
		c-0.531-0.864-1.325-1.317-2.273-1.549c0.355-0.488,0.547-0.932,0.093-1.53C91.668,299.174,91.537,298.559,91.313,298.017z"/>
	<path fill="#C6C6C7" d="M90.669,302.17c0.584,0.645,1.258,1.237,1.711,1.974c0.157,0.257-0.088,1.027-0.383,1.244
		c-0.492,0.37-0.926-0.035-1.146-0.558c-0.371-0.895-1.062-1.429-1.933-1.773C89.502,302.762,90.087,302.467,90.669,302.17z"/>
	<path fill="#C6C6C7" d="M87.406,304.28c0.658,0.555,1.413,1.032,1.94,1.692c0.366,0.457,0.366,1.191-0.31,1.54
		c-0.577,0.295-1.033,0.035-1.339-0.535c-0.521-0.971-1.305-1.609-2.4-1.824C86,304.86,86.704,304.57,87.406,304.28z"/>
</g>
<g id="Group_40_1_">
	<g id="Layer_83_xA0_Image_1_">
	</g>
	<g id="Layer_83_copy_xA0_Image_1_">
	</g>
	<g id="Shape_408">
		<g>
			<path fill="#38447A" d="M139.272,164.233H89.929c0,0-3.98,115.517,2.388,131.453c6.368,15.929,19.103,0.395,22.284,0
				c0,0-3.98-90.824-0.793-90.824c3.181,0,9.549,96.399,9.549,96.399l17.51-0.795l3.98-0.803
				C144.846,299.664,136.884,178.974,139.272,164.233z"/>
		</g>
	</g>
	<g id="Shape_18_copy_2">
		<g>
			<polygon fill="#189CFF" points="51.091,106.258 37.407,104.894 47.67,126.489 61.354,124.428 			"/>
		</g>
	</g>
	<g id="Shape_9_copy">
		<g>
			<path fill="#D50C29" d="M91.35,106.88l-5.752,30.495l-7.19-8.715l-1.438,17.428c0,0,12.221,16.703,15.819,11.618
				c3.593-5.087,4.312-33.404,4.312-33.404L91.35,106.88z"/>
		</g>
	</g>
	<g id="Shape_10_copy">
		<g>
			<path fill="#E0A17E" d="M65.462,119.944c-3.234-1.444-5.751-1.444-5.751-1.444l-4.312-5.811l4.312,10.164l-1.439,1.449H48.207
				c0,0-4.673-3.627-1.437-4.358c3.235-0.719-1.439-10.887-4.316-11.611c-2.874-0.729-6.472,4.357-5.752,7.261
				c0.719,2.906,5.394,9.437,8.629,10.159c3.235,0.732,10.067,1.459,10.067,1.459l21.571,18.875l1.438-15.976
				C78.407,130.112,68.698,121.399,65.462,119.944z"/>
		</g>
	</g>
	<g id="Shape_265">
		<g>
			<polygon fill="#D50C29" points="66.785,119.768 59.824,129.054 79.686,149.174 81.547,133.33 			"/>
		</g>
	</g>
	<g id="Shape_7_copy">
		<g>
			<path fill="#DB3737" d="M155.842,115.205l-16.343-27.982l-14.713-10.271l-14.715,2.287c0,0-10.752,1.71-15.844,10.271
				c-5.092,8.559-4.526,76.364-4.526,76.364s7.354,6.844,22.634,5.705c15.281-1.139,28.087-8.265,28.087-8.265l-2.215-43.408
				l9.625,13.142L155.842,115.205z"/>
		</g>
	</g>
	<g id="Shape_264">
		<g>
			<path fill="#E0A17E" d="M178.034,80.551c0,0,1.597-5.812-0.059-6.058c-1.661-0.244-3.058-2.13-8.5,8.827
				c0,0-1.37,6.518-5.594,3.206c0,0-7.046-4.734-4.81-1.718c2.242,3.02,4.563,9.746,6.4,11.024c1.827,1.279,6.466,1.962,7.946,1.174
				c0,0,4.91,1.06,6.451-15.178C179.87,81.827,180.053,78.497,178.034,80.551z"/>
		</g>
	</g>
	<g id="Shape_263">
		<g>
			<path fill="#DB3737" d="M165.466,96.325l-6.943,24.939l-3.852-7.795l-6.99,18.839c0,0,11.875,15.195,19.323,2.986l7.711-38.97
				H165.466L165.466,96.325z"/>
		</g>
	</g>
	<g id="Shape_6_copy">
		<g>
			<path fill="#C8172A" d="M123.653,76.952l-1.132,2.287c0,0-2.83,5.42-9.056,5.703c-6.226,0.287-6.791-4.561-6.791-4.561h-2.265
				c0,0-4.811,9.988,7.922,9.13c12.734-0.857,14.714-9.13,14.714-9.13L123.653,76.952z"/>
		</g>
	</g>
	<g id="Shape_268">
		<g>
			<path fill="#CA8863" d="M121.907,71.84l-14.063,4.701l-1.563,4.7c6.771,9.398,18.752-3.133,18.752-3.133
				C121.387,76.019,121.907,71.84,121.907,71.84z"/>
		</g>
	</g>
	<g id="Shape_267">
		<g>
			<path d="M104.561,33.242c-8.021-1.116-7.657,8.917-7.657,8.917c0,8.174,6.564,32.325,6.564,32.325
				c1.823,4.831,13.127,5.575,19.689-2.229c6.566-7.803,6.566-31.212,6.566-31.212C117.687,17.263,104.561,33.242,104.561,33.242z"
				/>
		</g>
	</g>
	<g id="Shape_266">
		<g>
			<path fill="#E0A17E" d="M125.347,42.158c-13.127,0.742-17.503-4.46-17.503-4.46h-3.283c0.367,3.718-5.469,10.033-5.469,10.033
				c0.363,7.06,3.284,14.49,3.284,14.49c2.186,1.488,6.562-4.457,6.562-4.457c2.189,4.831,6.565,1.114,6.565,1.114
				c2.552-1.114,5.469,3.343,5.469,3.343c4.375,2.603,5.106-0.741,6.561-8.916C128.992,45.129,125.347,42.158,125.347,42.158z"/>
		</g>
	</g>
</g>
</svg>
