<?xml version="1.0" encoding="utf-8"?>
<!-- Generator: Adobe Illustrator 23.0.3, SVG Export Plug-In . SVG Version: 6.00 Build 0)  -->
<svg version="1.1" id="Layer_1" xmlns="http://www.w3.org/2000/svg" xmlns:xlink="http://www.w3.org/1999/xlink" x="0px" y="0px"
	 viewBox="0 0 446.5 368.5" style="enable-background:new 0 0 446.5 368.5;" xml:space="preserve">
<style type="text/css">
	.st0{fill:#348FE7;}
	.st1{fill:#FFFFFF;}
	.st2{fill:#699E18;}
	.st3{fill:#CF805F;}
	.st4{fill:#413555;}
	.st5{font-family:'Montserrat-Regular';}
	.st6{font-size:15.15px;}
	.st7{fill:#C77755;}
	.st8{fill:#2B203B;}
	.st9{fill:#78AA2A;}
	.st10{fill-rule:evenodd;clip-rule:evenodd;fill:#413555;}
	.st11{fill:#815660;}
	.st12{fill:#554969;}
</style>
<title>Artboard 5</title>
<g id="Shape_687_copy_2">
	<g id="Rounded_Rectangle_586-3">
		<path class="st0" d="M398,107H56c-11,0-20,9-20,20s9,20,20,20h342c11,0,20-9,20-20S409,107,398,107z"/>
	</g>
	<g id="Rounded_Rectangle_586-4">
		<path class="st1" d="M296,113H61c-8.3,0-15,6.7-15,15s6.7,15,15,15h235c8.3,0,15-6.7,15-15S304.3,113,296,113z"/>
	</g>
	<g id="Shape_679_copy_2-2">
		<path class="st2" d="M262.8,132.2c0,0-25.6,14.6-29.2-7.3c0,0,3,65.7,16.4,51.2s23.7-38.4,23.7-38.4S268.3,129.2,262.8,132.2z"/>
	</g>
	<g id="Shape_681_copy_2-2">
		<path class="st3" d="M287.5,116.6c-9.2-3.7-21.9,12.8-21.9,12.8l9.1,7.3l5.5-7.3l5.5-1.8v-5.5c0,0,3.7,1.9,10.9,1.8
			S296.7,120.3,287.5,116.6z"/>
	</g>
	<g id="Shape_682_copy_2-2">
		<path d="M203.6,187.9l-58.4-14.6c-32.3-11-10.9,95-10.9,95c-56-14.6-38.3,22-38.3,22l1.8,16.5c102.1,37.1,98.5-64,98.5-64
			c2.4,21.3,36.5,23.8,36.5,23.8c11.5,40.2,23.7,49.4,23.7,49.4h14.6C306.3,227.4,203.6,187.9,203.6,187.9z"/>
	</g>
	<g id="Ellipse_585-2">
		<circle class="st4" cx="296.3" cy="128.9" r="15.5"/>
	</g>
	<g id="Rounded_Rectangle_587-2">
		<path class="st4" d="M312,71h-30c-2.8,0-5,2.2-5,5v14c0,2.8,2.2,5,5,5h9.6c1.8,0,3.6,9,5.5,9c1.4,0,2.7-9,4-9H312c2.8,0,5-2.2,5-5
			V76C317,73.2,314.8,71,312,71z"/>
	</g>
	<text transform="matrix(0.9901 0 0 1 284.0601 86.7002)" class="st1 st5 st6">7</text>
	<text transform="matrix(0.9901 0 0 1 292.6099 86.7002)" class="st1 st5 st6">5</text>
	<text transform="matrix(0.9901 0 0 1 300.9502 86.7002)" class="st1 st5 st6">%</text>
	<g id="Shape_584-3">
		<path class="st7" d="M268,104c-13.8,1.1-1,23-1,23s-4.2,9.9,3,6s18.8-15.1,25-23S281.8,102.9,268,104z"/>
	</g>
	<g id="Shape_683_copy_2-2">
		<path class="st8" d="M298.5,315.8c-6.1-13.5-27.4-1.8-27.4-1.8c-5.5-0.7-11-0.7-16.4,0c-9.2,1.2-5.4,29.9-5.5,25.6s0-3,23.7-3.7
			S304.6,329.3,298.5,315.8z"/>
	</g>
	<g id="Shape_684_copy_2-2">
		<path class="st8" d="M103.3,299.4l-5.5-14.6c0,0-1.3-20.2-14.6-12.8s-45,40.1-10.9,53s18.8-0.1,20.1-11S103.3,299.4,103.3,299.4z"
			/>
	</g>
	<g id="Shape_685_copy_2-2">
		<path d="M231.3,42.3c-14.4,15.4-15.9,45.3-0.6,40.5s29.7-27.5,29.7-27.5S245.7,26.9,231.3,42.3z"/>
	</g>
	<g id="Shape_677_copy_2-2">
		<path class="st9" d="M263,116.8c0,0-27.8,97.8-26.6,7.1l1.8-16.4c0,0,0-28.7-18.2-20.1S86.2,130,128.8,166s63.2,18.8,71.2,21.9
			s14.6-20.1,14.6-20.1s42.1,86.1,53.6-16l9.1-16.4L263,116.8z"/>
	</g>
	<g id="Shape_678_copy_2-2">
		<path class="st3" d="M258.9,56.4c-9.9-11-10.7,21.7-18.4,15.1s-13.9,12-13.9,12l-0.7,11.7l13.6,19.5l7.8-14.4c0,0-4.5-6.5,8.5-3.7
			C268.8,99.2,268.9,67.3,258.9,56.4z"/>
	</g>
	<g id="Ellipse_51_copy_10-2">
		<path class="st10" d="M235.9,57.2c0.4-2.4,2.7-4,5.1-3.6c0,0,0,0,0,0l29,5.5c0.2-0.6,0.3-1.2,0.4-1.7c3.4-17.4-8.7-34.3-26.8-37.8
			s-35.6,7.9-39,25.3S213,78.9,231,82.6L235.9,57.2z"/>
	</g>
	<g id="Rounded_Rectangle_67_copy_10-2">
		<path class="st11" d="M275.1,55.5l-44.4-8.4c-2.4-0.4-4.7,1.2-5.1,3.6l-1.3,7c-0.5,2.4,1,4.7,3.4,5.2c0,0,0,0,0,0l44.4,8.4
			c2.4,0.4,4.7-1.2,5.1-3.6l1.4-7C279,58.3,277.5,56,275.1,55.5C275.1,55.5,275.1,55.5,275.1,55.5z"/>
	</g>
	<g id="Rounded_Rectangle_69_copy_10-4">
		<path class="st4" d="M218.4,83.1c-5.1-14.5-23-18.9-40-9.7l-56.8,30.6c-17,9.2-26.7,28.4-21.7,42.9s23,18.9,40,9.7l56.8-30.6
			C213.7,116.8,223.4,97.6,218.4,83.1z"/>
	</g>
	<g id="Rounded_Rectangle_69_copy_10-5">
		<path class="st12" d="M207.5,76.5c-2.6-7.5-11.8-9.7-20.5-5l-29.1,15.8c-8.7,4.7-13.7,14.6-11.1,22s11.8,9.7,20.5,5l29.1-15.7
			C205.1,93.8,210.1,83.9,207.5,76.5z"/>
	</g>
	<g id="Rounded_Rectangle_69_copy_10-6">
		<path class="st12" d="M139.7,108.2c-2.6-7.4-11.8-9.7-20.5-5l0.3-1.5c-8.7,4.7-13.7,14.6-11.2,22s11.8,9.7,20.5,5l-0.3,1.5
			C137.3,125.5,142.3,115.6,139.7,108.2z"/>
	</g>
	<g id="Shape_687_copy_2-2">
		<path class="st4" d="M216.4,169.6c-18.7,0.4-36.5-34.7-36.5-34.7l-7.3,5.5c16,42.4,47.4,36.6,47.4,36.6L216.4,169.6z"/>
	</g>
</g>
</svg>
