<?xml version="1.0" encoding="iso-8859-1"?>
<!-- Generator: Adobe Illustrator 19.0.0, SVG Export Plug-In . SVG Version: 6.00 Build 0)  -->
<svg xmlns="http://www.w3.org/2000/svg" xmlns:xlink="http://www.w3.org/1999/xlink" version="1.1" id="Capa_1" x="0px" y="0px" viewBox="0 0 508.1 508.1" style="enable-background:new 0 0 508.1 508.1;" xml:space="preserve" width="512px" height="512px">
<g>
	<g>
		<path d="M409.7,227.45V2.05l-47.5,19.8l-39.4-16.3l-39.3,16.4l-39.3-16.4l-39.3,16.4l-39.4-16.4l-39.3,16.4L86.8,5.55l-39.3,16.3    L0,2.15v446.5c0,31.6,25.7,57.4,57.4,57.4h393.3c31.6,0,57.4-25.7,57.4-57.4v-221.2H409.7z M57.4,489.55v0.1    c-22.6,0-41-18.4-41-41v-422l31.1,13l39.3-16.4l39.3,16.4l39.3-16.4l39.3,16.4l39.3-16.4l39.3,16.4l39.3-16.4l39.3,16.4l31.1-13    v200.7v122.9v98.3c0,16,6.6,30.5,17.3,41H57.4z M450.6,489.65c-22.6,0-41-18.4-41-41v-98.3v-106.5h81.9v204.8h0.1    C491.6,471.25,473.2,489.65,450.6,489.65z" fill="#1468C6"/>
	</g>
</g>
<g>
	<g>
		<rect x="122.9" y="325.75" width="16.4" height="57.4" fill="#1468C6"/>
	</g>
</g>
<g>
	<g>
		<rect x="163.9" y="292.95" width="16.4" height="90.1" fill="#1468C6"/>
	</g>
</g>
<g>
	<g>
		<rect x="204.8" y="309.35" width="16.4" height="73.7" fill="#1468C6"/>
	</g>
</g>
<g>
	<g>
		<rect x="245.8" y="276.55" width="16.4" height="106.5" fill="#1468C6"/>
	</g>
</g>
<g>
	<g>
		<rect x="286.8" y="260.15" width="16.4" height="122.9" fill="#1468C6"/>
	</g>
</g>
<g>
	<g>
		<polygon points="264.2,213.85 212.6,272.75 172.1,232.25 100.7,303.55 112.3,315.15 172.1,255.35 213.4,296.75 276.6,224.65   " fill="#1468C6"/>
	</g>
</g>
<g>
	<g>
		<rect x="163.9" y="71.75" width="196.6" height="16.4" fill="#1468C6"/>
	</g>
</g>
<g>
	<g>
		<rect x="163.9" y="129.05" width="196.6" height="16.4" fill="#1468C6"/>
	</g>
</g>
<g>
	<g>
		<path d="M49.2,71.75v73.7h81.9v-73.7H49.2z M114.7,129.05H65.5v-41h49.2V129.05z" fill="#1468C6"/>
	</g>
</g>
<g>
	<g>
		<rect x="49.2" y="448.65" width="16.4" height="16.4" fill="#1468C6"/>
	</g>
</g>
<g>
	<g>
		<rect x="81.9" y="448.65" width="16.4" height="16.4" fill="#1468C6"/>
	</g>
</g>
<g>
	<g>
		<rect x="114.7" y="448.65" width="16.4" height="16.4" fill="#1468C6"/>
	</g>
</g>
<g>
	<g>
		<rect x="147.5" y="448.65" width="16.4" height="16.4" fill="#1468C6"/>
	</g>
</g>
<g>
	<g>
		<rect x="180.3" y="448.65" width="16.4" height="16.4" fill="#1468C6"/>
	</g>
</g>
<g>
	<g>
		<rect x="213" y="448.65" width="16.4" height="16.4" fill="#1468C6"/>
	</g>
</g>
<g>
	<g>
		<rect x="245.8" y="448.65" width="16.4" height="16.4" fill="#1468C6"/>
	</g>
</g>
<g>
	<g>
		<rect x="278.6" y="448.65" width="16.4" height="16.4" fill="#1468C6"/>
	</g>
</g>
<g>
	<g>
		<rect x="311.4" y="448.65" width="16.4" height="16.4" fill="#1468C6"/>
	</g>
</g>
<g>
	<g>
		<rect x="344.1" y="448.65" width="16.4" height="16.4" fill="#1468C6"/>
	</g>
</g>
<g>
	<g>
		<path d="M73.7,186.45v229.4h262.2v-229.4H73.7z M319.5,399.45H90.1v-196.6h229.4V399.45z" fill="#1468C6"/>
	</g>
</g>
<g>
</g>
<g>
</g>
<g>
</g>
<g>
</g>
<g>
</g>
<g>
</g>
<g>
</g>
<g>
</g>
<g>
</g>
<g>
</g>
<g>
</g>
<g>
</g>
<g>
</g>
<g>
</g>
<g>
</g>
</svg>
