<?xml version="1.0" encoding="utf-8"?>
<!-- Generator: Adobe Illustrator 16.0.0, SVG Export Plug-In . SVG Version: 6.00 Build 0)  -->
<!DOCTYPE svg PUBLIC "-//W3C//DTD SVG 1.1//EN" "http://www.w3.org/Graphics/SVG/1.1/DTD/svg11.dtd">
<svg version="1.1" id="Group_31_1_" xmlns="http://www.w3.org/2000/svg" xmlns:xlink="http://www.w3.org/1999/xlink" x="0px"
	 y="0px" width="388px" height="386px" viewBox="0 0 388 386" enable-background="new 0 0 388 386" xml:space="preserve">
<g id="Shape_371">
	<g>
		<polygon fill="#AFA6B3" points="337.758,109.004 322.074,93.273 131.267,213.873 45.011,187.655 47.625,282.038 120.812,318.742 
			139.108,297.317 131.267,232.226 		"/>
	</g>
</g>
<g id="Shape_370">
	<g>
		<polygon fill="#E3E6EC" points="123.425,232.226 123.425,318.742 335.144,185.034 337.758,106.381 		"/>
	</g>
</g>
<g id="Shape_345">
	<g>
		<polygon fill="#FFFFFF" points="261.957,61.813 45.011,185.034 123.425,229.604 340.371,101.138 		"/>
	</g>
</g>
<g id="Shape_368_copy">
	<g>
		<path fill="#9BA4B6" d="M197.504,124.334l-36.429,30.034l-3.312,3.337c0,0,29.391,16.269,33.117,20.023
			c3.726,3.754,41.397-33.372,43.052-36.71C235.588,137.682,197.504,124.334,197.504,124.334z"/>
	</g>
</g>
<g id="Shape_368">
	<g>
		<path fill="#837E93" d="M200.624,121.185l-36.429,30.036l-3.312,3.336c0,0,29.392,16.269,33.117,20.024
			c3.726,3.754,41.396-33.373,43.052-36.711C238.709,134.534,200.624,121.185,200.624,121.185z"/>
	</g>
</g>
<g id="Shape_369">
	<g>
		<polygon fill="#C9C8CB" points="200.624,124.522 167.507,154.557 180.753,161.231 213.871,131.196 		"/>
	</g>
</g>
<g id="Shape_346">
	<g>
		<polygon fill="#E3E6EC" points="45.011,187.655 45.011,287.281 120.812,323.986 120.812,232.226 		"/>
	</g>
</g>
<g id="Shape_349">
	<g>
		<path fill="#E7AB7E" d="M316.848,145.707l-2.614-18.352l-23.524-2.621c0,0-4.854,24.344,0,26.217
			c4.854,1.872,10.455,2.622,10.455,2.622l5.229,5.244l13.068-2.623L316.848,145.707z"/>
	</g>
</g>
<g id="Shape_350">
	<g>
		<path fill="#C7C7D3" d="M319.461,174.547c-1.494,5.993-20.91,76.03-20.91,76.03s10.828,1.124,13.068-2.622
			c2.24-3.745,13.069-14.232,18.297-36.703c5.228-22.474,13.069-62.923,13.069-62.923S320.955,168.555,319.461,174.547z"/>
	</g>
</g>
<g id="Shape_352">
	<g>
		<path fill="#C7C7D3" d="M293.322,253.198c-16.43,10.113-73.186-13.108-73.186-13.108v5.243
			c47.422,20.227,71.692,12.735,75.8,10.488S293.322,253.198,293.322,253.198z"/>
	</g>
</g>
<g id="Ellipse_30">
	<g>
		<ellipse fill="#393050" cx="276.947" cy="318.053" rx="3.921" ry="3.933"/>
	</g>
</g>
<g id="Ellipse_30_copy">
	<g>
		<ellipse fill="#393050" cx="218.83" cy="301.701" rx="3.922" ry="3.933"/>
	</g>
</g>
<g id="Ellipse_30_copy_3">
	<g>
		<ellipse fill="#393050" cx="226.83" cy="266.701" rx="3.922" ry="3.933"/>
	</g>
</g>
<g id="Ellipse_30_copy_2">
	<g>
		<ellipse fill="#393050" cx="325.996" cy="293.836" rx="3.922" ry="3.933"/>
	</g>
</g>
<g id="Ellipse_30_copy_4">
	<g>
		<ellipse fill="#393050" cx="291.996" cy="262.836" rx="3.922" ry="3.933"/>
	</g>
</g>
<g id="Shape_353">
	<g>
		<path fill="#C7C7D3" d="M324.688,289.903c-1.12-1.123-44.435-18.352-44.435-18.352l15.683-13.109c0,0-7.095-4.119-10.455-2.621
			s-13.069,10.487-13.069,10.487l-7.842,2.621c0,0-30.992-9.738-36.593-7.865c-5.601,1.872-3.36,4.869,0,5.244
			c3.36,0.373,26.138,7.864,26.138,7.864s-34.353,20.974-33.979,23.596c0.373,2.622,4.48,1.873,7.841,0
			c3.36-1.872,33.979-18.353,33.979-18.353s14.936,37.453,15.684,36.704c0.746-0.748,0.373-31.085,0-34.082
			c-0.374-2.996,44.434,10.487,44.434,10.487S325.809,291.027,324.688,289.903z"/>
	</g>
</g>
<g id="Shape_354">
	<g>
		<rect x="264.57" y="258.442" fill="#AEAEC3" width="10.456" height="15.73"/>
	</g>
</g>
<g id="Shape_351">
	<g>
		<path fill="#AFA6B3" d="M335.144,143.086c-1.866,1.498-20.91,25.094-26.138,31.461s-6.721,39.7-13.069,55.057
			c-6.348,15.355-23.15,14.98-47.048,7.864c-23.898-7.115-20.911,0-20.911,0c36.593,23.972,64.972,12.735,67.959,10.487
			c2.987-2.246,19.421-72.278,19.421-72.278l22.4-32.591C338.131,141.587,337.011,141.587,335.144,143.086z"/>
	</g>
</g>
<g id="Shape_361">
	<g>
		<path fill="#393050" d="M277.641,226.982c-0.654-4.59-15.684-36.705-15.684-36.705s-42.475-28.184-47.049-26.217
			c-4.574,1.966-16.662,38.998-18.297,49.813l1.774,0.89c4.469-0.431,9.692-0.839,15.126-1.214
			c1.644-10.539,4.599-27.612,6.625-28.515c2.939-1.312,31.365,23.595,31.365,23.595s7.515,2.294,2.613,2.623
			c-2.892,0.193-22.848,1.071-40.604,2.297c-0.742,4.761-1.217,8.189-1.217,8.189l-13.909-6.976
			c-5.675,0.547-10.131,1.131-12.229,1.732c-9.148,2.621-24.831,59.644-28.752,65.543c-3.92,5.899,6.861,9.504,13.069,7.865
			c6.208-1.639,26.137-57.678,26.137-57.678s41.168,5.57,47.049,5.242c5.881-0.326,24.178,3.934,26.139,2.622
			C271.759,238.779,278.293,231.569,277.641,226.982z"/>
	</g>
</g>
<g id="Shape_364">
	<g>
		<path fill="#328DF6" d="M170.474,289.903c-0.98-3.604-13.069-5.243-13.069-5.243s-9.475,3.277-18.296,5.243
			c-8.822,1.966-15.356,6.882-10.456,7.865s36.92,3.933,39.208,2.622S171.454,293.508,170.474,289.903z"/>
	</g>
</g>
<g id="Shape_365">
	<g>
		<path fill="#E39419" d="M303.627,156.194c0-1.966-31.039,0.327-33.979,0s-36.593-7.865-36.593-7.865s-2.287,5.899-2.614,7.865
			s14.376,6.555,20.911,7.866c6.533,1.31,44.434,7.864,44.434,7.864s7.516-4.916,10.455-7.864
			C309.182,161.11,303.627,158.16,303.627,156.194z"/>
	</g>
</g>
<g id="Shape_366">
	<g>
		<path fill="#E7AB7E" d="M225.213,143.086c-5.881-1.312-7.188-1.639-13.069,0c-5.881,1.639-6.861,5.571-2.614,5.243
			c4.248-0.328,10.455,2.622,10.455,2.622s-3.267,0.327-2.613,2.622c0.654,2.294-3.268,4.587,2.613,2.621
			c5.882-1.966,7.842,0.327,10.456,0s2.614-7.865,2.614-7.865S231.094,144.397,225.213,143.086z"/>
	</g>
</g>
<g id="Shape_362">
	<g>
		<path fill="#393050" d="M209.682,169.304c0,0-6.535,11.47-10.456,31.461l-2.614,15.73l15.684,5.243c0,0,1.307-15.402,2.613-20.974
			c1.307-5.572,3.922-12.782,5.229-13.109S209.682,169.304,209.682,169.304z"/>
	</g>
</g>
<g id="Shape_363">
	<g>
		<path fill="#328DF6" d="M199.226,216.495c0,0-2.614,4.587-10.455,7.864c-7.841,3.278-15.356,0-18.296,5.244
			c-2.941,5.243,34.633,11.47,36.593,10.486c1.96-0.982,0.327-11.798,2.614-18.352S199.226,216.495,199.226,216.495z"/>
	</g>
</g>
<g id="Shape_348">
	<g>
		<path fill="#D59668" d="M306.393,119.491c0,0-9.584,5.243-7.842,10.486s0,7.864,0,7.864h2.613c0,0,1.307-1.965,5.229-5.243
			c3.92-3.277,2.613,7.865,2.613,7.865s2.613,10.487,7.842,5.243c5.227-5.243,7.841-18.352,7.841-18.352L306.393,119.491z"/>
	</g>
</g>
<g id="Shape_367">
	<g>
		<path fill="#69637C" d="M187.377,74.464c-0.828-6.258-9.935,0-9.935,0l-36.429,30.035c0,0,2.07,13.766,6.624,30.035
			c4.553,16.268,4.553,16.268,6.623,16.687c2.07,0.417,39.741-33.373,39.741-33.373S188.205,80.721,187.377,74.464z"/>
	</g>
</g>
<g id="Shape_367_copy">
	<g>
		<path fill="#F3F2F4" d="M186.791,77.062c-3-6.504-9.314,0-9.314,0l-33.152,27.713l7.209,27.712c0,0,3.269,15.012,5.209,15.396
			c1.94,0.386,36.257-30.791,36.257-30.791S188.291,85.567,186.791,77.062z"/>
	</g>
</g>
<g id="Shape_356">
	<g>
		<path fill="#FDAD30" d="M295.937,164.061c-2.179,1.31-13.505,18.788-18.296,23.595c-4.793,4.806-10.456,20.974-13.07,28.84
			c-2.613,7.864,2.614,20.973,2.614,20.973c4.792,1.312,16.99,3.934,26.138-5.242c9.148-9.177,26.139-76.031,26.139-76.031
			S298.115,162.749,295.937,164.061z"/>
	</g>
</g>
<g id="Shape_360">
	<g>
		<path fill="#E7AB7E" d="M292.563,154.704c0,0-0.295-9.532-5.592-2.623c-4.247,1.64,0,7.866,0,7.866s3.268,3.276,5.228,2.62
			c1.96-0.655,7.842-9.763,7.842-9.763L292.563,154.704z"/>
	</g>
</g>
<g id="Shape_359">
	<g>
		<path fill="#DB8D14" d="M295.937,177.168c-4.48-1.498-7.468,5.993-13.069,7.866c-4.73,1.581-7.057,4.225-7.668,5.01
			c-0.107,0.145-0.173,0.233-0.173,0.233s0.062-0.089,0.173-0.233c1.841-2.478,18.477-24.923,18.123-25.983
			c-0.373-1.124-7.841-5.243-7.841-5.243s-4.854,9.737-7.841,13.107c-2.988,3.371-17.924,9.738-18.297,28.84
			c-0.373,19.101,33.979-5.244,33.979-5.244s1.494-1.124,5.229-5.243C302.285,186.157,300.418,178.667,295.937,177.168z"/>
	</g>
</g>
<g id="Shape_358">
	<g>
		<path fill="#C7C7D3" d="M277.641,229.604c-2.614-5.244-52.277-10.487-52.277-10.487s-2.24,4.869,0,5.243
			c2.241,0.375,20.911,7.866,20.911,7.866v5.242h5.228v-2.621c0,0,17.176,3.37,18.297,2.621
			C270.919,236.72,280.254,234.847,277.641,229.604z"/>
	</g>
</g>
<g id="Shape_357">
	<g>
		<path fill="#AFA6B3" d="M230.592,211.252c0,0-4.854,4.493-5.229,7.864c-0.373,3.371,31.74,11.611,39.207,13.109
			c7.469,1.497,10.456-1.124,13.07-5.243C280.254,222.861,230.592,211.252,230.592,211.252z"/>
	</g>
</g>
<g id="Shape_347">
	<g>
		<path fill="#FF4131" d="M314.233,114.247c-13.069-0.656-19.604,0-20.911-5.243c-1.307-5.244-8.494,5.243-5.227,10.487
			c3.267,5.243,10.455,10.486,10.455,10.486l26.138-2.622C324.688,127.355,327.303,114.901,314.233,114.247z"/>
	</g>
</g>
<g id="Shape_355">
	<g>
		<path fill="#E39419" d="M303.93,158.817c0,0-2.614,1.122-2.614,5.243c0,4.119,3.36,0,10.455-2.623
			c7.095-2.62,7.842-10.486,7.842-10.486C318.865,151.7,303.93,158.817,303.93,158.817z"/>
	</g>
</g>
<g id="Shape_1_copy_6">
	<g>
		<path fill-rule="evenodd" clip-rule="evenodd" fill="#B8B1BD" d="M131.642,181.459l-13.098,6.904l-21.76-2.844l4.366-2.301
			l-2.426-6.833l-14.311,7.544l2.69,6.455l33.91,4.313l13.341-7.032L131.642,181.459z M115.913,185.81l-3.491-9.202l17.047-8.771
			l1.164,3.067l12.3,1.989l-3.814-10.056l-11.849-1.694l-26.375,13.723l3.556,9.373L115.913,185.81z M142.969,174.688l-17.277-2.29
			l-8.865,4.754l16.963,2.248l4.975,11.774l-5.654-0.749l-10.008,4.972l18.534,2.457l9.28-4.885L142.969,174.688z"/>
	</g>
</g>
<g id="Shape_1_copy_6_1_">
	<g>
		<path fill-rule="evenodd" clip-rule="evenodd" fill="#F3F2F4" d="M131.642,178.6l-13.098,6.906l-21.76-2.845l4.366-2.302
			l-2.426-6.833l-14.311,7.544l2.69,6.455l33.91,4.313l13.341-7.032L131.642,178.6z M115.913,182.952l-3.491-9.204l17.047-8.771
			l1.164,3.067l12.3,1.988l-3.814-10.055l-11.849-1.694l-26.375,13.723l3.556,9.373L115.913,182.952z M142.969,171.829l-17.277-2.29
			l-8.865,4.753l16.963,2.248l4.975,11.775l-5.654-0.75l-10.008,4.973l18.534,2.456l9.28-4.884L142.969,171.829z"/>
	</g>
</g>
</svg>
