<?xml version="1.0" encoding="iso-8859-1"?>
<!-- Generator: Adobe Illustrator 19.0.0, SVG Export Plug-In . SVG Version: 6.00 Build 0)  -->
<svg xmlns="http://www.w3.org/2000/svg" xmlns:xlink="http://www.w3.org/1999/xlink" version="1.1" id="Capa_1" x="0px" y="0px" viewBox="0 0 508 508" style="enable-background:new 0 0 508 508;" xml:space="preserve" width="512px" height="512px">
<g>
	<g>
		<g>
			<polygon points="48.9,471.1 48.9,20.5 32.5,20.5 32.5,77.8 0,77.8 0,94.2 32.5,94.2 32.5,159.8 0,159.8 0,176.2 32.5,176.2      32.5,241.7 0,241.7 0,258.1 32.5,258.1 32.5,323.6 0,323.6 0,340 32.5,340 32.5,405.6 0,405.6 0,422 32.5,422 32.5,487.5      508,487.5 508,471.1    " fill="#1468C6"/>
			<path d="M147.3,323.6h-82v131.1h82V323.6z M130.9,438.4H81.7V340h49.2V438.4z" fill="#1468C6"/>
			<path d="M262.1,241.7h-82v213h82V241.7z M245.7,438.4h-49.2V258.1h49.2V438.4z" fill="#1468C6"/>
			<path d="M376.8,159.8h-82v295h82V159.8z M360.4,438.4h-49.2V176.2h49.2V438.4z" fill="#1468C6"/>
			<path d="M491.6,77.8h-82v376.9h82V77.8z M475.2,438.4H426V94.2h49.2V438.4z" fill="#1468C6"/>
		</g>
	</g>
</g>
<g>
</g>
<g>
</g>
<g>
</g>
<g>
</g>
<g>
</g>
<g>
</g>
<g>
</g>
<g>
</g>
<g>
</g>
<g>
</g>
<g>
</g>
<g>
</g>
<g>
</g>
<g>
</g>
<g>
</g>
</svg>
