<?xml version="1.0" encoding="utf-8"?>
<!-- Generator: Adobe Illustrator 16.0.0, SVG Export Plug-In . SVG Version: 6.00 Build 0)  -->
<!DOCTYPE svg PUBLIC "-//W3C//DTD SVG 1.1//EN" "http://www.w3.org/Graphics/SVG/1.1/DTD/svg11.dtd">
<svg version="1.1" id="Group_3_1_" xmlns="http://www.w3.org/2000/svg" xmlns:xlink="http://www.w3.org/1999/xlink" x="0px" y="0px"
	 width="235px" height="235px" viewBox="0 0 235 235" enable-background="new 0 0 235 235" xml:space="preserve">
<g id="Ellipse_6_copy_4">
	<g>
		<ellipse fill="#ECF2FD" cx="117.384" cy="161.98" rx="116" ry="61.017"/>
	</g>
</g>
<g id="Shape_55">
	<g>
		<path fill="#F37C7F" d="M146.645,194.843l-1.24-3.111l-3.102-0.623l-3.1,0.623c0,0-4.136-0.206-6.822,0.624
			c-2.688,0.828-4.755,1.036-3.723,2.487c1.035,1.451,9.098,2.281,10.545,2.488c1.445,0.208,5.994,0.623,7.441,0
			C148.093,196.709,146.645,194.843,146.645,194.843z"/>
	</g>
</g>
<g id="Shape_56">
	<g>
		<path fill="#F37C7F" d="M161.53,192.288c-0.415-1.659,0-4.978,0-4.978l-2.482,0.622l-3.101-4.356l-1.86-2.487
			c0,0-4.962-1.453-6.201-1.245c0,0-0.206,3.941,1.86,4.978c2.067,1.036,5.168,1.451,5.581,3.111
			c0.413,1.659-0.413,4.147,2.48,4.355C160.702,192.497,161.943,193.948,161.53,192.288z"/>
	</g>
</g>
<g id="Shape_57">
	<g>
		<path fill="#002B37" d="M155.947,182.955c0,0-0.413,2.487,0,3.732c0.415,1.245,5.583,1.866,5.583,1.866v-3.732L155.947,182.955z"
			/>
	</g>
</g>
<g id="Shape_37_copy_3">
	<g>
		<path fill="#E6A666" d="M89.725,120.021c0,0-0.292,3.083-1.462,7.032c-1.171,3.949,1.769,19.243,1.769,19.243
			s3.807,2.718,4.127,0.338c0.023-0.171,0.046-0.45,0.07-0.82c0.303-4.821,0.628-25.245,0.628-25.245L89.725,120.021z"/>
	</g>
</g>
<g id="Shape_39_copy_3">
	<g>
		<path fill="#4F3321" d="M100.032,147.895c-1.37-0.171-4.623-1.54-4.623-1.54s0,0-2.055,0c-2.054,0-3.082-0.513-3.082-0.513h-1.027
			l0.514,4.105c0,0,13.525,0.514,14.382-0.513C104.997,148.408,101.401,148.065,100.032,147.895z"/>
	</g>
</g>
<g id="Shape_40_copy_3">
	<g>
		<path fill="#E6A666" d="M76.967,122.576c-3.31,10.954-0.187,24.04-0.187,24.04s3.119-0.328,3.251-1.473
			c0.13-1.145,1.615-23.059,1.615-23.059L76.967,122.576z"/>
	</g>
</g>
<g id="Shape_36_copy_4">
	<g>
		<path fill="#2B5AA3" d="M88.713,122.473l6.687,0.161l-0.069-3.176l-0.834-0.008c0,0,0.581-11.618-0.757-20.344
			c-1.469-9.579,0.339-20.175,0.339-20.175L75.2,82.208c0,0-0.233,32.02,1.571,39.882l-0.621,0.763l-0.236,2.275l7.1-0.146
			l0.002-1.97l-0.679-0.423c0,0-1.2-7.049-0.798-13.298c0.439-6.868,1.367-15.909,1.367-15.909s3.729,22.677,5.988,26.469
			l-0.061,0.884L88.713,122.473z"/>
	</g>
</g>
<g id="Shape_24_copy_3">
	<g>
		<path fill="#D59759" d="M84.418,37.31c0,0-2.795,1.539,0,4.105c2.795,2.565,6.29,0,6.29,0l0.525-5.131L84.418,37.31z"/>
	</g>
</g>
<g id="Shape_42_copy_3">
	<g>
		<path fill="#4F3321" d="M87.81,150.731c-2.806-1.556-3.857-1.901-4.734-2.075c-0.877-0.173-2.104-1.036-2.104-1.036v-2.074
			l-3.682,0.519l-1.578,0.52l0.527,1.036c0,0-0.877,2.248-1.052,3.111c-0.176,0.863,2.103,1.556,2.103,1.556s2.98-0.863,5.786-0.518
			C85.881,152.114,90.615,152.287,87.81,150.731z"/>
	</g>
</g>
<g id="Shape_26_copy_4">
	<g>
		<path fill="#5030C7" d="M94.324,67.438c0.641-3.788,1.362-19.435,1.362-19.435s0.745-2.274-0.608-4.312
			c-1.34-2.023-3.624-0.823-4.816-0.942c-1.196-0.119-1.974-0.672-1.974-0.672l-0.837,0.169l-6.322,0.413
			c0,0-3.552,1.097-4.707,1.963c-4.64,1.471-6.539,11.534-6.539,11.534l-0.539,5.813l5.231,4.261l-0.352-9.093l0.374,9.11
			l-0.021-0.018l0.678,17.502c12.036-0.486,21.396-1.633,21.396-1.633S93.667,71.321,94.324,67.438z"/>
	</g>
</g>
<g id="Shape_96_copy_2">
	<g>
		<path fill="#E6A666" d="M75.189,89.079c0,0-1.123-5.632-2.246-9.012c-1.123-3.38,1.123-14.646,1.123-14.646
			s-4.942-5.632-4.493-3.379c0.449,2.254-0.674,10.815-1.123,14.645c-0.449,3.83,2.246,15.771,2.246,15.771l1.124,3.379h2.246
			l2.247-2.253l1.123-3.378L75.189,89.079z"/>
	</g>
</g>
<g id="Shape_29_copy_3">
	<g>
		<polygon fill="#391AAD" points="94.875,42.999 93.372,58.147 98.211,62.421 101.99,59.387 		"/>
	</g>
</g>
<g id="Shape_27_copy_3">
	<g>
		<polygon fill="#270A92" points="87.04,45.007 87.04,50.139 88.088,49.626 88.088,44.495 		"/>
	</g>
</g>
<g id="Shape_28_copy_3">
	<g>
		<path fill="#5030C7" d="M75.956,46.848c0.655,3.464-1.572,10.392-0.524,9.75c1.048-0.642,1.572-10.265,1.572-10.265
			S75.301,43.385,75.956,46.848z"/>
	</g>
</g>
<g id="Shape_25_copy_3">
	<g>
		<path fill="#32159B" d="M90.791,41.416c0,0-5.717,2.338-7.421-1.509l-1.048,2.506c0,0,2.358,1.984,4.718,1.6l4.799-1.569
			L90.791,41.416z"/>
	</g>
</g>
<g id="Shape_23_copy_3">
	<g>
		<path fill="#E6A666" d="M90.758,20.967l-10.417,0.314L79.2,26.363c0,0-1.483-0.068-0.571,2.541c0.912,2.61,0.869,3.4,0.869,3.4
			l1.15-0.273c0,0,1.273,4.025,1.678,4.651c0.404,0.625,5.834,3.721,8.467,3.516c2.632-0.206,2.143-0.451,3.276-2.463
			c1.132-2.014,2.003-6.489,2.003-6.489l1.713-7.623L90.758,20.967z"/>
	</g>
</g>
<g id="Shape_22_copy_3">
	<g>
		<path fill="#4F0D0F" d="M99.103,20.182l-0.58-2.267c0,0-11.139-1.316-12.665-1.795c-1.526-0.479-5.638,0.861-6.5,2.27
			c-0.861,1.407-0.205,6.361-0.448,6.841c-0.244,0.479,1.521,5.951,1.335,6.175c-0.187,0.224,0.632-0.391,0.632-0.391l-0.351-3.284
			l2.49-1.595c0,0,2.055-1.156,5.481-0.27c3.338,0.863,6.916,4.906,8.022,4.167c0.313-0.208-0.567-1.45-0.389-1.496
			c1.107-0.279,1.083-2.374,1.083-2.374s2.274,0.782,2.415-1.055C99.769,23.271,99.103,20.182,99.103,20.182z"/>
	</g>
</g>
<g id="Shape_95_copy_2">
	<g>
		<path fill="#E6A666" d="M119.003,78.452l-1.503-2.301l-2.374,1.143c0,0-3.163-4.489-6.832-9.806
			c-3.461-5.015-7.271-8.824-7.271-8.824l-3.37,1.884c0,0,0,0.477,2.337,4.901c2.462,4.658,7.556,10.136,8.826,10.702
			c1.279,0.57,0.805,2.884,1.553,4.659c0.763,1.809,2.763,2.724,4.027,2.417c1.258-0.304,3.413-1.215,2.212-3.604
			C115.438,77.294,119.003,78.452,119.003,78.452z"/>
	</g>
</g>
<g id="Shape_54">
	<g>
		<path fill="#328DF7" d="M133.389,27.19L83.74,52.33c-7.167,2.706-5.119,6.925-5.119,6.925s0.512,32.91,1.536,37.588
			c1.024,4.679,4.095,2.271,4.095,2.271s39.412-21.053,45.556-24.329c6.142-3.274,8.7-3.654,8.7-3.654s0-24.662,0-37.508
			C138.507,20.779,133.389,27.19,133.389,27.19z"/>
	</g>
</g>
<g id="Shape_24_copy_4">
	<g>
		<polygon fill="#D59759" points="110.191,65.275 108.741,70.112 115.337,70.112 115.766,64.429 		"/>
	</g>
</g>
<g id="Shape_26_copy_5">
	<g>
		<path fill="#5030C7" d="M119.713,80.952l-0.451-0.976l0.146-5.881c0,0,0.61-1.876-0.497-3.557
			c-1.095-1.668-2.964-0.678-3.939-0.777c-0.979-0.098-1.219,0.099-1.219,0.099l-0.686,0.139l-5.566-0.312
			c0,0-2.906,0.905-3.851,1.619C99.853,72.519,98.3,80.82,98.3,80.82l-0.441,4.794l4.298,3.529l-0.307-7.514l0.842,7.92
			L119.713,80.952z"/>
	</g>
</g>
<g id="Shape_96_copy_3">
	<g>
		<path fill="#E6A666" d="M98.53,86.159c-1.033,8.742,3.676,2.788,3.676,2.788S98.752,84.277,98.53,86.159z"/>
	</g>
</g>
<g id="Shape_29_copy_4">
	<g>
		<polygon fill="#4324B5" points="118.745,69.654 117.516,82.148 118.091,81.808 121.184,79.305 		"/>
	</g>
</g>
<g id="Shape_27_copy_4">
	<g>
		<polygon fill="#4425B6" points="112.335,71.625 112.335,75.858 113.193,75.435 113.193,71.202 		"/>
	</g>
</g>
<g id="Shape_28_copy_4">
	<g>
		<path fill="#290E8B" d="M103.269,73.143c0.536,2.857-1.287,8.571-0.429,8.042c0.857-0.529,1.286-8.465,1.286-8.465
			S102.733,70.287,103.269,73.143z"/>
	</g>
</g>
<g id="Forma_1">
	<g>
		<path fill="#FEFFFF" d="M93.968,60.538c0.092-0.526,0.139-1.017,0.139-1.47c0-0.887-0.161-1.649-0.484-2.287
			c-0.322-0.637-0.758-1.103-1.308-1.396c-0.55-0.293-1.203-0.41-1.962-0.349c-0.759,0.061-1.553,0.313-2.384,0.757
			c-0.425,0.225-0.86,0.508-1.309,0.847c-0.604-0.174-1.284-0.06-2.041,0.343c-0.923,0.495-1.713,1.265-2.367,2.311
			c-0.654,1.047-0.981,2.064-0.981,3.051c0,0.806,0.233,1.408,0.698,1.806c-0.094,0.528-0.14,1.018-0.14,1.471
			c0,0.887,0.161,1.649,0.484,2.286c0.322,0.638,0.758,1.104,1.308,1.396c0.55,0.294,1.204,0.41,1.961,0.349
			c0.759-0.061,1.554-0.313,2.385-0.756c0.425-0.225,0.861-0.508,1.309-0.847c0.604,0.174,1.284,0.059,2.041-0.344
			c0.924-0.494,1.713-1.263,2.367-2.311s0.981-2.064,0.981-3.05C94.665,61.538,94.432,60.935,93.968,60.538z M91.211,63.391
			c-0.191,0.465-0.449,0.893-0.771,1.281c-0.323,0.39-0.679,0.745-1.068,1.068c-0.39,0.323-0.797,0.598-1.221,0.825
			c-0.982,0.524-1.828,0.772-2.538,0.745c-0.709-0.029-1.064-0.328-1.064-0.899c0-0.279,0.075-0.55,0.223-0.817
			c0.147-0.265,0.367-0.475,0.658-0.63c0.169-0.089,0.326-0.124,0.471-0.103c0.146,0.022,0.279,0.071,0.401,0.145
			c0.122,0.075,0.254,0.144,0.396,0.207c0.143,0.063,0.332,0.083,0.566,0.055c0.236-0.025,0.501-0.118,0.798-0.276
			c0.378-0.202,0.684-0.443,0.916-0.726c0.233-0.282,0.349-0.544,0.349-0.787c0-0.248-0.092-0.385-0.279-0.41
			c-0.128-0.018-0.453,0.043-0.977,0.187L86.8,63.6c-0.348,0.099-0.648,0.158-0.898,0.178c-0.25,0.018-0.483-0.008-0.697-0.08
			c-0.215-0.071-0.378-0.218-0.489-0.441c-0.11-0.224-0.166-0.524-0.166-0.904c0-0.453,0.097-0.903,0.292-1.351
			c0.195-0.448,0.454-0.856,0.777-1.224s0.669-0.698,1.042-0.993c0.373-0.295,0.756-0.547,1.151-0.759
			c0.559-0.298,1.086-0.509,1.587-0.633c0.5-0.124,0.913-0.135,1.238-0.033c0.326,0.104,0.488,0.326,0.488,0.666
			c0,0.279-0.083,0.563-0.248,0.85c-0.166,0.287-0.386,0.503-0.659,0.649c-0.151,0.081-0.291,0.118-0.418,0.111
			c-0.128-0.006-0.244-0.033-0.349-0.083c-0.104-0.05-0.215-0.095-0.332-0.136c-0.116-0.04-0.273-0.044-0.471-0.014
			c-0.197,0.031-0.42,0.113-0.67,0.247c-0.838,0.447-1.257,0.909-1.257,1.387c0,0.105,0.023,0.187,0.066,0.245
			c0.043,0.057,0.092,0.097,0.144,0.118c0.052,0.022,0.14,0.024,0.262,0.01c0.122-0.016,0.224-0.033,0.306-0.056
			c0.081-0.021,0.208-0.057,0.384-0.107l0.906-0.261c0.285-0.083,0.539-0.147,0.763-0.194c0.224-0.044,0.464-0.067,0.72-0.067
			c0.256,0,0.468,0.039,0.636,0.116c0.168,0.078,0.31,0.215,0.423,0.412c0.114,0.197,0.17,0.45,0.17,0.761
			C91.5,62.466,91.403,62.926,91.211,63.391z"/>
	</g>
</g>
<g id="Shape_25_copy_4">
	<g>
		<path fill="#2A0D94" d="M116.195,68.662c0,0-5.468,2.328-6.861-0.846l-0.858,1.753c0,0,1.93,1.95,3.859,1.633
			c0,0,4.61-0.318,4.717-1.692C117.16,68.132,116.195,68.662,116.195,68.662z"/>
	</g>
</g>
<g id="Shape_23_copy_4">
	<g>
		<path fill="#E6A666" d="M115.378,51.795l-8.521,0.26l-0.935,4.191c0,0-1.212-0.054-0.467,2.097
			c0.746,2.152,0.712,2.804,0.712,2.804l0.941-0.226c0,0,1.042,3.321,1.372,3.836c0.33,0.516,4.773,3.07,6.926,2.901
			c2.153-0.171,1.753-0.372,2.68-2.033c0.927-1.66,1.639-5.352,1.639-5.352l1.402-6.287L115.378,51.795z"/>
	</g>
</g>
<g id="Shape_22_copy_4">
	<g>
		<path fill="#4F0D0F" d="M122.204,51.148l-0.474-1.869c0,0-9.113-1.086-10.361-1.481c-1.249-0.394-4.614,0.711-5.317,1.872
			c-0.704,1.16-0.167,5.246-0.367,5.642c-0.199,0.395,1.245,4.909,1.093,5.094c-0.153,0.185,0.517-0.324,0.517-0.324l-0.287-2.709
			l2.038-1.314c0,0,1.681-0.954,4.483-0.223c2.732,0.712,5.657,4.046,6.563,3.438c0.256-0.172-0.466-1.197-0.318-1.234
			c0.904-0.23,0.885-1.957,0.885-1.957s1.86,0.644,1.977-0.871C122.749,53.695,122.204,51.148,122.204,51.148z"/>
	</g>
</g>
<g id="Shape_54_copy" opacity="0.502">
	<g>
		<path fill="#028DF7" d="M68.287,71.376l-31.116,15.72c-4.491,1.692-3.208,4.332-3.208,4.332s0.321,20.583,0.962,23.508
			c0.642,2.925,2.566,1.421,2.566,1.421s24.7-13.165,28.55-15.212c3.849-2.047,5.454-2.284,5.454-2.284s0-15.425,0-23.458
			C71.496,67.369,68.287,71.376,68.287,71.376z"/>
	</g>
</g>
<g id="Shape_54_copy_2" opacity="0.502">
	<g>
		<path fill="#028DF7" d="M181.536,13.238l-31.115,15.719c-4.492,1.693-3.208,4.332-3.208,4.332s0.321,20.582,0.962,23.508
			c0.642,2.925,2.566,1.421,2.566,1.421s24.7-13.164,28.549-15.211c3.851-2.047,5.454-2.284,5.454-2.284s0-15.425,0-23.459
			C184.744,9.23,181.536,13.238,181.536,13.238z"/>
	</g>
</g>
<g id="Shape_53">
	<g>
		<path fill="#002B37" d="M158.857,155.468c0,0,1.098-25.81,1.015-29.158c-0.092-3.81-0.654-4.886-0.654-4.886l-22.734,9.318
			c0,0-0.545,27.903-0.194,30.366c0.2,1.404,4.774,33.113,4.774,33.113s1.462,1.026,2.799,0.639
			c1.129-0.326,2.169-2.076,2.169-2.076s2.179-23.625,0.716-27.843c-1.439-4.15-1.137-6.354-1.137-6.354s2.331-11.943,2.333-14.025
			c0.002-2.067,0.841-2.653,1.694,3.581c0.878,6.397,0.606,10.757,1.78,13.601c1.188,2.875,3.174,22.579,3.174,22.579l4.942,3.494
			c0,0,2.46,0.35,2.38-2.801C161.823,181.456,158.857,155.468,158.857,155.468z"/>
	</g>
</g>
<g id="Shape_50">
	<g>
		<path fill="#F9C188" d="M137.343,77.245c-1.447,0.832-1.862,1.868-3.723,0.623c-1.86-1.244,0.207-2.28-0.619-3.11
			c-0.826-0.829-1.86,2.695-3.721,5.6s-12.405,21.156-12.405,21.156l4.962,3.732c0,0,5.582-10.577,8.062-14.311
			c2.481-3.732,3.721-8.088,3.721-8.088s0.207-2.489,1.86-2.489c1.654,0,2.069-1.038,3.102-1.866
			C139.616,77.662,138.788,76.416,137.343,77.245z"/>
	</g>
</g>
<g id="Shape_47">
	<g>
		<path fill="#F9C188" d="M149.125,72.613l-1.86-9.955l-6.822-3.112h-6.822c0,0-2.479,17.11,0,17.423
			c0.51,0.063-0.222,1.396,0.277,1.49c1.93,0.355,4.94-0.5,5.926-1.49l3.101,1.243l0.62,1.868l6.202-4.357L149.125,72.613z"/>
	</g>
</g>
<g id="Shape_49">
	<g>
		<path fill="#F37C7F" d="M161.53,75.379c-1.447-1.038-7.028-2.282-8.063-0.623l-12.403,6.223c0,0-5.996,6.014-7.443,6.222
			c-1.445,0.207-11.99,9.748-13.022,11.2c-1.034,1.451-3.722,3.111-3.722,3.111s-1.86,9.748,5.583,4.977
			c7.441-4.771,11.783-10.578,11.783-10.578s1.448,33.391,2.48,34.22c1.034,0.832,1.034,4.979,8.063,1.869
			c7.029-3.111,9.303-4.354,9.303-4.354s0.415-1.247,1.86-1.868c1.447-0.621,4.549-2.902,4.342-4.978
			c-0.206-2.075,1.034-18.458,1.241-19.288c0.206-0.83,8.268,0.621,8.061-3.734C169.385,93.424,162.976,76.416,161.53,75.379z"/>
	</g>
</g>
<g id="Shape_52">
	<g>
		<polygon fill="#E4676A" points="161.53,83.468 160.908,95.912 163.391,95.912 		"/>
	</g>
</g>
<g id="Shape_48">
	<g>
		<path fill="#E4676A" d="M151.606,74.757c-1.034,0-10.543,6.223-10.543,6.223c1.239,1.451,5.994-0.415,8.062-1.245
			c2.068-0.829,3.723-3.111,3.723-3.111S152.639,74.757,151.606,74.757z"/>
	</g>
</g>
<g id="Shape_45">
	<g>
		<path fill="#131B23" d="M151.606,56.713c-1.86-4.355-11.164-3.111-11.164-3.111s-1.55-0.623-3.721,0
			c-2.171,0.622-2.48,2.489-3.102,4.977c-0.565,2.273,4.54,0.918,5.437,0.665l-4.195,1.203c0,0,0.311,0.622,1.86,1.245
			c1.031,0.413,1.512,3.839,1.719,6.098c-0.052-1.603,0.036-3.761,0.763-4.855c1.239-1.865,3.721,3.423,4.341,6.222
			c0.619,2.801,6.202,3.113,6.202,3.113C154.087,69.156,153.467,61.069,151.606,56.713z M138.44,67.79
			c0.036,1.132,0.142,1.989,0.142,1.989S138.546,68.931,138.44,67.79z"/>
	</g>
</g>
<g id="Shape_8_copy">
	<g>
		<path fill="#E4676A" d="M150.374,79.059l1.139,44.906C152.012,101.515,150.374,79.059,150.374,79.059z"/>
	</g>
</g>
<g id="Shape_51">
	<g>
		<polygon fill="#E4676A" points="135.274,95.302 134.19,96.686 137.55,130.12 		"/>
	</g>
</g>
<g id="Shape_2_copy">
	<g>
		<path fill="#131B23" d="M147.864,54.07c0,0-0.258,0.657-1.028-1.05c-0.773-1.707-2.06-1.575-2.06-1.575s-0.387-1.313-3.604-1.576
			c-3.217-0.262-6.692,4.727-6.692,4.727c-2.059-0.656-2.574,1.051-2.574,1.051c-0.9,3.808,2.832,3.808,4.118,4.201
			c1.288,0.395,6.564-3.545,7.723-4.201c1.158-0.657,5.148,1.575,5.148,1.575l0.516,8.929l1.028,0.526c0,0,0-3.021,0-4.728
			s0.516-1.05,0.516-1.05c0.014-0.228,0.021-0.447,0.025-0.659C151.109,54.194,147.864,54.07,147.864,54.07z"/>
	</g>
</g>
<g id="Shape_1_copy_8">
	<g>
		<path fill-rule="evenodd" clip-rule="evenodd" fill="#6EB5ED" d="M169.274,35.669l-4.561,2.78l-3.145-3.411l1.73-1.054
			l1.729-4.032l-5.189,3.164l-1.571,3.936l4.718,5.116l4.875-2.971L169.274,35.669z M175.228,23.835l-9.304,5.642l-2.486,5.694
			l1.579,1.61l2.325-5.327l6.202-3.762l-0.881,2.021l1.688,1.972l2.646-6.062L175.228,23.835z M168.388,31.649l2.301,2.519
			l-3.026,7.241l-0.873-0.956l-3.451,2.12l2.619,2.866l3.373-2.207l4.54-10.861l-2.462-2.693L168.388,31.649z"/>
	</g>
</g>
<g id="Shape_1_copy_9" opacity="0.302">
	<g>
		<path fill-rule="evenodd" clip-rule="evenodd" fill="#6EB5ED" d="M55.782,94.446l-4.56,2.78l-3.145-3.411l1.729-1.054l1.73-4.034
			l-5.19,3.165l-1.572,3.936l4.718,5.116l4.875-2.972L55.782,94.446z M61.735,82.612l-9.304,5.642l-2.486,5.695l1.578,1.609
			l2.325-5.327l6.203-3.761l-0.882,2.02l1.688,1.973l2.646-6.062L61.735,82.612z M54.894,90.426l2.303,2.519l-3.027,7.241
			l-0.873-0.955l-3.453,2.119l2.621,2.868l3.373-2.208l4.541-10.862l-2.461-2.692L54.894,90.426z"/>
	</g>
</g>
</svg>
