<?xml version="1.0" encoding="utf-8"?>
<!-- Generator: Adobe Illustrator 16.0.0, SVG Export Plug-In . SVG Version: 6.00 Build 0)  -->
<!DOCTYPE svg PUBLIC "-//W3C//DTD SVG 1.1//EN" "http://www.w3.org/Graphics/SVG/1.1/DTD/svg11.dtd">
<svg version="1.1" xmlns="http://www.w3.org/2000/svg" xmlns:xlink="http://www.w3.org/1999/xlink" x="0px" y="0px" width="231px"
	 height="284.55px" viewBox="0 0 231 284.55" enable-background="new 0 0 231 284.55" xml:space="preserve">
<g id="Ellipse_6_1_" enable-background="new    ">
	<g id="Ellipse_6">
		<g>
			<ellipse fill="#ECF2FD" cx="115.5" cy="220.745" rx="108.995" ry="57.144"/>
		</g>
	</g>
</g>
<g id="Shape_111_1_" enable-background="new    ">
	<g id="Shape_111">
		<g>
			<path fill="#17C3EF" d="M109.475,187.777l-2.192,1.101c0,0-3.56,7.966-3.286,12.088c0.274,4.12,8.763,4.395,8.763,4.395
				l4.383-10.99L109.475,187.777z"/>
		</g>
	</g>
</g>
<g id="Shape_112_1_" enable-background="new    ">
	<g id="Shape_112">
		<g>
			<polygon fill="#17C0EE" points="123.714,198.767 122.62,210.855 124.81,210.855 132.479,210.855 132.479,204.262 			"/>
		</g>
	</g>
</g>
<g id="Shape_114_copy_1_" enable-background="new    ">
	<g id="Shape_114_copy">
		<g>
			<path fill="#7E85A8" d="M134.709,212.496l-18.623,2.198c0,0-3.067,3.734,5.478,3.294c8.544-0.438,14.021-2.416,14.241-3.294
				C136.024,213.814,134.709,212.496,134.709,212.496z"/>
		</g>
	</g>
</g>
<g id="Shape_113_copy_1_" enable-background="new    ">
	<g id="Shape_113_copy">
		<g>
			<path fill="#212B7D" d="M125.944,207c0,0-14.02,4.177-9.858,7.693c4.164,3.515,19.719-2.198,19.719-2.198L125.944,207z"/>
		</g>
	</g>
</g>
<g id="Shape_114_1_" enable-background="new    ">
	<g id="Shape_114">
		<g>
			<path fill="#7E85A8" d="M111.666,205.36l-18.622,2.196c0,0-3.067,3.736,5.477,3.299c8.544-0.44,14.022-2.419,14.24-3.299
				C112.98,206.678,111.666,205.36,111.666,205.36z"/>
		</g>
	</g>
</g>
<g id="Shape_113_1_" enable-background="new    ">
	<g id="Shape_113">
		<g>
			<path fill="#212B7D" d="M102.902,199.865c0,0-14.021,4.177-9.859,7.691c4.162,3.519,19.717-2.196,19.717-2.196L102.902,199.865z"
				/>
		</g>
	</g>
</g>
<g id="Shape_109_1_" enable-background="new    ">
	<g id="Shape_109">
		<g>
			<path fill="#112B76" d="M171.894,136.686l-16.43-9.89l-5.479,31.867l12.052,9.893l5.477,4.395l5.478-4.395
				C168.881,152.894,171.894,136.686,171.894,136.686z"/>
		</g>
	</g>
</g>
<g id="Rounded_Rectangle_1_1_" enable-background="new    ">
	<g id="Rounded_Rectangle_1">
		<g>
			<path fill="#328DF7" d="M53.608,153.711c-1.815,0-3.286,1.477-3.286,3.296v41.76c0,1.819,1.471,3.297,3.286,3.297
				s3.286-1.478,3.286-3.297v-41.76C56.895,155.188,55.423,153.711,53.608,153.711z"/>
		</g>
	</g>
</g>
<g id="Rounded_Rectangle_2_1_" enable-background="new    ">
	<g id="Rounded_Rectangle_2">
		<g>
			<path fill="#328DF7" d="M135.766,199.865c-1.814,0-3.287,1.478-3.287,3.297v42.857c0,1.822,1.473,3.297,3.287,3.297
				c1.815,0,3.285-1.475,3.285-3.297v-42.857C139.051,201.342,137.581,199.865,135.766,199.865z"/>
		</g>
	</g>
</g>
<g id="Rounded_Rectangle_2_copy_1_" enable-background="new    ">
	<g id="Rounded_Rectangle_2_copy">
		<g>
			<path fill="#328DF7" d="M171.914,176.79c-1.814,0-3.287,1.475-3.287,3.296v42.857c0,1.82,1.473,3.297,3.287,3.297
				c1.815,0,3.285-1.477,3.285-3.297v-42.857C175.199,178.264,173.729,176.79,171.914,176.79z"/>
		</g>
	</g>
</g>
<g id="Shape_106_1_" enable-background="new    ">
	<g id="Shape_106">
		<g>
			<path fill="#F8872E" d="M158.77,131.733c-4.656-12.363-13.146-9.89-13.146-9.89s-0.821-2.473-4.382-2.199
				c-3.562,0.274-4.93,4.67-7.668,7.693c-2.738,3.022-0.821,9.065,2.191,13.187c3.011,4.12,5.477,17.583,5.477,17.583
				s18.349,11.537,20.813,9.89c2.466-1.647,4.108-6.867,4.381-7.693C166.71,159.481,163.425,144.096,158.77,131.733z"/>
		</g>
	</g>
</g>
<g id="Shape_105_1_" enable-background="new    ">
	<g id="Shape_105">
		<g>
			<path fill="#F9AC45" d="M135.246,124.55c-1.917,0.824-1.096,2.197-1.096,2.197s3.287,2.197,3.287,3.296l1.097-5.494
				C138.534,124.55,137.163,123.726,135.246,124.55z"/>
		</g>
	</g>
</g>
<g id="Shape_99_1_" enable-background="new    ">
	<g id="Shape_99">
		<g>
			<polygon fill="#97CEFF" points="50.322,152.597 50.322,157.007 133.574,205.36 176.854,181.184 176.872,177.887 			"/>
		</g>
	</g>
</g>
<g id="Shape_98_1_" enable-background="new    ">
	<g id="Shape_98">
		<g>
			<polygon fill="#328DF7" points="90.853,125.14 50.322,152.613 133.574,202.064 177.392,177.887 			"/>
		</g>
	</g>
</g>
<g id="Rounded_Rectangle_3_1_" enable-background="new    ">
	<g id="Rounded_Rectangle_3">
		<g>
			<path fill="#DCE5F7" d="M179.336,54.576l-54.079-31.719c-2.872-1.685-5.2-0.715-5.2,2.167v35.47c0,2.881,2.328,6.583,5.2,8.267
				l54.079,31.72c2.872,1.684,5.2,0.714,5.2-2.167V62.843C184.536,59.961,182.208,56.261,179.336,54.576z"/>
		</g>
	</g>
</g>
<g id="Rounded_Rectangle_3_copy_2_1_" enable-background="new    ">
	<g id="Rounded_Rectangle_3_copy_2">
		<g>
			<path fill="#ECF2FD" d="M133.76,19.518L113.552,7.209c-1.073-0.653-1.942-0.278-1.942,0.841v13.765
				c0,1.117,0.869,2.554,1.942,3.207L133.76,37.33c1.073,0.654,1.942,0.278,1.942-0.841V22.726
				C135.702,21.607,134.833,20.171,133.76,19.518z"/>
		</g>
	</g>
</g>
<g id="Rounded_Rectangle_3_copy_3_1_" enable-background="new    ">
	<g id="Rounded_Rectangle_3_copy_3">
		<g>
			<path fill="#ECF2FD" d="M199.683,79.962l-20.206-12.309c-1.073-0.653-1.944-0.276-1.944,0.841v13.765
				c0,1.118,0.871,2.554,1.944,3.207l20.206,12.309c1.072,0.654,1.944,0.277,1.944-0.841V83.168
				C201.627,82.051,200.755,80.615,199.683,79.962z"/>
		</g>
	</g>
</g>
<g id="Shape_108_1_" enable-background="new    ">
	<g id="Shape_108">
		<g>
			<path fill="#F9AC45" d="M133.588,128.437l-17.526,15.385l1.096,8.791c0,0,12.597-10.166,15.335-12.088
				c2.738-1.924,3.287-2.197,3.287-2.197L133.588,128.437z"/>
		</g>
	</g>
</g>
<g id="Shape_103_1_" enable-background="new    ">
	<g id="Shape_103">
		<g>
			<path fill="#E3B485" d="M145.624,121.844c-0.821-2.473-2.192-3.022-3.288-4.396c-1.094-1.374-1.094-6.869-5.477-7.692
				c-4.381-0.823-11.501-0.274-12.05,2.197c0,0,0.549,12.639,3.288,14.286c2.738,1.648,4.381,2.748,6.572,1.1
				c2.189-1.649,2.189-1.1,2.189-1.1l1.096,4.397C137.955,130.635,146.445,124.315,145.624,121.844z"/>
		</g>
	</g>
</g>
<g id="Shape_104_1_" enable-background="new    ">
	<g id="Shape_104">
		<g>
			<path fill="#F9AC45" d="M140.664,117.448c7.395,3.572,3.287,5.494,3.287,5.494c-5.751,3.572-6.572,10.99-6.572,10.99l1.096,1.098
				c0,0,4.381-6.318,7.666-9.89c3.288-3.571,8.765,1.098,8.765,1.098C159.012,118.271,140.664,117.448,140.664,117.448z"/>
		</g>
	</g>
</g>
<g id="Shape_107_1_" enable-background="new    ">
	<g id="Shape_107">
		<g>
			<path fill="#F9AC45" d="M150.032,128.413c-4.653,0.34-8.52,19.347-11.757,23.236c-3.238,3.891-20.708,9.084-20.708,9.084
				l2.249,4.36c0,0,22.688-4.165,25.131-5.849s2.126-5.248,8.556-16.601C159.933,131.293,150.032,128.413,150.032,128.413z"/>
		</g>
	</g>
</g>
<g id="Shape_100_1_" enable-background="new    ">
	<g id="Shape_100">
		<g>
			<path fill="#97CEFF" d="M124.645,137.012c0,0-35.054-19.979-39.436-21.794c-4.382-1.817-4.382,2.179-4.382,2.179
				s0,22.883,0,27.241c0,4.36,2.19,4.36,2.19,4.36l41.627,22.883c0,0,1.096-25.789,1.096-29.421
				C125.74,138.828,124.645,137.012,124.645,137.012z"/>
		</g>
	</g>
</g>
<g id="Shape_102_1_" enable-background="new    ">
	<g id="Shape_102">
		<g>
			<path fill="#013765" d="M142.336,107.557c-1.915-3.571-2.738-7.417-7.666-6.593c-4.93,0.825-7.668,1.098-9.86,4.396
				c-2.189,3.296-2.189,3.296-2.189,3.296s2.464,5.77,5.478,4.396c3.013-1.374,6.023-2.198,6.572,0
				c0.547,2.198,1.096,4.396,1.096,4.396s-0.274-3.022,2.189-3.298c2.466-0.274,2.466,2.473,2.191,3.298
				c-0.274,0.824,2.189,2.197,2.189,2.197S144.253,111.129,142.336,107.557z"/>
		</g>
	</g>
</g>
<g id="Shape_101_1_" enable-background="new    ">
	<g id="Shape_101">
		<g>
			<polygon fill="#B9E0FD" points="95.067,141.115 92.876,167.487 102.736,172.982 103.83,146.607 			"/>
		</g>
	</g>
</g>
<g id="Shape_110_1_" enable-background="new    ">
	<g id="Shape_110">
		<g>
			<path fill="#328DF7" d="M176.296,182.282c-0.821-1.647-2.192,1.101-2.192,1.101s1.917,13.187,1.096,14.284
				c-0.821,1.101-28.479,15.387-28.479,15.387l1.096-15.387l-2.191,2.198l-2.192,15.385c0,0,1.371,2.198,5.478,0
				c4.108-2.196,28.482-16.482,28.482-16.482S177.117,183.931,176.296,182.282z"/>
		</g>
	</g>
</g>
<g id="Shape_1_1_" enable-background="new    ">
	<g id="Shape_1">
		<g>
			<path fill="#ECF2FD" d="M163.014,68.363c0-0.594-0.156-1.264-0.449-1.945c0.747-0.87,0.552-2.653-0.517-4.364
				c-0.214-0.344-0.454-0.666-0.711-0.964c0.019-0.133,0.027-0.272,0.027-0.417c0-1.857-1.479-4.225-3.296-5.277
				c-0.147-0.083-0.293-0.159-0.436-0.221c-0.574-1.371-1.661-2.676-2.863-3.373c-0.985-0.569-1.867-0.639-2.474-0.288
				c-0.605-1.05-1.488-2.005-2.473-2.576c-1.202-0.695-2.289-0.65-2.863,0.057c-1.958-1.408-3.732-0.866-3.732,1.177
				c0,0.145,0.01,0.295,0.027,0.45c-0.256,0-0.494,0.044-0.71,0.14c-1.068,0.472-1.264,2.029-0.518,3.766
				c-0.292,0.341-0.449,0.831-0.449,1.424c0,1.227,0.66,2.719,1.68,3.894c0,0.002,0,0.006,0,0.008
				c-0.259,1.878,1.29,4.552,3.267,5.697c0.147,0.085,0.293,0.159,0.436,0.222c0.29,0.693,0.713,1.369,1.214,1.959v1.861
				c0,2.321,1.849,5.28,4.122,6.596c2.273,1.317,4.123,0.499,4.123-1.822v-1.86c0.501-0.009,0.923-0.197,1.214-0.555
				c0.143,0.104,0.288,0.198,0.436,0.284c2.001,1.157,3.534,0.235,3.267-1.922C162.354,70.317,163.014,69.59,163.014,68.363z
				 M148.239,65.296c-0.095-0.423-0.422-0.867-0.794-1.083c-0.324-0.187-0.429-0.063-0.921-0.348c-2.178-1.261-2.181-4.63,0-3.368
				c0.456,0.265,0.826,0.101,0.826-0.364c0-0.464-0.37-1.056-0.826-1.319c-1.073-0.622-2.028-0.648-2.63-0.184
				c-0.41-0.546-0.667-1.188-0.667-1.727c0-0.523,0.234-0.762,0.429-0.871c0.284-0.156,0.284-0.642,0-1.126
				c-0.979-1.681-0.161-2.897,1.221-2.099c0.44,0.256,0.854,0.67,1.166,1.168c0.32,0.515,0.845,0.818,1.164,0.675
				c0.322-0.142,0.322-0.675,0-1.19c-0.621-0.997-1.449-1.826-2.33-2.336c0-0.929,0.74-1.256,1.647-0.729
				c0.206,0.119,0.413,0.279,0.612,0.478c0.459,0.454,0.976,0.49,1.103,0.078c0.195-0.623,0.847-0.758,1.584-0.33
				c0.91,0.526,1.649,1.709,1.649,2.639v5.135c-1.881-0.696-3.299,0.183-3.299,2.216c0,0.464,0.37,1.056,0.823,1.319
				c0.456,0.263,0.826,0.101,0.826-0.365c0-1.097,0.689-1.634,1.649-1.425v6.589c0,0.928-0.739,1.255-1.649,0.729
				C149.086,67.032,148.435,66.143,148.239,65.296z M152.296,74.504c-1.075-0.623-1.991-1.857-2.332-3.035l4.665,2.701
				C154.288,74.954,153.372,75.127,152.296,74.504z M154.77,72.569l-4.946-2.864v-0.562c0.984,0.569,1.867,0.639,2.473,0.289
				c0.606,1.049,1.488,2.006,2.474,2.575V72.569z M160.697,68.363c-0.601-1.163-1.556-2.243-2.629-2.865
				c-0.456-0.263-0.826-0.101-0.826,0.364c0,0.465,0.37,1.056,0.826,1.319c2.169,1.257,2.169,4.624,0,3.368
				c-0.207-0.119-0.413-0.28-0.613-0.479c-0.458-0.453-0.976-0.489-1.103-0.078c-0.195,0.622-0.846,0.758-1.583,0.331
				c-0.91-0.526-1.649-1.71-1.649-2.639v-6.589c0.959,0.902,1.649,2.238,1.649,3.335c0,0.464,0.369,1.055,0.823,1.319
				c0.456,0.263,0.826,0.1,0.826-0.365c0-2.032-1.418-4.555-3.299-6.034v-5.137c0-0.928,0.739-1.256,1.649-0.729
				c0.737,0.427,1.388,1.316,1.583,2.163c0.127,0.562,0.645,1.123,1.103,1.201c0.2,0.033,0.406,0.111,0.613,0.229
				c0.907,0.527,1.646,1.711,1.646,2.64c-0.88-0.511-1.708-0.641-2.33-0.364c-0.322,0.142-0.322,0.675,0,1.19
				c0.32,0.516,0.845,0.818,1.166,0.675c0.312-0.137,0.725-0.073,1.164,0.182c1.389,0.803,2.199,2.967,1.221,3.51
				c-0.283,0.158-0.283,0.644,0,1.127c0.195,0.337,0.429,0.846,0.429,1.369C161.364,67.946,161.108,68.289,160.697,68.363z"/>
		</g>
	</g>
</g>
<g id="Shape_1_copy_2_1_" enable-background="new    ">
	<g id="Shape_1_copy_2">
		<g>
			<path fill-rule="evenodd" clip-rule="evenodd" fill="#B9E0FD" d="M117.103,158.369l-2.959-1.588l-2.041-4.057l1.123,0.604
				l1.122-1.053l-3.367-1.806l-1.021,1.106l3.062,6.083l3.164,1.697L117.103,158.369z M120.967,155.88l-6.039-3.254l-1.613,1.457
				l1.024,1.978l1.509-1.363l4.025,2.172l-0.572,0.517l1.097,2.253l1.717-1.55L120.967,155.88z M116.526,155.524l1.495,2.981
				l-1.965,1.944l-0.567-1.13l-2.241-1.193l1.701,3.392l2.189,1.091l2.947-2.917l-1.597-3.186L116.526,155.524z"/>
		</g>
	</g>
</g>
</svg>
