<?xml version="1.0" encoding="utf-8"?>
<!-- Generator: Adobe Illustrator 16.0.0, SVG Export Plug-In . SVG Version: 6.00 Build 0)  -->
<!DOCTYPE svg PUBLIC "-//W3C//DTD SVG 1.1//EN" "http://www.w3.org/Graphics/SVG/1.1/DTD/svg11.dtd">
<svg version="1.1" id="Group_2_1_" xmlns="http://www.w3.org/2000/svg" xmlns:xlink="http://www.w3.org/1999/xlink" x="0px" y="0px"
	 width="220px" height="210px" viewBox="0 0 220 210" enable-background="new 0 0 220 210" xml:space="preserve">
<g id="Ellipse_6_copy_5">
	<g>
		<ellipse fill="#ECF2FD" cx="109.516" cy="150.835" rx="107.5" ry="56.654"/>
	</g>
</g>
<g id="Shape_47_copy_2">
	<g>
		<path fill="#F9C188" d="M58.978,105.178l1.88-2.002l-0.383-10.089l-4.262,0.362l-4.815,2.778l-1.387,8.068l1.26,6.283l3.084,0.374
			l3.044-1.581l-0.486-3.341C57.589,106.589,58.978,105.178,58.978,105.178z"/>
	</g>
</g>
<g id="Shape_45_copy_2">
	<g>
		<path fill="#131B23" d="M58.402,98.897c0.136,0.813,0.262,1.408,0.262,1.408S58.578,99.688,58.402,98.897z M59.633,91.657
			c-0.766-1.482-1.252-2.623-2.623-2.663c-1.421-0.041-2.291,0.647-2.291,0.647s-6.696,0.911-7.386,4.6
			c-0.729,3.898,0.226,10.644,4.233,11.53c0,0,3.921-2.195,3.832-4.461c-0.087-2.215,0.592-6.578,1.691-5.582
			c0.633,0.574,1.064,2.047,1.313,3.169c-0.268-1.604-0.575-4.066-0.029-4.575c0.797-0.744,0.87-1.215,0.87-1.215l-2.702,0.071
			c-0.055,0.001-0.095,0.002-0.095,0.002l0.095-0.002C57.115,93.162,60.328,93.005,59.633,91.657z"/>
	</g>
</g>
<g id="Shape_2_copy_4">
	<g>
		<path fill="#131B23" d="M60.095,89.494c0,0-0.563-0.984-1.612-0.235c0,0-2.878-2.665-4.856-2.001
			c-2.103,0.705-2.148,1.685-2.148,1.685s-0.924,0.141-1.186,1.504c-0.267,1.391-0.568,0.968-0.568,0.968s-2.438,0.799-1.279,5.365
			c0.041,0.161,0.086,0.327,0.137,0.5c0,0,0.282-0.647,0.585,0.662c0.305,1.317,0.848,3.668,0.848,3.668l0.688-0.741l-1.196-6.905
			c0,0,2.485-2.505,3.39-2.282c0.888,0.22,4.878,1.8,5.572,1.271C59.147,92.437,61.212,91.724,60.095,89.494z"/>
	</g>
</g>
<g id="Rounded_Rectangle_31_copy_2">
	<g>
		<path fill="#CFD0E2" d="M180.628,115.103l-48.993-20.188c-3.046-1.254-7.99-1.123-11.142,0.298l-50.391,22.723
			c-4.152,1.872-5.257,4.842-2.339,6.63l48.245,29.58c4.111,2.52,11.104,2.354,15.429-0.367l51.029-32.114
			C185.57,119.711,184.687,116.775,180.628,115.103z"/>
	</g>
</g>
<g id="Rounded_Rectangle_31_copy">
	<g>
		<path fill="#4F5087" d="M190.526,96.585l-57.434-23.626c-3.572-1.469-9.368-1.314-13.062,0.349L60.958,99.9
			c-4.867,2.19-6.164,5.666-2.743,7.758l56.558,34.618c4.817,2.949,13.018,2.757,18.087-0.429l59.82-37.584
			C196.319,101.978,195.283,98.542,190.526,96.585z"/>
	</g>
</g>
<g id="Rounded_Rectangle_31">
	<g>
		<path fill="#DAE5FA" d="M190.526,83.18l-57.434-23.625c-3.572-1.47-9.368-1.314-13.062,0.349L60.958,86.496
			c-4.867,2.191-6.164,5.665-2.743,7.758l56.558,34.618c4.817,2.951,13.018,2.759,18.087-0.427l59.82-37.586
			C196.319,88.574,195.283,85.138,190.526,83.18z"/>
	</g>
</g>
<g id="Rectangle_23_copy_4">
	<g>
		<rect x="133.874" y="61.884" fill="#E17C49" width="24.286" height="23.208"/>
	</g>
</g>
<g id="Ellipse_19_copy_4">
	<g>
		<ellipse fill="#E38456" cx="146.017" cy="61.988" rx="12.143" ry="7.433"/>
	</g>
</g>
<g id="Ellipse_19_copy_8">
	<g>
		<ellipse fill="#E17C49" cx="146.017" cy="85.197" rx="12.143" ry="7.433"/>
	</g>
</g>
<g id="Rectangle_23">
	<g>
		<rect x="117.932" y="6.974" fill="#3F408F" width="21.981" height="74.167"/>
	</g>
</g>
<g id="Ellipse_19">
	<g>
		<ellipse fill="#4C4C9D" cx="129.016" cy="7.33" rx="11.038" ry="6.785"/>
	</g>
</g>
<g id="Rectangle_23_copy_3">
	<g>
		<rect x="105.943" y="63.105" fill="#E17C49" width="21.858" height="31.759"/>
	</g>
</g>
<g id="Ellipse_19_copy_3">
	<g>
		<ellipse fill="#E38456" cx="116.873" cy="63.716" rx="10.93" ry="6.719"/>
	</g>
</g>
<g id="Ellipse_19_copy_6">
	<g>
		<ellipse fill="#E17C49" cx="116.873" cy="94.253" rx="10.93" ry="6.718"/>
	</g>
</g>
<g id="Rectangle_23_copy_2">
	<g>
		<rect x="95.014" y="85.092" fill="#3D3D89" width="21.859" height="20.765"/>
	</g>
</g>
<g id="Ellipse_19_copy_2">
	<g>
		<ellipse fill="#4C4C9D" cx="105.943" cy="85.703" rx="10.93" ry="6.718"/>
	</g>
</g>
<g id="Ellipse_19_copy_5">
	<g>
		<ellipse fill="#3D3D89" cx="105.943" cy="105.247" rx="10.93" ry="6.718"/>
	</g>
</g>
<g id="Ellipse_19_copy_7">
	<g>
		<ellipse fill="#3F408F" cx="137.517" cy="105.247" rx="10.929" ry="6.718"/>
	</g>
</g>
<g id="Rectangle_23_copy">
	<g>
		<rect x="126.432" y="76.345" fill="#3F408F" width="22.085" height="29.292"/>
	</g>
</g>
<g id="Ellipse_19_copy">
	<g>
		<ellipse fill="#4C4C9D" cx="137.517" cy="77.153" rx="10.929" ry="6.718"/>
	</g>
</g>
<g id="Shape_259">
	<g>
		<path fill="#ED4625" d="M65.782,97.066c-0.49-1.24-8.846-0.991-8.846-0.991s-1.966,2.479-1.966,3.967
			c0,1.487,5.652,1.239,8.847,0.991C67.011,100.785,66.273,98.306,65.782,97.066z"/>
	</g>
</g>
<g id="Shape_255">
	<g>
		<path fill="#F9C289" d="M46.123,119.877l-3.932-0.994c0,0-2.949,4.166-1.966,5.951c0.983,1.784,6.881,8.926,6.881,8.926
			l2.949-11.9L46.123,119.877z"/>
	</g>
</g>
<g id="Shape_256">
	<g>
		<path fill="#F9C188" d="M77.578,112.933c-0.394-2.578-11.796-13.883-11.796-13.883s0.787-0.595-0.983-2.975
			c-1.769-2.381-2.948,0.396-3.931,0.991s-0.393,3.174,0,3.967c0.394,0.793,1.965,0.991,1.965,0.991l6.881,7.934l1.966,7.935
			c0,0,2.163-0.597,3.932-0.992C77.382,116.504,77.972,115.512,77.578,112.933z"/>
	</g>
</g>
<g id="Shape_258">
	<g>
		<path fill="#17C3EF" d="M59.094,84.843c-4.091-2.648-6.544,3.178-6.544,3.178c-2.183-1.324-6.545,2.118-6.545,2.118
			c-5.182,7.417,2.181,11.654,2.181,11.654s4.637,0.529,7.637,0c3-0.53,1.364-3.708,1.09-5.297
			c-0.272-1.588,1.091-3.178,1.091-3.178C63.731,89.875,59.094,84.843,59.094,84.843z"/>
	</g>
</g>
<g id="Shape_257">
	<g>
		<path fill="#373876" d="M72.663,174.417c-1.098,0.677-1.702,1.124-2.016,1.42c0.031,0.354,0.05,0.564,0.05,0.564
			s-0.747,0.094-0.05-0.564c-0.405-4.539-3.295-35.872-5.849-35.136l-16.71,0.99l-0.983,2.977c0,0,0.197,34.114,0,36.693
			c-0.196,2.576-0.589,4.561,1.966,3.967c2.556-0.597,8.847-4.959,8.847-4.959s-0.394-4.762-3.932-2.976h-1.966
			c0,0,3.539-28.164,2.949-30.743v-1.982l2.949,2.975c0,0,7.667,22.214,7.863,29.751c0,0-1.769,4.165,0,4.958
			c1.77,0.794,4.326,2.182,4.916,0.992c0.59-1.19,5.898-4.959,5.898-4.959l0.983-1.983
			C77.578,176.401,76.203,172.236,72.663,174.417z"/>
	</g>
</g>
<g id="Shape_254">
	<g>
		<path fill="#328DF7" d="M72.663,110.95l-15.564-4.959c0,0,1.311,3.967-3.112,3.967c-4.424,0-2.949-3.719-3.932-3.967
			c-0.983-0.247-4.915,1.984-4.915,1.984l-3.932,10.907l3.932,1.984v21.816c4.423,7.935,20.642,0,20.642,0l-0.983-27.767
			l7.864,2.976C78.07,114.173,72.663,110.95,72.663,110.95z"/>
	</g>
</g>
<g id="Shape_1_copy_2" opacity="0.102">
	<g>
		<path fill-rule="evenodd" clip-rule="evenodd" fill="#FEFEFF" d="M131.354,7.554l-2.606,1.515l-4.999-0.606l0.988-0.574
			l-0.802-1.497l-2.965,1.723l0.891,1.444l7.499,0.909l2.786-1.62L131.354,7.554z M128.029,8.509l-1.021-1.983l3.556-2.053
			l0.39,0.752l2.767,0.368l-1.16-2.255l-2.734-0.301l-5.336,3.08l1.092,2.119L128.029,8.509z M133.682,5.875l-3.927-0.481
			l-1.65,1.043l3.674,0.45l1.513,2.676l-1.394-0.171l-1.963,1.152l4.18,0.513l1.836-1.167L133.682,5.875z"/>
	</g>
</g>
<g id="Shape_1_copy_12" opacity="0.102">
	<g>
		<path fill-rule="evenodd" clip-rule="evenodd" fill="#FEFEFF" d="M140.345,76.743l-2.606,1.514l-4.999-0.605l0.988-0.575
			l-0.802-1.497l-2.965,1.724l0.891,1.443l7.499,0.909l2.786-1.619L140.345,76.743z M137.02,77.698l-1.021-1.984l3.558-2.054
			l0.387,0.754l2.768,0.368l-1.16-2.256l-2.734-0.301l-5.336,3.08l1.094,2.12L137.02,77.698z M142.672,75.063l-3.927-0.481
			l-1.65,1.043l3.674,0.45l1.513,2.676l-1.394-0.17l-1.963,1.151l4.18,0.513l1.836-1.167L142.672,75.063z"/>
	</g>
</g>
<g id="Shape_1_copy_13" opacity="0.102">
	<g>
		<path fill-rule="evenodd" clip-rule="evenodd" fill="#FEFEFF" d="M107.378,85.768l-2.606,1.514l-4.999-0.606l0.989-0.574
			l-0.801-1.497l-2.966,1.723l0.891,1.445l7.499,0.909l2.786-1.619L107.378,85.768z M104.054,86.722l-1.021-1.982l3.557-2.054
			l0.387,0.752l2.768,0.369l-1.162-2.256l-2.733-0.3l-5.335,3.08l1.092,2.119L104.054,86.722z M109.707,84.088l-3.927-0.481
			l-1.65,1.044l3.673,0.449l1.513,2.677l-1.394-0.171l-1.963,1.151l4.18,0.513l1.838-1.167L109.707,84.088z"/>
	</g>
</g>
<g id="Shape_1_copy_10" opacity="0.102">
	<g>
		<path fill-rule="evenodd" clip-rule="evenodd" fill="#3F408F" d="M119.367,63.707l-2.607,1.515l-4.998-0.606l0.988-0.574
			l-0.801-1.496l-2.966,1.723l0.89,1.444l7.5,0.909l2.785-1.619L119.367,63.707z M116.042,64.662l-1.021-1.983l3.557-2.052
			l0.387,0.752l2.77,0.369l-1.163-2.256l-2.732-0.301l-5.335,3.08l1.091,2.119L116.042,64.662z M121.694,62.028l-3.926-0.481
			l-1.651,1.043l3.674,0.45l1.513,2.676l-1.394-0.17l-1.964,1.151l4.18,0.513l1.837-1.167L121.694,62.028z"/>
	</g>
</g>
<g id="Shape_1_copy_11" opacity="0.102">
	<g>
		<path fill-rule="evenodd" clip-rule="evenodd" fill="#3F408F" d="M147.338,62.705l-2.606,1.514l-4.999-0.606l0.988-0.574
			l-0.802-1.497l-2.966,1.723l0.892,1.444l7.499,0.909l2.786-1.62L147.338,62.705z M144.013,63.659l-1.021-1.982l3.556-2.054
			l0.389,0.752l2.768,0.369l-1.161-2.256l-2.734-0.3l-5.335,3.08l1.092,2.119L144.013,63.659z M149.665,61.025l-3.927-0.481
			l-1.65,1.043l3.673,0.45l1.514,2.676l-1.395-0.17l-1.962,1.151l4.18,0.513l1.836-1.167L149.665,61.025z"/>
	</g>
</g>
</svg>
