<?xml version="1.0" encoding="utf-8"?>
<!-- Generator: Adobe Illustrator 16.0.0, SVG Export Plug-In . SVG Version: 6.00 Build 0)  -->
<!DOCTYPE svg PUBLIC "-//W3C//DTD SVG 1.1//EN" "http://www.w3.org/Graphics/SVG/1.1/DTD/svg11.dtd">
<svg version="1.1" xmlns="http://www.w3.org/2000/svg" xmlns:xlink="http://www.w3.org/1999/xlink" x="0px" y="0px" width="220px"
	 height="220px" viewBox="0 0 220 220" enable-background="new 0 0 220 220" xml:space="preserve">
<g id="Ellipse_6_copy_2_1_" enable-background="new    ">
	<g id="Ellipse_6_copy_2">
		<g>
			<ellipse fill="#ECF2FD" cx="109.879" cy="161.128" rx="108" ry="56.7"/>
		</g>
	</g>
</g>
<g id="Shape_237_1_" enable-background="new    ">
	<g id="Shape_237">
		<g>
			<polygon fill="#DE8C64" points="70.731,64.392 66.103,66.755 93.877,67.937 106.221,65.574 			"/>
		</g>
	</g>
</g>
<g id="Ellipse_4_copy_2_1_" enable-background="new    ">
	<g id="Ellipse_4_copy_2">
		<g>
			<ellipse fill="#ECF2FD" cx="152.503" cy="142.386" rx="24.509" ry="12.961"/>
		</g>
	</g>
</g>
<g id="Shape_37_copy_1_" enable-background="new    ">
	<g id="Shape_37_copy">
		<g>
			<path fill="#E6A666" d="M151.731,118.349c-1.233-4.146-1.539-7.384-1.539-7.384l-5.404,0.577c0,0,0.343,21.438,0.663,26.501
				c0.023,0.389,0.049,0.682,0.072,0.86c0.337,2.498,4.345-0.356,4.345-0.356S152.963,122.493,151.731,118.349z"/>
		</g>
	</g>
</g>
<g id="Shape_39_copy_1_" enable-background="new    ">
	<g id="Shape_39_copy">
		<g>
			<path fill="#4F3321" d="M149.777,137.506c0,0-1.081,0.538-3.242,0.538c-2.163,0-2.163,0-2.163,0s-3.424,1.437-4.865,1.617
				c-1.442,0.178-5.228,0.537-4.327,1.615c0.901,1.078,15.139,0.539,15.139,0.539l0.541-4.31H149.777z"/>
		</g>
	</g>
</g>
<g id="Shape_40_copy_1_" enable-background="new    ">
	<g id="Shape_40_copy">
		<g>
			<path fill="#E6A666" d="M163.619,113.647l-4.925-0.516c0,0,1.563,23.006,1.702,24.207c0.138,1.201,3.42,1.547,3.42,1.547
				S167.104,125.148,163.619,113.647z"/>
		</g>
	</g>
</g>
<g id="Shape_36_copy_2_1_" enable-background="new    ">
	<g id="Shape_36_copy_2">
		<g>
			<path fill="#2B5AA3" d="M163.827,113.141c1.899-8.255,1.653-41.87,1.653-41.87l-19.872-3.44c0,0,1.903,11.125,0.358,21.18
				c-1.409,9.16-0.798,21.357-0.798,21.357l-0.879,0.008l-0.072,3.333l7.038-0.17l-0.125-1.821l-0.065-0.928
				c2.377-3.982,6.304-27.787,6.304-27.787s0.977,9.492,1.439,16.701c0.421,6.561-0.841,13.959-0.841,13.959l-0.715,0.444
				l0.002,2.067l7.474,0.154l-0.25-2.39L163.827,113.141z"/>
		</g>
	</g>
</g>
<g id="Shape_24_copy_1_" enable-background="new    ">
	<g id="Shape_24_copy">
		<g>
			<polygon fill="#D59759" points="148.604,25.285 149.155,30.671 157.11,29.782 157.11,25.472 			"/>
		</g>
	</g>
</g>
<g id="Shape_42_copy_1_" enable-background="new    ">
	<g id="Shape_42_copy">
		<g>
			<path fill="#4F3321" d="M165.495,142.922c-0.185-0.907-1.108-3.268-1.108-3.268l0.553-1.087l-1.66-0.545l-3.874-0.544v2.176
				c0,0-1.293,0.908-2.216,1.091c-0.922,0.181-2.029,0.544-4.982,2.177c-2.952,1.634,2.031,1.451,4.982,1.089
				c2.954-0.363,6.09,0.545,6.09,0.545S165.68,143.828,165.495,142.922z"/>
		</g>
	</g>
</g>
<g id="Shape_26_copy_2_1_" enable-background="new    ">
	<g id="Shape_26_copy_2">
		<g>
			<path fill="#42A1D2" d="M171.078,43.922c0,0-1.998-10.564-6.884-12.109c-1.215-0.908-4.955-2.06-4.955-2.06l-7.163,0.33
				l-0.881-0.178c0,0-0.311-0.181-1.567-0.056c-1.256,0.124-3.659-1.135-5.071,0.988c-1.424,2.139-0.641,4.526-0.641,4.526
				s0.76,16.425,1.435,20.401c0.69,4.078-2.445,15.39-2.445,15.39s9.85,1.204,22.521,1.714l0.714-18.375l-0.024,0.02l0.395-9.563
				l-0.37,9.544l5.505-4.472L171.078,43.922z"/>
		</g>
	</g>
</g>
<g id="Shape_239_1_" enable-background="new    ">
	<g id="Shape_239">
		<g>
			<path fill="#E6A666" d="M137.884,45.81c0,0-9.186,14.372-12.002,16.89c-2.814,2.52-3.999,1.037-4.889,2.223
				c-0.888,1.186,0.593,2.371,1.777,2.223c1.187-0.148-3.704,3.407-1.777,4.889c1.926,1.482,6.521,1.778,7.111-2.222
				c0.594-4,1.778-4.89,1.778-4.89s12.299-12.742,12.002-16.891C141.588,43.883,137.884,45.81,137.884,45.81z"/>
		</g>
	</g>
</g>
<g id="Shape_29_copy_1_" enable-background="new    ">
	<g id="Shape_29_copy">
		<g>
			<polygon fill="#2999CD" points="144.324,31.318 137.28,46.3 141.259,50.375 144.574,46.332 			"/>
		</g>
	</g>
</g>
<g id="Shape_240_1_" enable-background="new    ">
	<g id="Shape_240">
		<g>
			<path fill="#E6A666" d="M172.999,66.256c-0.333-2.778-1.333-16.447-1.333-16.447l-4.891,4c0,0,2.445,11.224,1.778,14.224
				c-0.666,3-0.778,9.001-1.778,10.224c0,0-3.556,1.11-1.777,1.778c1.516,0.568,2.059,0.169,2.187,0.039
				c-0.257,0.282-1.914,2.181-1.297,3.517c0.667,1.445,4.778,2.333,4.889-1.333c0.112-3.668,0.444-4,0.444-4
				S173.332,69.034,172.999,66.256z"/>
		</g>
	</g>
</g>
<g id="Shape_27_copy_1_" enable-background="new    ">
	<g id="Shape_27_copy">
		<g>
			<polygon fill="#2999CD" points="151.914,30.348 151.914,35.735 153.019,36.273 153.019,30.886 			"/>
		</g>
	</g>
</g>
<g id="Shape_28_copy_1_" enable-background="new    ">
	<g id="Shape_28_copy">
		<g>
			<path fill="#2999CD" d="M164.685,34.152c0.689-3.636-1.104-0.54-1.104-0.54s0.552,10.102,1.655,10.775
				C166.34,45.06,163.994,37.788,164.685,34.152z"/>
		</g>
	</g>
</g>
<g id="Shape_25_copy_1_" enable-background="new    ">
	<g id="Shape_25_copy">
		<g>
			<path fill="#2999CD" d="M156.88,27.372c-1.792,4.039-7.939,1.521-7.939,1.521s-1.686,0.216-1.548,1.968
				c0.139,1.75,6.069,1.265,6.069,1.265c2.483,0.403,4.077-1.805,4.077-1.805L156.88,27.372z"/>
		</g>
	</g>
</g>
<g id="Shape_23_copy_1_" enable-background="new    ">
	<g id="Shape_23_copy">
		<g>
			<path fill="#E6A666" d="M161.27,13.98l-1.202-5.333l-10.964-0.331l-7.396,2.788l1.803,8.002c0,0,0.915,4.698,2.107,6.812
				c1.193,2.114,0.678,2.37,3.449,2.586c2.771,0.216,8.487-3.033,8.913-3.69c0.425-0.656,1.765-4.882,1.765-4.882l1.212,0.287
				c0,0-0.045-0.831,0.913-3.57C162.831,13.909,161.27,13.98,161.27,13.98z"/>
		</g>
	</g>
</g>
<g id="Shape_22_copy_1_" enable-background="new    ">
	<g id="Shape_22_copy">
		<g>
			<path fill="#4F0D0F" d="M161.575,12.791c-0.257-0.503,0.435-5.703-0.472-7.181c-0.906-1.477-5.236-2.884-6.842-2.381
				c-1.606,0.502-13.332,1.884-13.332,1.884l-0.609,2.38c0,0-0.702,3.241-0.556,5.169c0.148,1.929,2.543,1.108,2.543,1.108
				s-0.024,2.199,1.14,2.492c0.19,0.048-0.737,1.352-0.408,1.571c1.164,0.776,4.929-3.468,8.444-4.375
				c3.606-0.93,5.768,0.284,5.768,0.284l2.623,1.675l-0.369,3.446c0,0,0.862,0.646,0.665,0.412
				C159.973,19.039,161.832,13.293,161.575,12.791z"/>
		</g>
	</g>
</g>
<g id="Ellipse_4_copy_1_" enable-background="new    ">
	<g id="Ellipse_4_copy">
		<g>
			<ellipse fill="#ECF2FD" cx="66.197" cy="171.95" rx="24.509" ry="12.962"/>
		</g>
	</g>
</g>
<g id="Shape_55_copy_1_" enable-background="new    ">
	<g id="Shape_55_copy">
		<g>
			<path fill="#F37C7F" d="M80.419,170.442c-2.623-0.803-6.657-0.602-6.657-0.602l-3.025-0.603l-3.026,0.603l-1.21,3.013
				c0,0-1.412,1.809,0,2.413c1.413,0.603,5.85,0.2,7.262,0c1.412-0.203,9.279-1.006,10.288-2.413
				C85.058,171.446,83.041,171.246,80.419,170.442z"/>
		</g>
	</g>
</g>
<g id="Shape_56_copy_1_" enable-background="new    ">
	<g id="Shape_56_copy">
		<g>
			<path fill="#F37C7F" d="M65.29,157.971c-1.21-0.201-6.052,1.206-6.052,1.206l-1.815,2.411l-3.026,4.22l-2.42-0.601
				c0,0,0.403,3.216,0,4.821c-0.404,1.608,0.807,0.201,3.631,0c2.824-0.2,2.017-2.611,2.42-4.221
				c0.404-1.606,3.43-2.008,5.447-3.014S65.29,157.971,65.29,157.971z"/>
		</g>
	</g>
</g>
<g id="Shape_236_1_" enable-background="new    ">
	<g id="Shape_236">
		<g>
			<rect x="63.743" y="66.758" fill="#E19F7D" width="35.419" height="21.265"/>
		</g>
	</g>
</g>
<g id="Shape_236_copy_1_" enable-background="new    ">
	<g id="Shape_236_copy">
		<g>
			<polygon fill="#F0AA88" points="98.346,66.685 98.346,88.023 107.401,86.903 107.401,65.564 			"/>
		</g>
	</g>
</g>
<g id="Shape_53_copy_1_" enable-background="new    ">
	<g id="Shape_53_copy">
		<g>
			<path fill="#2E59A6" d="M76.415,110.744l-22.183-9.03c0,0-0.548,1.044-0.639,4.735c-0.081,3.245,0.989,28.253,0.989,28.253
				s-2.893,25.18-2.981,28.631c-0.079,3.051,2.321,2.709,2.321,2.709s1.551,0.246,2.893-0.696c1.025-0.72,1.93-2.688,1.93-2.688
				s1.938-19.09,3.098-21.876c1.146-2.756,0.881-6.979,1.735-13.179c0.833-6.041,1.652-5.472,1.655-3.472
				c0.001,2.019,2.275,13.591,2.275,13.591s0.295,2.138-1.109,6.158c-1.427,4.086,0.699,26.978,0.699,26.978
				s0.314,1.679,1.522,2.026c1.215,0.349,3.325-0.634,3.325-0.634s4.463-30.723,4.658-32.085
				C76.947,137.78,76.415,110.744,76.415,110.744z"/>
		</g>
	</g>
</g>
<g id="Shape_47_copy_1_" enable-background="new    ">
	<g id="Shape_47_copy">
		<g>
			<path fill="#F9C188" d="M78.764,41.711h-6.657l-6.657,3.015l-1.816,9.646l-0.605,3.014l6.052,4.22l0.605-1.809l3.026-1.206
				c0.962,0.958,3.898,1.79,5.782,1.443c0.487-0.089-0.227-1.382,0.27-1.443C81.185,58.291,78.764,41.711,78.764,41.711z"/>
		</g>
	</g>
</g>
<g id="Shape_238_1_" enable-background="new    ">
	<g id="Shape_238">
		<g>
			<path fill="#F9C188" d="M107.214,80.924c-0.741-1.333-2.519,2.519-3.556,3.112c-1.038,0.592-13.335,4.889-13.335,4.889
				s-2.37,6.371-0.889,5.779c1.482-0.592,15.113-7.111,15.113-7.111s0.148,0.889,3.112-0.89
				C110.621,84.924,107.955,82.258,107.214,80.924z"/>
		</g>
	</g>
</g>
<g id="Shape_49_copy_1_" enable-background="new    ">
	<g id="Shape_49_copy">
		<g>
			<path fill="#FED327" d="M85.448,80.283c0.126-5.828-5.464-11.617-6.24-11.728c-1.412-0.202-7.262-6.029-7.262-6.029
				l-12.104-6.028c-1.008-1.608-6.455-0.401-7.867,0.604c-1.413,1.004-7.666,17.482-7.867,21.703
				c-0.202,4.22,7.666,2.813,7.867,3.617c0.202,0.805,1.412,16.681,1.21,18.69s2.824,4.221,4.236,4.823
				c1.412,0.603,1.815,1.809,1.815,1.809s2.219,1.206,9.078,4.22c6.858,3.015,7.867-1.807,7.867-1.807l3.3-17.003
				c0,0,2.339,3.282,4.893,2.994c3.071-0.346,5.272-1.909,5.272-1.909l1.089-5.377C90.736,88.86,85.273,88.328,85.448,80.283z"/>
		</g>
	</g>
</g>
<g id="Shape_52_copy_1_" enable-background="new    ">
	<g id="Shape_52_copy">
		<g>
			<polygon fill="#E1AA1A" points="51.976,64.938 50.16,76.995 52.581,76.995 			"/>
		</g>
	</g>
</g>
<g id="Shape_48_copy_1_" enable-background="new    ">
	<g id="Shape_48_copy">
		<g>
			<path fill="#E1AA1B" d="M61.213,56.498c-1.008,0-1.21,1.809-1.21,1.809s1.613,2.21,3.631,3.014
				c2.018,0.805,6.657,2.614,7.868,1.206C71.502,62.526,62.223,56.498,61.213,56.498z"/>
		</g>
	</g>
</g>
<g id="Shape_45_copy_1_" enable-background="new    ">
	<g id="Shape_45_copy">
		<g>
			<path fill="#4E0D0E" d="M74.505,49.744c-0.103,1.107-0.138,1.931-0.138,1.931S74.47,50.842,74.505,49.744z M79.208,40.822
				c-0.605-2.412-0.907-4.22-3.026-4.824c-2.118-0.602-3.631,0-3.631,0s-9.077-1.205-10.893,3.015
				c-1.816,4.22-2.421,12.057,1.815,15.073c0,0,5.446-0.302,6.051-3.016c0.605-2.713,3.026-7.837,4.236-6.028
				c0.709,1.059,0.794,3.148,0.744,4.702c0.203-2.189,0.672-5.507,1.677-5.907c1.514-0.604,1.816-1.207,1.816-1.207l-4.093-1.164
				c-0.083-0.023-0.143-0.041-0.143-0.041l0.143,0.041C74.779,41.713,79.761,43.024,79.208,40.822z"/>
		</g>
	</g>
</g>
<g id="Shape_8_copy_2_1_" enable-background="new    ">
	<g id="Shape_8_copy_2">
		<g>
			<path fill="#E1AA1B" d="M61.749,104.177l1.111-43.511C62.86,60.667,61.263,82.423,61.749,104.177z"/>
		</g>
	</g>
</g>
<g id="Shape_51_copy_1_" enable-background="new    ">
	<g id="Shape_51_copy">
		<g>
			<polygon fill="#E1AA1B" points="77.595,76.404 75.375,110.143 78.652,77.744 			"/>
		</g>
	</g>
</g>
<g id="Shape_2_copy_2_1_" enable-background="new    ">
	<g id="Shape_2_copy_2">
		<g>
			<path fill="#4F0D0F" d="M80.883,37.98c0,0-0.503-1.653-2.512-1.018c0,0-3.391-4.834-6.531-4.581
				c-3.139,0.254-3.516,1.528-3.516,1.528s-1.256-0.128-2.009,1.525s-1.005,1.018-1.005,1.018s-3.165,0.119-3.04,5.978
				c0.004,0.205,0.013,0.418,0.025,0.637c0,0,0.502-0.636,0.502,1.018c0,1.656,0,4.581,0,4.581l1.005-0.51l0.503-8.651
				c0,0,3.893-2.164,5.023-1.526c1.13,0.636,6.28,4.453,7.536,4.071C78.12,41.67,81.762,41.67,80.883,37.98z"/>
		</g>
	</g>
</g>
</svg>
