<?xml version="1.0" encoding="iso-8859-1"?>
<!-- Generator: Adobe Illustrator 19.0.0, SVG Export Plug-In . SVG Version: 6.00 Build 0)  -->
<svg xmlns="http://www.w3.org/2000/svg" xmlns:xlink="http://www.w3.org/1999/xlink" version="1.1" id="Capa_1" x="0px" y="0px" viewBox="0 0 508 508" style="enable-background:new 0 0 508 508;" xml:space="preserve" width="512px" height="512px">
<g>
	<g>
		<g>
			<path d="M376.9,28.65H0v98.3h376.9V28.65z M360.5,110.55H16.4v-65.5h344.1V110.55z" fill="#1468C6"/>
			<rect x="41" y="69.55" width="16.4" height="16.4" fill="#1468C6"/>
			<rect x="81.9" y="69.55" width="16.4" height="16.4" fill="#1468C6"/>
			<rect x="122.9" y="69.55" width="16.4" height="16.4" fill="#1468C6"/>
			<rect x="41" y="192.45" width="16.4" height="16.4" fill="#1468C6"/>
			<rect x="81.9" y="192.45" width="16.4" height="16.4" fill="#1468C6"/>
			<rect x="122.9" y="192.45" width="16.4" height="16.4" fill="#1468C6"/>
			<rect x="41" y="315.45" width="16.4" height="16.4" fill="#1468C6"/>
			<rect x="81.9" y="315.45" width="16.4" height="16.4" fill="#1468C6"/>
			<rect x="122.9" y="315.45" width="16.4" height="16.4" fill="#1468C6"/>
			<path d="M508,338.15v-62l-22.9-5.7c-1-2.7-2.1-5.3-3.3-8l12.2-20.3l-43.8-43.8l-20.3,12.2c-2.7-1.2-5.3-2.4-8-3.3l-5.7-22.9H377     v-32.8H0v98.3h280.9l7.6,12.7c-1.2,2.7-2.4,5.3-3.3,8l-15.7,3.9H0v98.3h180.3v41h-24.6v24.6H65.5v16.4h90.1v24.6h65.5v-24.6h90.1     v-16.4h-90.1v-24.6h-24.6v-41h80.2l43.3,43.3l20.3-12.2c2.7,1.2,5.3,2.4,8,3.3l5.7,22.9h61.9l5.7-22.9c2.7-1,5.3-2.1,8-3.3     l20.3,12.2l43.8-43.8l-12-20.3c1.2-2.7,2.4-5.3,3.3-8L508,338.15z M285,233.45H16.4v-65.5h344.1v16.4h-6.4l-5.7,22.9     c-2.7,1-5.3,2.1-8,3.3l-20.3-12.2L285,233.45z M204.8,430.15v32.8H172v-32.8H204.8z M285.8,356.35H16.4v-65.6h245.8v47.4     l22.9,5.7c1,2.7,2.1,5.3,3.3,8L285.8,356.35z M473.3,369.65l-25.7,25.7l-17.1-10.2l-22.4,9.3l-4.8,19.3h-36.4l-4.8-19.3     l-22.4-9.3l-17.1,10.2l-25.7-25.7l10.2-17.1l-9.3-22.4l-19.3-4.8v-36.4l19.3-4.8l9.3-22.4l-10.2-17.1l25.7-25.7l17.1,10.2     l22.4-9.3l4.8-19.3h36.4l4.8,19.3l22.4,9.3l17.1-10.2l25.7,25.7l-10.3,17.2l9.3,22.4l19.3,4.8v36.4l-19.3,4.8l-9.3,22.4     L473.3,369.65z" fill="#1468C6"/>
			<path d="M385.1,249.85c-31.6,0-57.4,25.7-57.4,57.4c0,31.6,25.7,57.4,57.4,57.4c31.7,0,57.4-25.7,57.4-57.4     C442.5,275.55,416.7,249.85,385.1,249.85z M385.1,348.15c-22.6,0-41-18.4-41-41c0-22.6,18.4-41,41-41c22.6,0,41,18.4,41,41     C426.1,329.75,407.7,348.15,385.1,348.15z" fill="#1468C6"/>
		</g>
	</g>
</g>
<g>
</g>
<g>
</g>
<g>
</g>
<g>
</g>
<g>
</g>
<g>
</g>
<g>
</g>
<g>
</g>
<g>
</g>
<g>
</g>
<g>
</g>
<g>
</g>
<g>
</g>
<g>
</g>
<g>
</g>
</svg>
