<?xml version="1.0" encoding="utf-8"?>
<!-- Generator: Adobe Illustrator 16.0.0, SVG Export Plug-In . SVG Version: 6.00 Build 0)  -->
<!DOCTYPE svg PUBLIC "-//W3C//DTD SVG 1.1//EN" "http://www.w3.org/Graphics/SVG/1.1/DTD/svg11.dtd">
<svg version="1.1" xmlns="http://www.w3.org/2000/svg" xmlns:xlink="http://www.w3.org/1999/xlink" x="0px" y="0px" width="315px"
	 height="265px" viewBox="0 0 315 265" enable-background="new 0 0 315 265" xml:space="preserve">
<g id="Shape_402_1_" enable-background="new    ">
	<g id="Shape_402">
		<g>
			<path fill="#345C5E" d="M48.235,108.722c0,0,0-3.723-3.177-9.574c-3.176-5.852-6.353,3.191-6.353,3.191l3.177,6.383
				l12.706,63.832v15.957c0,0-20.118,66.491-22.235,73.405c-2.118,6.916,6.353,0,6.353,0l22.235-73.405v-15.957L48.235,108.722z"/>
		</g>
	</g>
</g>
<g id="Shape_403_1_" enable-background="new    ">
	<g id="Shape_403">
		<g>
			<path fill="#345C5E" d="M89.529,205.626v-26.27h-6.353v26.27c0,0,16.941,56.384,19.059,57.448c2.118,1.063,6.353,0,6.353,0
				L89.529,205.626z"/>
		</g>
	</g>
</g>
<g id="Shape_402_copy_1_" enable-background="new    ">
	<g id="Shape_402_copy">
		<g>
			<path fill="#345C5E" d="M235.646,108.582c0,0,0-3.724-3.176-9.574c-3.177-5.852-6.354,3.191-6.354,3.191l3.177,6.383L242,172.413
				v15.958c0,0-20.118,66.49-22.235,73.405c-2.118,6.915,6.353,0,6.353,0l22.235-73.405v-15.958L235.646,108.582z"/>
		</g>
	</g>
</g>
<g id="Shape_403_copy_1_" enable-background="new    ">
	<g id="Shape_403_copy">
		<g>
			<path fill="#345C5E" d="M276.941,205.485v-29.32h-6.354v29.32c0,0,16.941,56.385,19.059,57.448c2.118,1.064,6.354,0,6.354,0
				L276.941,205.485z"/>
		</g>
	</g>
</g>
<g id="Shape_401_1_" enable-background="new    ">
	<g id="Shape_401">
		<g>
			<rect x="26" y="109.879" fill="#F99837" width="222.353" height="12.767"/>
		</g>
	</g>
</g>
<g id="Shape_401_copy_1_" enable-background="new    ">
	<g id="Shape_401_copy">
		<g>
			<rect x="35.529" y="132.22" fill="#F99837" width="222.353" height="12.767"/>
		</g>
	</g>
</g>
<g id="Shape_401_copy_2_1_" enable-background="new    ">
	<g id="Shape_401_copy_2">
		<g>
			<rect x="41.882" y="151.369" fill="#F99837" width="222.353" height="12.767"/>
		</g>
	</g>
</g>
<g id="Shape_401_copy_3_1_" enable-background="new    ">
	<g id="Shape_401_copy_3">
		<g>
			<rect x="38.706" y="170.519" fill="#F99837" width="247.765" height="12.767"/>
		</g>
	</g>
</g>
<g id="Shape_401_copy_4_1_" enable-background="new    ">
	<g id="Shape_401_copy_4">
		<g>
			<rect x="73.647" y="192.859" fill="#F99837" width="212.824" height="12.767"/>
		</g>
	</g>
</g>
<g id="Shape_411_1_" enable-background="new    ">
	<g id="Shape_411">
		<g>
			<path fill-rule="evenodd" clip-rule="evenodd" fill="#345C5E" d="M203.883,256.69c-11.345-0.456-15.883-9.574-15.883-9.574
				s1.815-59.271,3.177-67.022s-2.27-10.031-6.354-12.767s-9.529-9.574-9.529-9.574l-15.882-9.575l-63.53,3.191
				c0,0-2.269,31.916,15.882,31.916s28.588,0,28.588,0v70.214c0,0-3.177,10.031,0,9.575c3.176-0.456,31.764,0,31.764,0h41.295
				C213.412,263.074,215.227,257.146,203.883,256.69z M173.025,253.499c-2.136,0-13.613-6.383-13.613-6.383
				s3.176-17.837,3.176-35.107c0-16.207-3.176-31.915-3.176-31.915h9.529c0,0,3.176,16.907,3.176,33.739
				c0,16.679-3.176,33.283-3.176,33.283S175.611,253.499,173.025,253.499z"/>
		</g>
	</g>
</g>
<g id="Shape_406_1_" enable-background="new    ">
	<g id="Shape_406">
		<g>
			<path fill="#2175FF" d="M162.588,106.688c0,0,0-25.988-3.176-28.724c-3.177-2.735-15.883-15.502-19.059-15.958
				c-3.177-0.456-19.059,0-19.059,0s-17.697,5.472-22.235,12.766c-4.538,7.296-3.176,38.299-3.176,38.299v38.299h63.53l-9.53-44.682
				H162.588z"/>
		</g>
	</g>
</g>
<g id="Shape_407_1_" enable-background="new    ">
	<g id="Shape_407">
		<g>
			<path fill="#FBC69C" d="M134,151.369c-3.177-1.367-14.975-21.885-15.882-22.341c-0.908-0.456,0-25.532,0-25.532l-15.882,3.191
				c0,0,0.907,17.326,0,22.341c-0.908,5.016,22.235,28.725,22.235,28.725s7.714-0.456,9.529,0
				C135.815,158.208,137.176,152.737,134,151.369z"/>
		</g>
	</g>
</g>
<g id="Shape_408_1_" enable-background="new    ">
	<g id="Shape_408">
		<g>
			<polygon fill="#FBC69C" points="149.882,103.496 149.882,116.263 159.412,116.263 162.588,103.496 			"/>
		</g>
	</g>
</g>
<g id="Shape_409_1_" enable-background="new    ">
	<g id="Shape_409">
		<g>
			<polygon fill="#6E9395" points="138.019,110.323 131.666,155.006 185.666,155.006 195.195,110.323 			"/>
		</g>
	</g>
</g>
<g id="Shape_410_1_" enable-background="new    ">
	<g id="Shape_410">
		<g>
			<path fill="#6E9395" d="M185.666,155.006h-79.412l6.353,6.383c0,0,65.345,0,69.882,0
				C187.027,161.389,185.666,155.006,185.666,155.006z"/>
		</g>
	</g>
</g>
<g id="Shape_405_1_" enable-background="new    ">
	<g id="Shape_405">
		<g>
			<path fill="#FBC69C" d="M127.647,23.707l-15.882,12.767c0,0,0,11.854,9.529,19.149v6.383c0,0-1.168,7.031,9.529,7.54
				c10.698,0.509,6.353-7.54,6.353-7.54l3.177-6.383c0,0,5.445-1.824,6.353-6.384c0.908-4.559,3.177-28.724,3.177-28.724
				L127.647,23.707z"/>
		</g>
	</g>
</g>
<g id="Shape_102_copy_2_1_" enable-background="new    ">
	<g id="Shape_102_copy_2">
		<g>
			<path fill="#171714" d="M151.104,13.699c-1.528-5.086,0,0-7.18-5.662c-7.18-5.659-13.305-4.261-24.575-2.468
				c-11.269,1.793-10.196,10.869-11.695,20.141c-1.499,9.271,8.957,26.633,8.957,26.633s4.312-4.831,3.109-6.447
				c-1.203-1.615-3.239-7.668,2.295-8.864c5.533-1.201,7.18,5.657,7.18,5.657s-0.444-5.242-0.889-10.487
				c-0.444-5.242,6.68-5.631,14.211-4.811C150.049,28.212,152.632,18.785,151.104,13.699z"/>
		</g>
	</g>
</g>
</svg>
