<?xml version="1.0" encoding="iso-8859-1"?>
<!-- Generator: Adobe Illustrator 19.0.0, SVG Export Plug-In . SVG Version: 6.00 Build 0)  -->
<svg xmlns="http://www.w3.org/2000/svg" xmlns:xlink="http://www.w3.org/1999/xlink" version="1.1" id="Capa_1" x="0px" y="0px" viewBox="0 0 508.1 508.1" style="enable-background:new 0 0 508.1 508.1;" xml:space="preserve" width="512px" height="512px">
<g>
	<g>
		<path d="M180.3,41C103.5,41,41,103.5,41,180.3s62.5,139.3,139.3,139.3s139.3-62.5,139.3-139.3S257.1,41,180.3,41z M57.4,180.4    c0-67.9,55.1-123,122.9-123c52.7,0,97.6,33.4,115.1,80.1l-27.6,43.4c-0.1,0-0.2,0-0.2,0c-0.4-0.1-0.9-0.1-1.3-0.2    c-1.1-0.2-2.2-0.3-3.3-0.3c-0.2,0-0.4-0.1-0.7-0.1c-0.3,0-0.5,0.1-0.8,0.1c-0.4,0-0.9,0-1.3,0l-11.3-24.8l-10.5-23.1    c4.6-4.5,7.6-10.7,7.6-17.7c0-13.6-11-24.6-24.6-24.6c-13.6,0-24.6,11-24.6,24.6c0,5.9,2.2,11.3,5.7,15.5l-26.6,44.3l-23.4,39    c-0.2-0.1-0.5,0-0.8-0.1c-1.2-0.2-2.5-0.4-3.7-0.4c-0.1,0-0.3,0-0.4,0c-0.4,0-0.7,0.1-1,0.1c-0.7,0-1.3,0-2,0.1l-9.7-19.4    l-10.6-21.1c4.3-4.4,6.9-10.4,6.9-17c0-13.6-11-24.6-24.6-24.6c-13.6,0-24.6,11-24.6,24.6c0,5,1.5,9.7,4.1,13.6l-26.3,35.1    C58.2,196.7,57.4,188.6,57.4,180.4z M270.3,204.8c0,4.5-3.7,8.2-8.2,8.2s-8.2-3.7-8.2-8.2c0.1-3.3,2.1-6.1,4.9-7.4    c0.2-0.1,0.4-0.1,0.7-0.2c0.7-0.3,1.5-0.4,2.3-0.5c0.2,0,0.4,0,0.6,0c0.9,0,1.8,0.2,2.6,0.5c0.3,0.1,0.5,0.2,0.8,0.4    C268.5,199,270.3,201.6,270.3,204.8z M229.4,114.7c0,3.3-2,6.2-4.8,7.4c-0.2,0.1-0.4,0.2-0.6,0.3c-0.8,0.3-1.6,0.4-2.4,0.5    c-0.2,0-0.3,0-0.5,0c-0.9,0-1.8-0.2-2.6-0.5c-0.3-0.1-0.7-0.3-1-0.5c-2.6-1.4-4.5-4-4.5-7.2c0-4.5,3.7-8.2,8.2-8.2    S229.4,110.2,229.4,114.7z M155.7,237.7c0,4.5-3.7,8.2-8.2,8.2s-8.2-3.7-8.2-8.2c0-3.3,1.9-6.1,4.6-7.4c0.4-0.2,0.7-0.3,1.1-0.4    c0.7-0.2,1.4-0.4,2.1-0.4c0.2,0,0.3,0,0.5,0c0.9,0,1.8,0.2,2.6,0.5c0.3,0.1,0.7,0.3,1,0.5C153.8,231.9,155.7,234.5,155.7,237.7z     M114.7,155.7c0,3.2-1.9,6-4.6,7.3c-0.6,0.3-1.2,0.4-1.8,0.5c-0.3,0.1-0.7,0.2-1,0.2c-0.6,0-1.2,0-1.7,0c-0.3,0-0.6-0.1-1-0.2    c-0.7-0.2-1.3-0.4-1.9-0.7c-2.6-1.4-4.4-4-4.4-7.1c0-4.5,3.7-8.2,8.2-8.2S114.7,151.2,114.7,155.7z M180.3,303.2    c-52.4,0-97.1-33-114.7-79.2l33.6-44.9c0.3,0.1,0.7,0.1,1,0.2c0.9,0.3,1.9,0.4,2.9,0.6c0.8,0.1,1.5,0.2,2.3,0.2    c0.4,0,0.8,0.1,1.2,0.1c0.6,0,1.1-0.1,1.7-0.2c0.5,0,0.9,0,1.4,0l10.5,21.1l9.7,19.4c-4.3,4.4-6.9,10.4-6.9,17    c0,13.6,11,24.6,24.6,24.6c13.6,0,24.6-11,24.6-24.6c0-5.9-2.2-11.3-5.7-15.5l23.5-39.1l26.5-44.2c0.2,0,0.4,0,0.5,0.1    c1.3,0.2,2.5,0.4,3.8,0.4c0.2,0,0.3,0.1,0.5,0.1c0.2,0,0.5-0.1,0.7-0.1c0.5,0,0.9,0,1.4,0l10.5,23.1l11.3,24.9    c-4.6,4.5-7.6,10.7-7.6,17.7c0,13.6,11,24.6,24.6,24.6c13.6,0,24.6-11,24.6-24.6c0-5.7-2-10.9-5.3-15.1l19.7-30.9    c1.2,7,2,14.1,2,21.4C303.2,248,248,303.2,180.3,303.2z" fill="#1468c6"/>
	</g>
</g>
<g>
	<g>
		<path d="M493.6,424.1L368.5,299c-11.4-11.4-27-15.9-41.9-13.7c21.3-29.6,33.9-65.9,33.9-105C360.5,80.9,279.7,0,180.3,0    S0,80.9,0,180.3s80.9,180.3,180.3,180.3c39.1,0,75.3-12.6,104.9-33.8c-0.3,2.3-0.6,4.6-0.6,7c0,13.1,5.1,25.5,14.4,34.8    l125.1,125.1c9.3,9.3,21.6,14.4,34.8,14.4c13.1,0,25.5-5.1,34.8-14.4s14.4-21.6,14.4-34.8C508,445.7,502.9,433.4,493.6,424.1z     M180.3,344.2c-90.4-0.1-163.9-73.6-163.9-163.9c0-90.4,73.5-163.9,163.9-163.9s163.9,73.5,163.9,163.9S270.7,344.2,180.3,344.2z     M482,482c-12.4,12.4-34,12.4-46.4,0l-125-125.1c-6.2-6.2-9.6-14.4-9.6-23.2c0-8.8,3.4-17,9.6-23.2c6.4-6.4,14.8-9.6,23.2-9.6    s16.8,3.2,23.2,9.6l125,125.2c6.2,6.2,9.6,14.4,9.6,23.2C491.6,467.6,488.2,475.8,482,482z" fill="#1468c6"/>
	</g>
</g>
<g>
	<g>
		<rect x="388.096" y="388.07" transform="matrix(0.7071 -0.7071 0.7071 0.7071 -164.1328 396.2868)" width="16.4" height="16.4" fill="#1468c6"/>
	</g>
</g>
<g>
	<g>
		<polygon points="419.5,407.9 407.9,419.5 419.5,431 431.1,419.5   " fill="#1468c6"/>
	</g>
</g>
<g>
	<g>
		<rect x="364.91" y="364.944" transform="matrix(0.7071 -0.7071 0.7071 0.7071 -154.571 373.1198)" width="16.4" height="16.4" fill="#1468c6"/>
	</g>
</g>
<g>
</g>
<g>
</g>
<g>
</g>
<g>
</g>
<g>
</g>
<g>
</g>
<g>
</g>
<g>
</g>
<g>
</g>
<g>
</g>
<g>
</g>
<g>
</g>
<g>
</g>
<g>
</g>
<g>
</g>
</svg>
