<?xml version="1.0" encoding="iso-8859-1"?>
<!-- Generator: Adobe Illustrator 19.0.0, SVG Export Plug-In . SVG Version: 6.00 Build 0)  -->
<svg xmlns="http://www.w3.org/2000/svg" xmlns:xlink="http://www.w3.org/1999/xlink" version="1.1" id="Capa_1" x="0px" y="0px" viewBox="0 0 508 508" style="enable-background:new 0 0 508 508;" xml:space="preserve" width="512px" height="512px">
<g>
	<g>
		<rect x="204.8" y="41" width="98.3" height="16.4" fill="#1468C6"/>
	</g>
</g>
<g>
	<g>
		<rect x="221.2" y="450.6" width="65.5" height="16.4" fill="#1468C6"/>
	</g>
</g>
<g>
	<g>
		<path d="M467,90.1c-19.8,0-36.3,14.1-40.1,32.8h-17.2V41c0-22.6-18.4-41-41-41H139.3c-22.6,0-41,18.4-41,41v325.8H81.1    C77.3,348.1,60.8,334,41,334c-22.6,0-41,18.4-41,41c0,22.6,18.4,41,41,41c19.8,0,36.3-14.1,40.1-32.8h17.2V467    c0,22.6,18.4,41,41,41h229.4c22.6,0,41-18.4,41-41V139.3h17.2c3.8,18.7,20.4,32.8,40.1,32.8c22.6,0,41-18.4,41-41    C508,108.5,489.6,90.1,467,90.1z M41,399.6c-13.6,0-24.6-11-24.6-24.6c0-13.6,11-24.6,24.6-24.6s24.6,11,24.6,24.6    C65.6,388.6,54.5,399.6,41,399.6z M254,270.4c26.4,0,48,20.9,49.1,47.1C289.4,327.8,272.5,334,254,334    c-18.4-0.1-35.4-6.2-49.1-16.5C206,291.4,227.6,270.4,254,270.4z M229.4,229.4c0-13.6,11-24.6,24.6-24.6c13.6,0,24.6,11,24.6,24.6    c0,13.6-11,24.6-24.6,24.6C240.4,254,229.4,243,229.4,229.4z M281.1,260c8.5-7.5,13.9-18.3,13.9-30.5c0-22.6-18.4-41-41-41    c-22.6,0-41,18.4-41,41c0,12.2,5.4,23,13.9,30.5c-18,8.2-31.6,24.2-36.4,43.7c-11.5-14.1-18.4-32.1-18.4-51.7    c0-45.2,36.8-81.9,81.9-81.9c45.2,0,81.9,36.8,81.9,81.9c0,19.6-6.9,37.5-18.4,51.7C312.6,284.2,299,268.2,281.1,260z M295,162.7    c-12.5-5.8-26.3-9.1-41-9.1c-54.2,0-98.3,44.1-98.3,98.3c0,32.8,16.2,61.8,41,79.7v35.1h-81.9V98.3h278.5v24.6H295V162.7z     M114.7,383.2H213v-41.9c12.5,5.8,26.3,9.1,41,9.1c54.2,0,98.3-44.1,98.3-98.3c0-32.8-16.2-61.8-41-79.7v-33h81.9v270.3H114.7    V383.2z M393.3,467c0,13.6-11,24.6-24.6,24.6H139.3c-13.6,0-24.6-11-24.6-24.6v-41h278.6V467z M393.3,82H114.7V41    c0-13.6,11-24.6,24.6-24.6h229.4c13.6,0,24.6,11,24.6,24.6V82z M467,155.7c-13.6,0-24.6-11-24.6-24.6c0-13.6,11-24.6,24.6-24.6    c13.6,0,24.6,11,24.6,24.6C491.6,144.7,480.6,155.7,467,155.7z" fill="#1468C6"/>
	</g>
</g>
<g>
</g>
<g>
</g>
<g>
</g>
<g>
</g>
<g>
</g>
<g>
</g>
<g>
</g>
<g>
</g>
<g>
</g>
<g>
</g>
<g>
</g>
<g>
</g>
<g>
</g>
<g>
</g>
<g>
</g>
</svg>
