<?xml version="1.0" encoding="iso-8859-1"?>
<!-- Generator: Adobe Illustrator 19.0.0, SVG Export Plug-In . SVG Version: 6.00 Build 0)  -->
<svg xmlns="http://www.w3.org/2000/svg" xmlns:xlink="http://www.w3.org/1999/xlink" version="1.1" id="Capa_1" x="0px" y="0px" viewBox="0 0 508 508" style="enable-background:new 0 0 508 508;" xml:space="preserve" width="512px" height="512px">
<g>
	<g>
		<g>
			<path d="M468.8,184.75c-9.4-70.5-68.6-123.3-139.2-123.3c-48.4,0-93.2,25.3-118.9,66.7c-13.1-5.9-27.4-9-41.8-9     c-35.2,0-68.2,18.6-86.9,48.8c-46.3,5.7-82,46.1-82,93.9c0,52.2,41.8,94.6,93.3,94.6H142c11.3,51.5,57.2,90.1,112,90.1     s100.7-38.7,112-90.1h48.7c51.4,0,93.3-42.5,93.3-94.6C508,231.05,493.4,202.55,468.8,184.75z M254,430.25     c-54.2,0-98.3-44.1-98.3-98.3c0-54.2,44.1-98.3,98.3-98.3s98.3,44.1,98.3,98.3S308.2,430.25,254,430.25z M414.7,340.05h-46.4     c0.2-2.7,0.4-5.4,0.4-8.2c0-63.3-51.5-114.7-114.7-114.7s-114.7,51.5-114.7,114.7c0,2.8,0.2,5.5,0.4,8.2H93.3     c-42.4,0-76.9-35.1-76.9-78.3c0-40.7,31.3-75,71.2-78l4.4-0.3l2.2-3.8c15.4-27.3,44.1-44.2,74.8-44.2c14.3,0,28.5,3.7,41.1,10.6     l7.2,4l3.9-7.2c21.9-40.1,63.5-65,108.5-65c63.4,0,116.5,48.3,123.4,112.4l0.4,3.8l3.2,2.1c21.9,14.5,35,39.1,35,65.6     C491.6,304.95,457.1,340.05,414.7,340.05z" fill="#1468C6"/>
			<path d="M254,381.05c-29.3,0-53.5-22.5-56.2-51.1l5.1,5.1l11.6-11.6l-25.2-25.2l-25.2,25.2l11.6,11.6l5.7-5.7     c2.5,37.9,34.1,68,72.6,68c22.1,0,42.8-9.9,56.7-27.1l-12.7-10.2C287.2,373.35,271.1,381.05,254,381.05z" fill="#1468C6"/>
			<path d="M254,258.15c-22.1,0-42.8,9.9-56.7,27.1l12.7,10.3c10.8-13.4,26.8-21,44-21c29.3,0,53.5,22.5,56.2,51.1l-5.1-5.1     l-11.6,11.5l25.2,25.2l25.2-25.2l-11.6-11.6l-5.7,5.7C324.1,288.25,292.5,258.15,254,258.15z" fill="#1468C6"/>
		</g>
	</g>
</g>
<g>
</g>
<g>
</g>
<g>
</g>
<g>
</g>
<g>
</g>
<g>
</g>
<g>
</g>
<g>
</g>
<g>
</g>
<g>
</g>
<g>
</g>
<g>
</g>
<g>
</g>
<g>
</g>
<g>
</g>
</svg>
