<?xml version="1.0" encoding="iso-8859-1"?>
<!-- Generator: Adobe Illustrator 19.0.0, SVG Export Plug-In . SVG Version: 6.00 Build 0)  -->
<svg xmlns="http://www.w3.org/2000/svg" xmlns:xlink="http://www.w3.org/1999/xlink" version="1.1" id="Capa_1" x="0px" y="0px" viewBox="0 0 508 508" style="enable-background:new 0 0 508 508;" xml:space="preserve" width="512px" height="512px">
<g>
	<g>
		<g>
			<path d="M406.2,0H101.8v80.1h304.4V0z M390.2,64.1H117.8V16h272.4V64.1z" fill="#1468C6"/>
			<rect x="133.8" y="32" width="16" height="16" fill="#1468C6"/>
			<rect x="165.9" y="32" width="16" height="16" fill="#1468C6"/>
			<rect x="197.9" y="32" width="16" height="16" fill="#1468C6"/>
			<rect x="294.1" y="32" width="80.1" height="16" fill="#1468C6"/>
			<path d="M406.2,96.1H101.8v80.1h304.4V96.1z M390.2,160.2H117.8v-48.1h272.4V160.2z" fill="#1468C6"/>
			<rect x="133.8" y="128.2" width="16" height="16" fill="#1468C6"/>
			<rect x="165.9" y="128.2" width="16" height="16" fill="#1468C6"/>
			<rect x="197.9" y="128.2" width="16" height="16" fill="#1468C6"/>
			<rect x="294.1" y="128.2" width="80.1" height="16" fill="#1468C6"/>
			<rect x="133.8" y="224.3" width="16" height="16" fill="#1468C6"/>
			<rect x="165.9" y="224.3" width="16" height="16" fill="#1468C6"/>
			<rect x="197.9" y="224.3" width="16" height="16" fill="#1468C6"/>
			<rect x="294.1" y="224.3" width="80.1" height="16" fill="#1468C6"/>
			<path d="M497.6,352.5l-75.4-75.4v43.4h-40.1v-48.1h24v-80.1H101.8v80.1h24v48.1h-40v-43.4l-75.4,75.4l75.4,75.4v-43.4h104.1     V272.4h32v160.2h-43.4L254,508l75.4-75.4H286V272.4h32v112.2h104.1V428L497.6,352.5z M69.8,368.5v20.7L33,352.5l36.7-36.7v20.7     h72.1v-64.1h32v96.1H69.8z M290.7,448.6L254,485.3l-36.7-36.7H238V272.4h32v176.2H290.7z M117.8,256.3v-48.1h272.4v48.1H117.8z      M334.1,368.5v-96.1h32v64.1h72.1v-20.7l36.7,36.7l-36.7,36.7v-20.7H334.1z" fill="#1468C6"/>
		</g>
	</g>
</g>
<g>
</g>
<g>
</g>
<g>
</g>
<g>
</g>
<g>
</g>
<g>
</g>
<g>
</g>
<g>
</g>
<g>
</g>
<g>
</g>
<g>
</g>
<g>
</g>
<g>
</g>
<g>
</g>
<g>
</g>
</svg>
