<?xml version="1.0" encoding="iso-8859-1"?>
<!-- Generator: Adobe Illustrator 19.0.0, SVG Export Plug-In . SVG Version: 6.00 Build 0)  -->
<svg xmlns="http://www.w3.org/2000/svg" xmlns:xlink="http://www.w3.org/1999/xlink" version="1.1" id="Capa_1" x="0px" y="0px" viewBox="0 0 508 508" style="enable-background:new 0 0 508 508;" xml:space="preserve" width="512px" height="512px">
<g>
	<g>
		<g>
			<rect x="32.8" y="200.65" width="16" height="16.4" fill="#1468C6"/>
			<rect x="65.8" y="200.65" width="16" height="16.4" fill="#1468C6"/>
			<rect x="98.7" y="200.65" width="16" height="16.4" fill="#1468C6"/>
			<rect x="32.8" y="315.45" width="16" height="16.4" fill="#1468C6"/>
			<rect x="65.8" y="315.45" width="16" height="16.4" fill="#1468C6"/>
			<rect x="98.7" y="315.45" width="16" height="16.4" fill="#1468C6"/>
			<path d="M393.3,45.05H0v98.3h393.3V45.05z M376.9,126.95H16.4v-65.5h360.5V126.95z" fill="#1468C6"/>
			<rect x="32.8" y="85.95" width="16" height="16.4" fill="#1468C6"/>
			<rect x="65.8" y="85.95" width="16" height="16.4" fill="#1468C6"/>
			<rect x="98.7" y="85.95" width="16" height="16.4" fill="#1468C6"/>
			<path d="M491.6,315.45v-41c0-40.7-33.1-73.7-73.7-73.7c-8.6,0-16.9,1.6-24.6,4.3v-45.3H0v98.3h346c-1.2,5.3-1.9,10.7-1.9,16.4H0     v98.3h188.5v24.6h-24.6v24.6H90.1v16.4h73.7v24.6h65.5v-24.6H303v-16.4h-73.7v-24.6h-24.6v-24.6h122.9v90.1H508v-147.4H491.6z      M417.9,217.05c31.6,0,57.4,25.7,57.4,57.4v41H360.5v-41C360.5,242.85,386.2,217.05,417.9,217.05z M16.4,241.75v-0.1v-65.5h360.5     v37.1c-10.6,7.1-19.2,17-25,28.5H16.4z M213,413.75v32.8h-32.8v-32.8H213z M327.7,356.35H16.4v-65.5h327.7v24.6h-16.4V356.35z      M491.6,446.45H344.1v-114.7h147.5V446.45z" fill="#1468C6"/>
			<path d="M409.7,404.05v17.9h16.4v-17.9c9.5-3.4,16.4-12.4,16.4-23.1c0-13.6-11-24.6-24.6-24.6c-13.6,0-24.6,11-24.6,24.6     C393.3,391.65,400.2,400.65,409.7,404.05z M417.9,372.75c4.5,0,8.2,3.7,8.2,8.2s-3.7,8.2-8.2,8.2s-8.2-3.7-8.2-8.2     S413.4,372.75,417.9,372.75z" fill="#1468C6"/>
		</g>
	</g>
</g>
<g>
</g>
<g>
</g>
<g>
</g>
<g>
</g>
<g>
</g>
<g>
</g>
<g>
</g>
<g>
</g>
<g>
</g>
<g>
</g>
<g>
</g>
<g>
</g>
<g>
</g>
<g>
</g>
<g>
</g>
</svg>
